<svg width="12" height="13" viewBox="0 0 12 13" fill="none" xmlns="http://www.w3.org/2000/svg">
<path d="M4.53345 2.00293C3.80568 2.00293 3.20794 2.60067 3.20794 3.32844V8.63047C3.20794 9.35824 3.80568 9.95598 4.53345 9.95598H8.38947C9.11724 9.95598 9.71498 9.35824 9.71498 8.63047V3.32844C9.71498 2.60067 9.11724 2.00293 8.38947 2.00293H4.53345ZM4.53345 2.72593H8.38947C8.72645 2.72593 8.99198 2.99146 8.99198 3.32844V8.63047C8.99198 8.96745 8.72645 9.23298 8.38947 9.23298H4.53345C4.19647 9.23298 3.93094 8.96745 3.93094 8.63047V3.32844C3.93094 2.99146 4.19647 2.72593 4.53345 2.72593ZM2.72593 3.20794L2.43221 3.40375C2.16398 3.58257 2.00293 3.88362 2.00293 4.20583V8.87147C2.00293 10.136 3.02791 11.161 4.29244 11.161H7.51207C7.83454 11.161 8.13558 10.9999 8.31416 10.7317L8.50997 10.438H4.29244C3.42725 10.438 2.72593 9.73667 2.72593 8.87147V3.20794Z" fill="#1DB9A6"/>
</svg>
