<svg width="13" height="13" viewBox="0 0 13 13" fill="none" xmlns="http://www.w3.org/2000/svg">
<path d="M9.08234 2.24023C9.0104 2.24025 8.9401 2.26173 8.88043 2.30193C8.82076 2.34213 8.77445 2.39921 8.7474 2.46588C8.72036 2.53255 8.71383 2.60577 8.72863 2.67618C8.74344 2.74658 8.77891 2.81097 8.83052 2.8611L9.41843 3.44901H9.08611C6.22865 3.44901 3.90458 5.77308 3.90458 8.63054C3.9039 8.67844 3.91275 8.72601 3.93061 8.77046C3.94847 8.81491 3.97499 8.85537 4.00863 8.88949C4.04227 8.9236 4.08235 8.95069 4.12654 8.96918C4.17074 8.98767 4.21817 8.99719 4.26608 8.99719C4.31399 8.99719 4.36142 8.98767 4.40561 8.96918C4.44981 8.95069 4.48989 8.9236 4.52352 8.88949C4.55716 8.85537 4.58368 8.81491 4.60154 8.77046C4.61941 8.72601 4.62826 8.67844 4.62758 8.63054C4.62758 6.1638 6.61936 4.17201 9.08611 4.17201H9.41843L8.83052 4.75992C8.79582 4.79324 8.76812 4.83313 8.74904 4.87728C8.72996 4.92143 8.71988 4.96895 8.71939 5.01704C8.7189 5.06513 8.72801 5.11284 8.74619 5.15737C8.76437 5.2019 8.79126 5.24235 8.82526 5.27636C8.85927 5.31037 8.89973 5.33725 8.94426 5.35543C8.98878 5.37361 9.03649 5.38272 9.08459 5.38224C9.13268 5.38175 9.18019 5.37167 9.22434 5.35259C9.26849 5.3335 9.30839 5.30581 9.3417 5.27111L10.5156 4.09717C10.5598 4.06329 10.5956 4.01967 10.6201 3.9697C10.6447 3.91973 10.6573 3.86477 10.6572 3.8091C10.657 3.75343 10.6439 3.69855 10.6191 3.64875C10.5942 3.59894 10.5582 3.55556 10.5138 3.52197L9.3417 2.34991C9.30801 2.31521 9.26769 2.28762 9.22314 2.26878C9.17859 2.24994 9.13071 2.24024 9.08234 2.24023ZM3.54307 2.244C2.68223 2.244 1.97656 2.94967 1.97656 3.81051V9.35355C1.97656 10.2144 2.68223 10.9201 3.54307 10.9201H9.08611C9.94695 10.9201 10.6526 10.2144 10.6526 9.35355V7.42553C10.6533 7.37763 10.6444 7.33007 10.6266 7.28562C10.6087 7.24116 10.5822 7.2007 10.5486 7.16659C10.5149 7.13247 10.4748 7.10538 10.4307 7.08689C10.3865 7.0684 10.339 7.05888 10.2911 7.05888C10.2432 7.05888 10.1958 7.0684 10.1516 7.08689C10.1074 7.10538 10.0673 7.13247 10.0337 7.16659C10 7.2007 9.97351 7.24116 9.95565 7.28562C9.93779 7.33007 9.92894 7.37763 9.92961 7.42553V9.35355C9.92961 9.82351 9.55608 10.1971 9.08611 10.1971H3.54307C3.0731 10.1971 2.69957 9.82351 2.69957 9.35355V3.81051C2.69957 3.34054 3.0731 2.967 3.54307 2.967H5.47109C5.51899 2.96768 5.56655 2.95883 5.611 2.94097C5.65546 2.92311 5.69592 2.89659 5.73003 2.86295C5.76415 2.82931 5.79123 2.78923 5.80972 2.74504C5.82821 2.70084 5.83774 2.65341 5.83774 2.6055C5.83774 2.55759 5.82821 2.51016 5.80972 2.46597C5.79123 2.42177 5.76415 2.38169 5.73003 2.34805C5.69592 2.31442 5.65546 2.2879 5.611 2.27004C5.56655 2.25217 5.51899 2.24332 5.47109 2.244H3.54307Z" fill="#1DB9A6"/>
</svg>
