<svg width="16" height="10" viewBox="0 0 16 10" fill="none" xmlns="http://www.w3.org/2000/svg">
<path d="M8.02794 2.35059C6.71525 2.35059 5.65198 3.41386 5.65198 4.72655C5.65198 6.03923 6.71525 7.10251 8.02794 7.10251C9.34062 7.10251 10.4039 6.03923 10.4039 4.72655C10.4006 3.41386 9.33734 2.35059 8.02794 2.35059ZM8.02794 3.95206C7.60132 3.95206 7.25345 4.29992 7.25345 4.72655C7.25345 4.92345 7.09593 5.08097 6.89903 5.08097C6.70213 5.08097 6.5446 4.92345 6.5446 4.72655C6.5446 3.9094 7.21079 3.24321 8.02794 3.24321C8.22484 3.24321 8.38236 3.40073 8.38236 3.59764C8.38236 3.79454 8.22156 3.95206 8.02794 3.95206Z" fill="#1DB9A6"/>
<path d="M15.7957 4.19186C8.41843 -4.29465 1.74998 2.42302 0.161634 4.28375C-0.0516775 4.53316 -0.0549593 4.90071 0.158352 5.15012C7.44048 13.6498 14.0531 7.27011 15.7957 5.27154C16.0681 4.96306 16.0681 4.50362 15.7957 4.19186ZM8.0279 8.10038C6.16389 8.10038 4.6543 6.59079 4.6543 4.72678C4.6543 2.86277 6.16389 1.35318 8.0279 1.35318C9.89192 1.35318 11.4015 2.86277 11.4015 4.72678C11.4015 6.59079 9.88864 8.10038 8.0279 8.10038Z" fill="#1DB9A6"/>
</svg>
