<svg
        width="1253"
        height="353"
        viewBox="0 0 1253 353"
        fill="none"
        xmlns="http://www.w3.org/2000/svg">
        <path
                d="M31.35 75.85C103.52 -27.16 253.77 -23.23 320.9 75.38C287.41 108.91 253.89 142.45 220.25 176.12C254.03 210.04 287.48 243.63 321.4 277.7C285.81 325.19 239.04 351.68 179.4 352.6C117.53 353.56 68.81 327.19 31.72 278.25C65.69 244.32 99.23 210.82 132.85 177.23C98.59 143.01 65.05 109.51 31.34 75.85H31.35ZM234.17 73.84C197.69 51.78 147.42 54.97 119.03 74.05C138.22 93.24 157.48 112.5 176.49 131.51C195.45 112.55 214.71 93.29 234.17 73.84ZM118.76 278.39C139.28 298.89 206.11 299.14 233.61 279.08C214.35 259.82 195.01 240.49 175.84 221.32C157.1 240.06 137.93 259.23 118.76 278.39Z"
                fill="white" />
        <path
                d="M707.14 162.97C706.66 194.97 701.98 220.72 685.43 242.95C668.74 265.38 646.09 277.8 618.6 281.5C599.62 284.05 580.69 283.58 562.26 278C529.05 267.94 506.86 246.07 496.63 213.1C487.12 182.46 487.43 151.27 497.1 120.69C509.87 80.31 544.58 54.53 586.78 52.29C606.13 51.26 625.14 52.38 643.18 59.77C678.03 74.04 697.43 100.9 704.23 137.28C706.12 147.38 706.57 157.74 707.14 162.99V162.97ZM660.62 168.76C659.34 157.71 658.85 148.69 657.18 139.9C651.6 110.45 631.06 92.43 602.26 91.18C573.29 89.92 551.01 104.2 542.59 130.62C535.03 154.36 534.87 178.57 542.38 202.39C550.75 228.92 572.5 244.1 600.03 243.65C626.95 243.21 647.84 227.43 655.18 200.69C658.19 189.72 659.07 178.17 660.61 168.76H660.62Z"
                fill="white" />
        <path
                d="M921.3 308.43C927.85 308.91 933.94 309.71 940.03 309.72C956.23 309.74 970.82 296.1 972.09 279.94C972.21 278.41 971.38 276.74 970.8 275.22C951.65 224.76 932.48 174.31 913.32 123.85C912.57 121.87 911.97 119.83 911.08 117.15C921.93 117.15 932.22 117.1 942.5 117.17C947.31 117.21 953.22 115.85 956.59 118.13C959.68 120.23 960.08 126.36 961.57 130.75C972.2 162.2 982.81 193.67 993.44 225.12C993.89 226.47 994.46 227.77 995.46 230.33C998.97 219.79 1002.11 210.44 1005.2 201.07C1013.92 174.58 1022.66 148.1 1031.26 121.57C1032.26 118.48 1033.44 116.98 1037.05 117.04C1050.35 117.28 1063.65 117.13 1077.7 117.13C1074.52 125.81 1071.56 133.86 1068.61 141.92C1049.54 193.99 1030.5 246.07 1011.39 298.13C1009.73 302.65 1007.72 307.03 1005.85 311.47C996.84 332.82 980.05 343.13 957.58 344.2C947.86 344.67 938.03 343.24 928.27 342.42C927.09 342.32 925.23 340.72 925.08 339.63C923.66 329.31 922.54 318.94 921.32 308.42L921.3 308.43Z"
                fill="white" />
        <path
                d="M741.21 117.49H781.06V139.7C783.13 137.5 784.27 136.29 785.4 135.08C804.57 114.57 831.88 107.93 857.5 117.51C875.56 124.26 885.17 137.58 887.29 156.4C888.13 163.82 888.38 171.35 888.41 178.83C888.53 210.32 888.46 241.81 888.46 273.29C888.46 275.07 888.46 276.86 888.46 278.93H845.53C845.44 277.16 845.27 275.42 845.27 273.67C845.25 247.85 845.34 222.02 845.22 196.2C845.18 188.05 844.84 179.88 844.21 171.75C842.72 152.49 828.14 142.68 809.38 148.09C795.16 152.19 786.44 163.03 785.48 179.03C784.67 192.65 784.46 206.31 784.32 219.96C784.13 237.95 784.15 255.95 784.37 273.94C784.42 278.16 783.05 279.38 778.96 279.3C767.8 279.07 756.64 279.13 745.48 279.28C742.22 279.32 740.68 278.63 740.69 274.92C740.79 223.61 740.75 172.29 740.78 120.98C740.78 119.86 741.06 118.74 741.22 117.49H741.21Z"
                fill="white" />
        <path
                d="M1086.23 117.17C1103.75 117.17 1120.22 117.08 1136.7 117.32C1138.19 117.34 1140.1 119.14 1141.07 120.6C1148.85 132.41 1156.45 144.34 1164.1 156.22C1164.99 157.61 1165.92 158.97 1167.2 160.9C1169.76 157.22 1172.13 153.88 1174.43 150.51C1181.27 140.47 1188.02 130.37 1194.99 120.42C1195.99 118.99 1197.93 117.33 1199.46 117.31C1215.26 117.08 1231.06 117.17 1248.05 117.17C1229.45 143.18 1211.41 168.4 1193.22 193.84C1213.02 222.02 1232.76 250.12 1252.95 278.87C1250.64 279.04 1249.22 279.23 1247.8 279.23C1233.47 279.25 1219.15 279.13 1204.82 279.32C1201.18 279.37 1199.07 278.08 1197.15 275.1C1188.33 261.39 1179.3 247.81 1170.34 234.18C1169.45 232.82 1168.48 231.52 1167.14 229.62C1162.38 236.77 1157.9 243.49 1153.44 250.22C1147.74 258.81 1142.14 267.47 1136.31 275.97C1135.33 277.4 1133.37 279.07 1131.84 279.09C1116.21 279.32 1100.57 279.23 1083.8 279.23C1085.1 277.09 1085.89 275.6 1086.85 274.23C1103.84 249.96 1120.74 225.63 1137.95 201.52C1141.02 197.22 1141.22 194.39 1137.99 189.97C1121.5 167.39 1105.41 144.53 1089.18 121.75C1088.34 120.57 1087.6 119.31 1086.22 117.17H1086.23Z"
                fill="white" />
        <path
                d="M326.03 269.59C312.11 255.64 298.43 242 284.9 228.21C284.09 227.39 283.88 225.16 284.37 224C297.66 192.29 297.65 160.64 284.39 128.92C283.86 127.66 284.16 125.24 285.05 124.33C298.37 110.78 311.85 97.4 325.3 83.99C325.5 83.79 325.88 83.78 326.16 83.68C360.59 135.08 362.8 213.18 326.02 269.59H326.03Z"
                fill="white" />
        <path
                d="M26.75 269.49C-9.48 214.18 -8.32 136.03 26.69 83.45C27.67 84.32 28.68 85.11 29.58 86.01C41.96 98.37 54.27 110.8 66.74 123.05C68.96 125.23 69.43 126.87 68.17 129.86C55.18 160.68 55.26 191.63 68.03 222.48C69.33 225.62 69.01 227.38 66.6 229.74C53.29 242.8 40.17 256.06 26.75 269.49V269.49Z"
                fill="white" />
</svg>
        