<svg width="1253" height="354" viewBox="0 0 1253 354" fill="none" xmlns="http://www.w3.org/2000/svg">
<path d="M321.25 75.61C287.36 109.69 253.91 143.33 220.19 177.23C253.67 210.69 287.24 244.24 320.96 277.95C304.6 301.08 284.21 319.33 259.4 332.56C182.65 373.5 87.59 352.43 35.09 283.05C32.21 279.24 32.11 277.17 35.67 273.64C66.71 242.93 97.51 211.98 128.41 181.13C129.7 179.84 131.18 178.74 132.35 177.75C98.41 143.71 64.93 110.12 31.03 76.12C64.93 30.1 109.57 3.81001 166.17 0.90001C230.9 -2.42999 282.26 23.97 321.24 75.61H321.25ZM233.86 279.34C214.57 260.05 195.22 240.69 176.31 221.78C157.27 240.82 137.91 260.18 118.64 279.45C151.48 300.28 202.66 299.6 233.87 279.33L233.86 279.34ZM234.28 74.55C199.14 52.44 147.45 54.92 119.36 74.13C138.54 93.31 157.89 112.66 177.02 131.78C195.67 113.14 214.86 93.97 234.28 74.55Z" fill="black"/>
<path d="M707.31 167.92C706.58 191.93 702.96 215.1 690.17 235.91C674.11 262.05 650.45 276.84 620.32 281.62C600.47 284.77 580.75 284.04 561.53 278.2C530.89 268.89 509.22 249.09 498.49 218.99C486.18 184.46 485.99 149.04 499.49 114.96C513.89 78.6 541.53 57.73 581 53.48C601.8 51.24 622.34 52.19 641.92 59.94C677.52 74.02 697.23 101.21 704.05 138.2C705.85 147.98 706.26 158.01 707.31 167.92ZM660.06 167.37C659.44 160.26 659.11 153.12 658.17 146.05C653.35 109.92 628.5 90.44 596.61 91.43C572.33 92.18 551.57 105.23 543.44 128.14C534.32 153.86 534.13 180.16 543.24 205.94C552.01 230.74 573.72 244.84 600.41 244.48C625.23 244.14 645.85 228.71 654.34 204.26C658.49 192.3 659.57 179.95 660.06 167.38V167.37Z" fill="black"/>
<path d="M1032.68 117.74H1077.28C1074.77 124.81 1072.43 131.61 1069.95 138.36C1050.38 191.8 1030.82 245.24 1011.15 298.63C1008.98 304.53 1006.28 310.26 1003.55 315.94C994.74 334.26 979.31 343.02 959.76 344.34C948.43 345.1 936.97 343.94 925.29 343.64C923.85 331.25 922.57 320.24 921.22 308.69C925.24 309.21 928.94 309.78 932.65 310.16C955.41 312.54 964.65 303.86 971.9 280.83C972.4 279.25 971.21 277.02 970.52 275.2C951.25 224.29 931.94 173.39 912.64 122.49C912.12 121.12 911.67 119.73 911.04 117.94H956.87C969.43 155.21 982.02 192.56 994.61 229.91C994.97 229.96 995.33 230.02 995.68 230.07C1007.98 192.73 1020.27 155.39 1032.67 117.74H1032.68Z" fill="black"/>
<path d="M741.22 117.86H780.84V140.46C783.13 138.01 784.5 136.54 785.88 135.08C805.49 114.32 834.59 108.21 859.98 119.21C876.84 126.51 885.58 139.72 886.99 157.4C888.21 172.64 888.06 188.01 888.17 203.32C888.34 228.47 888.22 253.63 888.22 279.18H845.18C845.18 277.53 845.18 275.77 845.18 274.02C845.18 246.69 845.25 219.37 845.12 192.04C845.09 185.05 844.75 178.04 844.04 171.09C842.22 153.12 828.37 143.69 810.63 148.09C795.59 151.82 785.96 163.04 785.27 179.38C784.4 200 784.33 220.66 784.06 241.3C783.9 253.78 784.03 266.27 784.03 279.16H741.21V117.86H741.22Z" fill="black"/>
<path d="M1085.97 117.61C1103.34 117.61 1119.79 117.53 1136.24 117.75C1137.73 117.77 1139.67 119.45 1140.6 120.87C1149.37 134.2 1157.96 147.64 1166.93 161.56C1168.13 159.96 1169.13 158.72 1170.03 157.4C1178.35 145.16 1186.59 132.85 1195.06 120.71C1196.09 119.23 1198.36 117.77 1200.08 117.74C1215.56 117.51 1231.05 117.61 1247.64 117.61C1243.37 123.69 1239.58 129.2 1235.69 134.64C1222.32 153.31 1209.01 172.03 1195.45 190.56C1193.23 193.59 1193.62 195.5 1195.59 198.28C1213.57 223.67 1231.42 249.14 1249.31 274.59C1250.25 275.93 1251.14 277.29 1252.42 279.18C1250.68 279.34 1249.47 279.56 1248.26 279.56C1233.6 279.58 1218.94 279.44 1204.28 279.67C1200.79 279.72 1198.94 278.43 1197.16 275.68C1188.32 261.98 1179.32 248.4 1170.36 234.78C1169.38 233.3 1168.33 231.87 1166.96 229.91C1160.02 240.37 1153.43 250.31 1146.83 260.25C1143.15 265.8 1139.58 271.42 1135.73 276.84C1134.83 278.1 1132.98 279.44 1131.56 279.45C1115.94 279.64 1100.31 279.57 1083.53 279.57C1088.33 272.64 1092.6 266.43 1096.92 260.25C1111.13 239.95 1125.27 219.6 1139.67 199.43C1141.93 196.26 1140.61 194.4 1138.94 192.06C1122.41 168.9 1105.9 145.73 1089.39 122.55C1088.43 121.21 1087.51 119.84 1085.97 117.62V117.61Z" fill="black"/>
<path d="M325.93 84.32C360.54 135.53 362.26 214.76 326.45 268.85C312.35 254.76 298.16 240.58 283.6 226.02C290.62 210.49 294.49 193.28 294.2 175.22C293.95 159.59 290.77 144.56 284.56 130.2C283.68 128.16 283.01 126.58 285.09 124.54C298.39 111.47 311.52 98.22 324.72 85.04C325.04 84.72 325.53 84.55 325.93 84.31V84.32Z" fill="black"/>
<path d="M26.78 269.67C-7.06 220.12 -10.79 141.03 26.88 83.37C29.07 85.81 31.03 88.2 33.19 90.37C44.34 101.59 55.5 112.82 66.79 123.9C68.75 125.83 69.13 127.33 68.05 129.89C54.83 161.19 54.96 192.53 67.99 223.89C68.54 225.22 68.51 227.69 67.66 228.56C54.16 242.35 40.47 255.96 26.78 269.65V269.67Z" fill="black"/>
</svg>
