<svg width="353" height="354" viewBox="0 0 353 354" fill="none" xmlns="http://www.w3.org/2000/svg">
<path d="M321.25 75.61C287.36 109.69 253.91 143.33 220.19 177.23C253.67 210.69 287.24 244.24 320.96 277.95C304.6 301.08 284.21 319.33 259.4 332.56C182.65 373.5 87.59 352.43 35.09 283.05C32.21 279.24 32.11 277.17 35.67 273.64C66.71 242.93 97.51 211.98 128.41 181.13C129.7 179.84 131.18 178.74 132.35 177.75C98.41 143.71 64.93 110.12 31.03 76.12C64.93 30.1 109.57 3.81001 166.17 0.90001C230.9 -2.42999 282.26 23.97 321.24 75.61H321.25ZM233.86 279.34C214.57 260.05 195.22 240.69 176.31 221.78C157.27 240.82 137.91 260.18 118.64 279.45C151.48 300.28 202.66 299.6 233.87 279.33L233.86 279.34ZM234.28 74.55C199.14 52.44 147.45 54.92 119.36 74.13C138.54 93.31 157.89 112.66 177.02 131.78C195.67 113.14 214.86 93.97 234.28 74.55V74.55Z" fill="black"/>
<path d="M325.93 84.32C360.54 135.53 362.26 214.76 326.45 268.85C312.35 254.76 298.16 240.58 283.6 226.02C290.62 210.49 294.49 193.28 294.2 175.22C293.95 159.59 290.77 144.56 284.56 130.2C283.68 128.16 283.01 126.58 285.09 124.54C298.39 111.47 311.52 98.22 324.72 85.04C325.04 84.72 325.53 84.55 325.93 84.31V84.32Z" fill="black"/>
<path d="M26.78 269.67C-7.06 220.12 -10.79 141.03 26.88 83.37C29.07 85.81 31.03 88.2 33.19 90.37C44.34 101.59 55.5 112.82 66.79 123.9C68.75 125.83 69.13 127.33 68.05 129.89C54.83 161.19 54.96 192.53 67.99 223.89C68.54 225.22 68.51 227.69 67.66 228.56C54.16 242.35 40.47 255.96 26.78 269.65V269.67Z" fill="black"/>
</svg>
