<svg width="20" height="20" viewBox="0 0 20 20" fill="none" xmlns="http://www.w3.org/2000/svg">
<path d="M17.7143 9.71422C17.7143 5.60769 14.3842 2.28564 10.2857 2.28564C6.17918 2.28564 2.85714 5.60769 2.85714 9.71422C2.85714 13.8127 6.17918 17.1428 10.2857 17.1428C14.3842 17.1428 17.7143 13.8127 17.7143 9.71422Z" fill="url(#paint0_radial_401_532)"/>
<path d="M15.3367 7.39299C15.3047 7.5771 15.2727 7.66516 15.2247 7.76121C15.1766 7.87328 15.1286 7.99336 15.0806 8.24952C15.0646 8.34557 15.0486 8.42562 15.0406 8.48966V8.49767C15.0245 8.60173 15.0165 8.67378 14.9765 8.79385C14.9445 8.89791 14.8885 9.06602 14.7524 9.24213C14.6403 9.38621 14.4562 9.63437 14.208 9.66639C14.184 9.66639 14.144 9.66639 14.12 9.65838C13.4156 9.29816 12.8152 9.034 12.6071 8.97796C12.3669 8.90592 12.3989 8.37759 12.4229 7.91331C12.439 7.70518 12.447 7.50506 12.439 7.33695C12.4069 6.74459 12.3029 6.10419 11.7906 5.792C11.4864 5.60789 11.0861 5.55186 10.7099 5.55186C10.7819 5.51984 10.854 5.47181 10.942 5.42378C11.1662 5.2957 11.4383 5.1356 11.7185 5.10358C11.8066 5.09557 11.8946 5.08757 11.9827 5.07156C12.535 5.00752 13.0153 4.95149 13.5196 5.12759C13.7518 5.20764 14.216 5.4638 14.3361 5.71195C14.4242 5.88006 14.5683 6.01614 14.8484 6.2803C15.0005 6.41639 15.0966 6.49644 15.1686 6.56048C15.2727 6.64053 15.2887 6.66454 15.3207 6.72057C15.4168 6.91269 15.3848 7.11282 15.3367 7.39299Z" fill="white"/>
<path d="M12.7832 9.81843C12.8152 9.82643 12.8312 9.86646 12.8072 9.89848C12.7351 10.0105 12.6471 10.1706 12.543 10.3548C12.495 10.4428 12.447 10.5309 12.4069 10.5949C12.2709 10.827 12.2628 11.0272 12.2548 11.1793C12.2468 11.3474 12.2388 11.4194 12.1348 11.4835C12.0547 11.5395 11.9667 11.5555 11.3903 11.6436C11.2862 11.6596 11.2462 11.6756 11.2062 11.6996C11.1982 11.7076 11.1822 11.7076 11.1742 11.7156C11.1422 11.7316 11.1101 11.6996 11.1101 11.6676C11.1181 11.5875 11.1181 11.4835 11.1181 11.3474V11.3234C11.1181 11.2113 11.1181 11.1152 11.1101 11.0432C11.1021 10.8991 11.1021 10.8351 11.1422 10.771C11.1902 10.691 11.2302 10.6669 11.2862 10.6269C11.3743 10.5709 11.4944 10.4988 11.6625 10.2587C11.7585 10.1306 11.7745 10.0586 11.7906 10.0025C11.7986 9.97853 11.7986 9.97052 11.8706 9.91449C11.9427 9.85845 12.1748 9.68234 12.471 9.73037C12.567 9.74638 12.6711 9.7784 12.7832 9.81843Z" fill="white"/>
<path d="M10.4858 12.4762C10.4697 12.4922 10.4617 12.5002 10.4377 12.5002C10.3737 12.5002 10.3337 12.4842 10.3096 12.4522C10.2536 12.3802 10.2616 12.2361 10.2696 12.148L10.5178 12.084C10.5338 12.2201 10.5418 12.4042 10.4858 12.4762Z" fill="white"/>
<path d="M10.5018 11.5956C10.4938 11.6276 10.4938 11.6676 10.4938 11.7156C10.4938 11.7317 10.4938 11.7477 10.4938 11.7637C10.4938 11.8037 10.4938 11.8677 10.4938 11.8998C10.4137 11.9238 10.3497 11.9238 10.2696 11.9238C10.2696 11.8998 10.2696 11.8597 10.2696 11.8357C10.2696 11.8197 10.2696 11.7957 10.2696 11.7797C10.2696 11.7557 10.2696 11.7397 10.2696 11.7156C10.2696 11.6676 10.2696 11.5956 10.2776 11.5716C10.3016 11.5716 10.3257 11.5636 10.3497 11.5555C10.3977 11.5475 10.4697 11.5315 10.5098 11.5395C10.5098 11.5555 10.5098 11.5796 10.5018 11.5956Z" fill="white"/>
<path d="M10.0537 12.404C10.0457 12.5321 10.0057 12.6842 9.88558 12.7082C9.82955 12.7162 9.80554 12.7002 9.78953 12.6842C9.70948 12.6121 9.70147 12.388 9.70948 12.2279C9.76551 12.2279 9.82955 12.2199 9.9096 12.2039C9.95763 12.1959 10.0057 12.1799 10.0457 12.1719C10.0537 12.2359 10.0617 12.316 10.0537 12.404Z" fill="white"/>
<path d="M9.99745 11.9557L9.73329 12.0517C9.7493 11.9477 9.76531 11.8036 9.77332 11.7075C9.78132 11.6435 9.79733 11.6195 9.80534 11.6115C9.80534 11.6115 9.81334 11.6035 9.82135 11.6035C9.82135 11.6035 9.82135 11.6035 9.82935 11.6035H9.83736L10.0055 11.5955C9.99745 11.6755 9.99745 11.8516 9.99745 11.9557Z" fill="white"/>
<path d="M9.56519 11.8757C9.54918 11.9157 9.53317 12.0278 9.52516 12.1078L9.19696 12.0998C9.21297 11.9958 9.24499 11.8917 9.269 11.8116C9.30102 11.7316 9.32504 11.6676 9.35706 11.6515C9.38908 11.6355 9.46112 11.6275 9.50915 11.6676C9.5812 11.7156 9.59721 11.7876 9.56519 11.8757Z" fill="white"/>
<path d="M9.44534 12.8924C9.42133 12.9244 9.38931 12.9484 9.35729 12.9484C9.31727 12.9565 9.29325 12.9404 9.26924 12.9244C9.16517 12.8284 9.17318 12.5162 9.18118 12.3641C9.31727 12.3321 9.46936 12.3081 9.5414 12.3C9.5414 12.4201 9.54941 12.7483 9.44534 12.8924Z" fill="white"/>
<path d="M9.01285 12.0838C8.99684 12.1238 8.98083 12.1639 8.97282 12.2039C8.9328 12.2199 8.81272 12.2039 8.69265 12.1799L8.7727 11.6596C8.90878 11.6195 9.06888 11.6115 9.1009 11.6516C9.15694 11.7076 9.05287 11.9718 9.01285 12.0838Z" fill="white"/>
<path d="M8.86075 12.9644C8.79671 13.0444 8.70065 13.0844 8.56457 13.0764C8.46851 13.0764 8.43649 13.0364 8.42048 13.0124C8.34844 12.8923 8.42048 12.6121 8.49253 12.436L8.9408 12.46C8.94881 12.4921 8.94881 12.5321 8.94881 12.5721C8.95681 12.7082 8.9408 12.8683 8.86075 12.9644Z" fill="white"/>
<path d="M12.575 9.17812C12.1668 9.06605 12.2068 8.47368 12.2388 7.89733C12.2468 7.6972 12.2629 7.50509 12.2548 7.34499C12.2228 6.80866 12.1348 6.2243 11.7025 5.96014C11.2382 5.67996 10.4778 5.744 10.0135 5.80004C9.84536 5.84807 9.68527 5.88809 9.55719 5.88009C9.28502 5.86408 9.06889 5.75201 8.87677 5.64794C8.73268 5.56789 8.6046 5.49585 8.47652 5.49585C8.46852 5.49585 8.46051 5.49585 8.46051 5.49585C8.10029 5.51986 7.93219 5.60792 7.78009 5.744C7.74007 5.77602 7.69204 5.87208 7.53995 6.31235C7.4599 6.53649 7.45189 6.65656 7.43588 6.76863C7.41987 6.8727 7.41187 6.98477 7.35583 7.15287C7.31581 7.26494 7.28379 7.361 7.25977 7.45706C7.18773 7.70521 7.12369 7.90533 6.94758 8.14548C6.92357 8.16949 6.89955 8.21752 6.86753 8.25755C6.82751 8.32159 6.77948 8.40164 6.70743 8.48969C6.6594 8.55373 6.55534 8.79388 6.56334 8.86592C6.57135 8.986 6.61137 9.05804 6.6514 9.13809C6.69142 9.21814 6.74746 9.3142 6.75546 9.45028V9.4743C6.77147 9.68243 6.73945 9.78649 6.34721 10.1387C6.09906 10.3628 5.91495 10.579 5.79487 10.7391C5.78687 10.7551 5.79487 10.7711 5.81889 10.7711C5.82689 10.7711 5.82689 10.7711 5.82689 10.7711C5.8349 10.7711 5.8429 10.7711 5.85091 10.7711C5.85891 10.7711 5.86692 10.7711 5.87492 10.7711C5.88293 10.7711 5.89093 10.7711 5.89894 10.7711C5.995 10.7791 6.09105 10.8191 6.15509 10.8912C6.1631 10.9072 6.18711 10.9072 6.20312 10.8992C6.26716 10.8752 6.33921 10.8752 6.40325 10.8832C6.4833 10.8912 6.57135 10.9152 6.62738 10.9712C6.64339 10.9872 6.66741 10.9952 6.69142 10.9872C6.75546 10.9712 6.82751 10.9712 6.89155 10.9952C6.93958 11.0112 6.98761 11.0433 7.01963 11.0833C7.04364 11.1073 7.08367 11.1153 7.11568 11.0993C7.13169 11.0913 7.15571 11.0753 7.17972 11.0673C7.26778 11.0353 7.36384 11.0513 7.44389 11.0833C7.48391 11.0993 7.52394 11.1073 7.56396 11.1393C7.628 11.1874 7.67603 11.2514 7.70004 11.3234C7.71605 11.3635 7.77209 11.3795 7.80411 11.3475C7.86815 11.2994 7.91618 11.2914 7.96421 11.3074C7.98822 11.3154 8.00423 11.3314 8.02024 11.3555C8.04426 11.3875 8.08428 11.4195 8.1163 11.4035C8.25238 11.3635 8.41248 11.3875 8.53256 11.4515C8.57258 11.4755 8.62061 11.5075 8.64463 11.5556V11.5316C8.64463 11.5236 8.65263 11.5156 8.66064 11.5075L8.68465 11.4995C8.74869 11.4755 9.0849 11.3795 9.21298 11.5156C9.22098 11.5236 9.22898 11.5236 9.23699 11.5156C9.253 11.4995 9.26901 11.4835 9.27701 11.4835C9.36507 11.4355 9.50916 11.4275 9.60522 11.5156C9.62123 11.5316 9.65325 11.5236 9.66926 11.5075C9.67726 11.4915 9.68527 11.4835 9.70128 11.4755C9.7333 11.4435 9.78132 11.4355 9.82935 11.4355L10.0135 11.4275C10.0615 11.4275 10.2056 11.4115 10.2456 11.4035H10.2536C10.2696 11.4035 10.2936 11.3955 10.3177 11.3875C10.4057 11.3715 10.5098 11.3475 10.5898 11.3875C10.6699 11.4275 10.6619 11.5156 10.6539 11.5956C10.6539 11.6276 10.6459 11.6596 10.6459 11.6917C10.6459 11.7077 10.6459 11.7237 10.6459 11.7397C10.6459 11.8117 10.6459 11.8758 10.6379 11.9238L10.6459 11.9638C10.6459 11.9638 10.6459 11.9638 10.6459 11.9718C10.6539 12.0039 10.6939 12.0279 10.7179 12.0039C10.7819 11.9638 10.846 11.9158 10.87 11.8838V11.8758C10.87 11.8678 10.878 11.8518 10.886 11.8197C10.894 11.7477 10.91 11.6116 10.91 11.3314C10.91 11.3154 10.91 11.3074 10.91 11.2994C10.91 11.1954 10.91 11.1073 10.902 11.0353C10.894 10.8832 10.886 10.7631 10.9661 10.643C11.0381 10.5229 11.1101 10.4829 11.1822 10.4349C11.2622 10.3869 11.3503 10.3308 11.5024 10.1227C11.5744 10.0186 11.5824 9.97861 11.5904 9.94659C11.6064 9.86654 11.6305 9.81851 11.7505 9.73846C11.8466 9.66642 12.1268 9.45028 12.511 9.51432C12.6391 9.53834 12.8392 9.60238 13.0473 9.68243C13.0553 9.68243 13.0633 9.69043 13.0713 9.69043H13.0794C13.2635 9.76248 13.4316 9.84252 13.5516 9.90656C13.5757 9.92257 13.6077 9.91457 13.6317 9.89055C13.6717 9.84252 13.7117 9.81851 13.7518 9.78649C13.7678 9.77848 13.7838 9.77048 13.7918 9.76248C13.7998 9.76248 13.7998 9.75447 13.7998 9.75447C13.8318 9.73046 13.8318 9.66642 13.7918 9.65041C13.2555 9.38624 12.7431 9.22615 12.575 9.17812ZM8.71667 9.29819C8.58859 9.84252 7.74007 10.4509 7.35583 10.4509H7.34783C7.33982 10.4509 7.33182 10.4509 7.33182 10.4509C7.32381 10.4509 7.31581 10.4509 7.3078 10.4429C7.2998 10.4429 7.2998 10.4429 7.29179 10.4429C7.21975 10.4189 7.12369 10.3708 7.05165 10.2988C7.00362 10.2508 6.96359 10.1867 6.94758 10.1307C6.94758 10.1227 6.93958 10.1067 6.93958 10.0987C6.91556 10.0026 6.89155 9.89055 6.9716 9.69844C6.9796 9.67442 6.99561 9.65041 7.00362 9.62639C7.00362 9.61839 7.01162 9.61038 7.01162 9.60238C7.01963 9.57836 7.02763 9.56235 7.03564 9.54634C7.04364 9.51432 7.05965 9.49031 7.06766 9.4743C7.06766 9.46629 7.07566 9.45829 7.07566 9.45028C7.09967 9.38624 7.09967 9.36223 7.10768 9.33821C7.10768 9.3222 7.11568 9.29018 7.12369 9.25816C7.1477 9.1541 7.16371 9.06605 7.17172 8.994C7.18773 8.85792 7.21174 8.73784 7.28379 8.62578C7.2998 8.60977 7.3078 8.59376 7.32381 8.57775C7.33182 8.56974 7.33182 8.56974 7.33982 8.56174C7.34783 8.55373 7.34783 8.55373 7.35583 8.54573C7.37184 8.52972 7.39586 8.52171 7.41187 8.51371C7.41987 8.51371 7.42788 8.5057 7.43588 8.5057C7.45189 8.4977 7.4679 8.4977 7.48391 8.48969C7.55596 8.47368 7.63601 8.47368 7.73206 8.48169C7.83613 8.48969 7.93219 8.5057 8.01224 8.52972C8.08428 8.54573 8.14832 8.56974 8.19635 8.59376C8.20435 8.59376 8.20435 8.60176 8.21236 8.60176C8.22036 8.60977 8.22837 8.60977 8.24438 8.61777C8.26039 8.62578 8.26839 8.62578 8.2844 8.63378C8.30041 8.64179 8.31642 8.64979 8.33243 8.6578L8.34844 8.6658C8.40448 8.68982 8.46051 8.72184 8.50054 8.75385C8.52455 8.76986 8.54056 8.78587 8.55657 8.80188C8.56458 8.80989 8.57258 8.80989 8.57258 8.81789C8.58059 8.8259 8.58059 8.8259 8.58859 8.8339C8.75669 8.97799 8.74869 9.17812 8.71667 9.29819ZM9.11692 7.22491L9.10091 7.32097C9.06088 7.54511 8.97283 7.8493 8.65263 7.92935C8.34044 8.00139 8.26839 8.0174 8.05226 8.03341C8.04426 8.03341 8.04426 8.03341 8.03625 8.03341C7.87615 8.03341 7.56396 7.92935 7.50793 7.68119C7.47591 7.5211 7.54795 7.40102 7.66002 7.2089C7.67603 7.17688 7.70004 7.14486 7.72406 7.10484C7.88416 6.84068 7.94019 6.64856 7.98822 6.49647C8.03625 6.34437 8.07628 6.2243 8.18034 6.12023C8.20435 6.09622 8.22837 6.0722 8.26039 6.05619C8.2764 6.04018 8.30041 6.03218 8.32443 6.01617C8.35645 6.00016 8.38847 5.99216 8.42049 5.97615C8.49253 5.95213 8.57258 5.94413 8.64463 5.94413C8.79672 5.94413 8.94881 5.98415 9.05288 6.0722C9.10091 6.11223 9.17295 6.18427 9.21298 6.41642C9.22899 6.53649 9.19697 6.75262 9.11692 7.22491ZM11.4143 7.86531C11.3023 8.05743 11.2462 8.16149 11.1502 8.24154C10.958 8.40164 10.7419 8.43366 10.5578 8.43366C10.4297 8.43366 10.3177 8.40964 10.2456 8.40164C10.0535 8.36962 9.70928 8.30558 9.58921 8.02541C9.56519 7.96937 9.56519 7.93735 9.56519 7.88932C9.56519 7.8493 9.56519 7.76925 9.54118 7.60115V7.59314C9.53317 7.51309 9.52517 7.42504 9.54118 7.31297V7.29696C9.60522 6.96075 9.62923 6.91272 9.63724 6.8807C9.66926 6.81666 9.74931 6.78464 9.82135 6.82467C9.88539 6.85669 9.9094 6.93674 9.88539 7.00078C9.87738 7.01679 9.86137 7.08883 9.80534 7.35299V7.369C9.78933 7.44105 9.79734 7.49708 9.80534 7.56913V7.57713C9.82935 7.76925 9.82935 7.8493 9.82935 7.89733C9.82935 7.90533 9.82935 7.91334 9.82935 7.92134V7.92935C9.85337 7.98538 9.9014 8.0174 9.95743 8.04942C9.99746 8.06543 10.0375 8.03341 10.0295 7.99339C9.97344 7.6972 9.97344 7.35299 10.0855 7.13686C10.1255 7.06482 10.1896 6.95275 10.2536 6.84068C10.2616 6.83267 10.2696 6.81666 10.2696 6.80866C10.2776 6.80065 10.2776 6.79265 10.2856 6.78464C10.3177 6.73661 10.3417 6.69659 10.3657 6.65656C10.3657 6.64856 10.3737 6.64856 10.3737 6.64055L10.3817 6.63255C10.3897 6.62454 10.3897 6.61654 10.3977 6.60853C10.3977 6.60853 10.3977 6.60053 10.4057 6.60053L10.4137 6.59252C10.4137 6.58452 10.4217 6.58452 10.4217 6.57651C10.4457 6.54449 10.4697 6.51248 10.4858 6.48046C10.5178 6.44043 10.4778 6.3924 10.4377 6.40841C10.3257 6.45644 10.2536 6.51248 10.2376 6.52048C10.1816 6.56851 10.0935 6.5605 10.0455 6.49647C9.99746 6.44043 10.0055 6.35238 10.0695 6.30435C10.1415 6.24831 10.5098 5.98415 10.95 6.10422C11.2702 6.19228 11.4303 6.44043 11.4944 6.52849C11.5424 6.60053 11.7025 6.82467 11.6945 7.14486C11.6945 7.37701 11.5984 7.55312 11.4143 7.86531Z" fill="white"/>
<path d="M8.54856 6.22437C8.52455 6.2804 8.50053 6.34444 8.46851 6.41648C8.40447 6.58459 8.32443 6.77671 8.2844 6.84875C8.22036 6.96882 8.17233 7.04887 8.13231 7.10491C8.08428 7.17695 8.05226 7.23299 8.02024 7.31304C7.97221 7.44912 7.9642 7.60121 7.99622 7.76932C7.90817 7.76131 7.77209 7.70528 7.75608 7.62523C7.74807 7.56919 7.78009 7.51316 7.87615 7.34505C7.89216 7.31304 7.91617 7.27301 7.94019 7.24099C8.10829 6.95281 8.18034 6.73668 8.22837 6.57658C8.2844 6.40848 8.30842 6.33643 8.39647 6.27239C8.4525 6.24838 8.50053 6.23237 8.54856 6.22437Z" fill="white"/>
<path d="M8.38046 12.2761C8.2844 12.4682 8.17233 12.6443 8.10029 12.7324C8.03625 12.5723 7.93219 12.1961 7.96421 11.8999C7.96421 11.8919 7.96421 11.8839 7.96421 11.8759C7.97221 11.7798 7.99623 11.6998 8.04425 11.6277C8.07627 11.5797 8.15632 11.5557 8.24438 11.5557C8.30842 11.5557 8.38046 11.5717 8.4445 11.6037C8.47652 11.6197 8.52455 11.6597 8.52455 11.7638C8.54056 11.9079 8.46852 12.1 8.38046 12.2761Z" fill="white"/>
<path d="M13.5039 10.1387C13.5119 10.1467 13.5119 10.1547 13.5119 10.1627C13.4879 10.2188 13.4479 10.2588 13.4078 10.3068C13.3598 10.3629 13.3038 10.4269 13.2557 10.531C13.1837 10.6751 13.1597 10.8031 13.1517 11.1393C13.1357 11.5316 13.1517 11.7477 13.1677 11.9078C13.1757 12.0599 13.1837 12.156 13.1597 12.3081C13.1036 12.6123 12.9756 12.8124 12.8075 13.0685C12.5993 13.3887 12.3912 13.7169 12.039 13.821C12.007 13.829 12.007 13.829 11.9109 13.829C11.8309 13.829 11.6948 13.829 11.4466 13.837C10.9823 13.853 10.7502 13.861 10.5581 13.901C10.3499 13.9411 10.2459 13.9891 10.1338 14.0291C10.0378 14.0691 9.9497 14.1012 9.7816 14.1412C9.67754 14.1652 9.52544 14.1812 9.00512 14.1892C8.46079 14.1892 8.13258 14.1892 7.70832 14.1412C7.11596 14.0772 6.81978 14.0371 6.61965 13.9331C6.15537 13.6849 5.95524 13.2366 5.63505 12.5002C5.63505 12.4922 5.64305 12.4842 5.65106 12.4842C5.66707 12.4922 5.68308 12.5002 5.69909 12.5082C5.7151 12.5162 5.73111 12.5162 5.73911 12.5162C5.77113 12.5242 5.80315 12.5242 5.83517 12.5162C5.84318 12.5162 5.84318 12.5162 5.85118 12.5082C5.85919 12.5082 5.86719 12.5082 5.86719 12.5162C5.89121 12.5722 5.92323 12.6203 5.97926 12.6523C6.03529 12.6843 6.09933 12.6843 6.15537 12.6843C6.21941 12.6843 6.28345 12.6763 6.34749 12.6683C6.37951 12.6683 6.41153 12.6843 6.42754 12.7083C6.48357 12.8524 6.55561 12.9485 6.66768 12.9645C6.67569 12.9645 6.68369 12.9645 6.6917 12.9645C6.71571 12.9645 6.75574 12.9565 6.80377 12.9244C6.84379 12.8924 6.90783 12.9164 6.93985 12.9565C6.96387 12.9965 6.99589 13.0205 7.0279 13.0445C7.13997 13.1566 7.41214 13.2126 7.63628 13.2126C7.75635 13.2126 7.86842 13.1966 7.93246 13.1646C8.02852 13.1166 8.02852 13.0525 8.02052 13.0205C8.01251 12.9725 8.00451 12.9164 7.9965 12.8684C7.9965 12.8604 8.00451 12.8604 8.00451 12.8684C8.02052 12.9004 8.03653 12.9325 8.07655 12.9405C8.08455 12.9405 8.08456 12.9405 8.09256 12.9405C8.1566 12.9405 8.25266 12.9645 8.26867 13.0205C8.27667 13.0525 8.29268 13.0765 8.30869 13.1086C8.34872 13.1646 8.42076 13.2366 8.57286 13.2446H8.58086C8.75697 13.2446 8.89305 13.1886 8.98111 13.0765C8.98911 13.0685 8.98911 13.0605 8.99712 13.0525C9.02914 13.0045 9.1252 13.0045 9.16522 13.0445C9.21325 13.0845 9.26928 13.1086 9.33332 13.1086C9.34133 13.1086 9.35734 13.1086 9.36534 13.1086C9.44539 13.1006 9.50943 13.0605 9.56547 12.9885C9.59749 12.9405 9.6215 12.8844 9.63751 12.8204C9.64552 12.8044 9.66953 12.7964 9.68554 12.8124C9.71756 12.8444 9.77359 12.8764 9.85364 12.8764C9.86965 12.8764 9.89367 12.8764 9.91768 12.8684C10.0698 12.8364 10.1498 12.7083 10.1818 12.5722C10.1818 12.5642 10.1899 12.5642 10.1899 12.5722C10.2299 12.6203 10.3019 12.6763 10.422 12.6763C10.43 12.6763 10.438 12.6763 10.438 12.6763C10.502 12.6763 10.5581 12.6443 10.5981 12.5962C10.6461 12.5322 10.6621 12.4361 10.6701 12.3481C10.6701 12.3241 10.6862 12.3001 10.7182 12.2841C10.8463 12.228 11.0064 12.1079 11.0544 12.0279C11.0544 12.0279 11.0544 12.0199 11.0624 12.0199C11.0704 11.9959 11.0944 11.9799 11.1104 11.9799C11.2145 11.9639 11.2545 11.9398 11.2945 11.9238C11.3266 11.9078 11.3506 11.8998 11.4306 11.8838C12.015 11.7958 12.127 11.7717 12.2551 11.6917C12.4472 11.5636 12.4552 11.3875 12.4633 11.2194C12.4713 11.0753 12.4793 10.9152 12.5913 10.7231C12.6314 10.651 12.6794 10.571 12.7274 10.4749C12.8155 10.3148 12.9355 10.0907 13.0236 9.97063C13.0396 9.94661 13.0716 9.93861 13.0956 9.95462C13.2958 10.0267 13.4719 10.1067 13.5039 10.1387Z" fill="white"/>
<path d="M7.82012 11.8838C7.7961 12.0839 7.78009 12.3561 7.81211 12.7083C7.82012 12.8044 7.83613 12.9084 7.85214 13.0125C7.82812 13.0285 7.74007 13.0525 7.59598 13.0445C7.38785 13.0365 7.17972 12.9885 7.11568 12.9164L7.10768 12.9084C7.05965 12.8684 7.01962 12.8364 7.01962 12.7643C7.01962 12.7403 7.02763 12.7163 7.05164 12.6763C7.06765 12.6603 7.08366 12.6362 7.09967 12.6042C7.13169 12.5562 7.17972 12.5002 7.22775 12.4201C7.36383 12.196 7.41186 12.1239 7.4759 12.0359C7.48391 12.0279 7.48391 12.0199 7.49191 12.0119C7.53194 11.9638 7.57196 11.8998 7.64401 11.7957C7.69204 11.7237 7.73206 11.6596 7.77209 11.6116C7.82812 11.5316 7.86815 11.4915 7.89216 11.4675C7.89216 11.4995 7.88415 11.5476 7.87615 11.5956C7.84413 11.6917 7.82812 11.7797 7.82012 11.8838Z" fill="white"/>
<path d="M7.71605 8.72988C7.71605 8.73788 7.71605 8.73788 7.71605 8.72988C7.68403 8.7699 7.65202 8.81793 7.61199 8.89798C7.50793 9.12212 7.50793 9.2502 7.50793 9.35426C7.50793 9.4103 7.50793 9.45032 7.49192 9.49835C7.48391 9.53037 7.4679 9.57039 7.44389 9.61042C7.38785 9.7465 7.3078 9.92261 7.33982 10.1628C7.29179 10.1387 7.21975 10.0827 7.20374 10.0587C7.20374 10.0427 7.19573 10.0347 7.19573 10.0187C7.17972 9.94663 7.17172 9.8986 7.21174 9.78653C7.33982 9.49835 7.35583 9.42631 7.36384 9.34626C7.36384 9.33025 7.37184 9.31424 7.37184 9.29022C7.39586 9.17815 7.41187 9.08209 7.41987 9.00204C7.43588 8.88197 7.45189 8.80192 7.49192 8.74589C7.50793 8.72187 7.54795 8.71387 7.60399 8.71387C7.628 8.71387 7.65201 8.71387 7.68403 8.72187H7.69204C7.71605 8.72988 7.71605 8.72988 7.71605 8.72988Z" fill="white"/>
<path d="M7.55596 11.5875C7.54795 11.5154 7.53995 11.4514 7.50793 11.3794C7.50793 11.3794 7.49992 11.3633 7.49992 11.3553C7.49192 11.3473 7.49192 11.3393 7.48391 11.3313L7.47591 11.3233C7.4679 11.3153 7.4679 11.3153 7.4599 11.3153L7.45189 11.3073C7.44389 11.3073 7.44389 11.2993 7.43588 11.2993H7.42788C7.38785 11.2833 7.34783 11.2673 7.2998 11.2593C7.29179 11.2593 7.28379 11.2593 7.28379 11.2593C7.27578 11.2593 7.27578 11.2593 7.26778 11.2593H7.25977C7.25177 11.2593 7.24376 11.2673 7.22775 11.2673C7.21975 11.2673 7.21975 11.2753 7.21174 11.2753L7.20374 11.2833C7.19573 11.2913 7.19573 11.2913 7.18773 11.2993L7.17972 11.3073V11.3153C7.16371 11.3393 7.1477 11.3633 7.13169 11.3874C7.09167 11.4434 7.05165 11.5074 7.01162 11.5635C6.9716 11.6195 6.93958 11.6675 6.89955 11.7236C6.87554 11.7556 6.85953 11.7796 6.83551 11.8116C6.83551 11.8196 6.82751 11.8196 6.82751 11.8276C6.85152 11.8356 6.87554 11.8356 6.89955 11.8436C6.95559 11.8516 7.01162 11.8596 7.05965 11.8677C7.17172 11.8837 7.29179 11.8917 7.40386 11.8837C7.41187 11.8837 7.41187 11.8837 7.41987 11.8837C7.44389 11.8436 7.48391 11.7956 7.52394 11.7316C7.54795 11.6995 7.57197 11.6675 7.58797 11.6355C7.56396 11.6275 7.55596 11.6035 7.55596 11.5875Z" fill="white"/>
<path d="M7.1477 12.0599C7.1397 12.1479 7.04364 12.3721 6.89154 12.5882C6.76347 12.7643 6.68342 12.8123 6.66741 12.8123C6.60337 12.8043 6.54733 12.6522 6.4993 12.5001C6.48329 12.4361 6.45928 12.3801 6.45127 12.324C6.41925 12.212 6.41125 12.0519 6.41925 11.9558C6.54733 12.0279 6.77147 12.0439 7.09167 12.0439C7.10768 12.0519 7.13169 12.0519 7.1477 12.0599Z" fill="white"/>
<path d="M6.92356 11.3395C6.86753 11.4275 6.81149 11.5076 6.75546 11.5876C6.72344 11.6277 6.69942 11.6677 6.6674 11.7077C6.65139 11.7317 6.62738 11.7557 6.61137 11.7798C6.56334 11.7718 6.52331 11.7557 6.47528 11.7477C6.43526 11.7397 6.40324 11.7237 6.36321 11.7077C6.35521 11.7077 6.34721 11.6997 6.3392 11.6997C6.3312 11.6917 6.32319 11.6757 6.31519 11.6677C6.3312 11.6437 6.3392 11.6117 6.35521 11.5876C6.37922 11.5396 6.40324 11.4916 6.43526 11.4436C6.48329 11.3635 6.53932 11.2755 6.62738 11.2194C6.63538 11.2194 6.63538 11.2114 6.64339 11.2114C6.67541 11.1954 6.70743 11.1794 6.74745 11.1714C6.75546 11.1714 6.77947 11.1714 6.79548 11.1714H6.80349C6.80349 11.1714 6.80349 11.1714 6.81149 11.1714C6.8195 11.1714 6.8275 11.1794 6.84351 11.1794C6.84351 11.1794 6.85152 11.1794 6.85152 11.1874C6.85952 11.1954 6.86753 11.1954 6.87553 11.2034C6.85952 11.1954 6.89154 11.2274 6.89154 11.2194C6.90755 11.2674 6.91555 11.2915 6.92356 11.3395Z" fill="white"/>
<path d="M6.49115 11.1074C6.38709 11.1874 6.31505 11.2995 6.25901 11.4196C6.22699 11.4836 6.19497 11.5477 6.16295 11.6117C6.16295 11.6197 6.15495 11.6277 6.15495 11.6277C6.12293 11.6197 6.09091 11.6117 6.06689 11.6037C6.03487 11.5957 6.00285 11.5797 5.97083 11.5717C5.95482 11.5637 5.94682 11.5557 5.93081 11.5477C5.96283 11.4916 5.99485 11.4356 6.03487 11.3796C6.0829 11.3075 6.13894 11.2275 6.19497 11.1634C6.21899 11.1394 6.243 11.1074 6.26702 11.0914C6.29904 11.0754 6.33106 11.0754 6.37108 11.0834C6.4111 11.0834 6.45113 11.0834 6.48315 11.0994C6.47514 11.0994 6.48315 11.1074 6.49115 11.1074Z" fill="white"/>
<path d="M6.33093 12.4681C6.32292 12.4761 6.32292 12.4761 6.31492 12.4841H6.30691C6.2829 12.4841 6.25888 12.4921 6.23487 12.4921C6.18684 12.4921 6.13881 12.5001 6.09078 12.4921C6.06676 12.4921 6.04275 12.4841 6.02674 12.4681C6.01073 12.4441 6.00272 12.396 5.99472 12.364C5.9627 12.1879 5.9627 12.0118 5.97871 11.8357C6.06676 11.8677 6.16282 11.8917 6.25888 11.9077C6.23487 12.0678 6.27489 12.3 6.2909 12.364C6.31492 12.396 6.32292 12.4361 6.33093 12.4681Z" fill="white"/>
<path d="M6.04302 11.0511C5.96297 11.1472 5.89092 11.2513 5.82689 11.3633C5.80287 11.4034 5.77085 11.4514 5.74684 11.4994C5.71482 11.4914 5.6828 11.4754 5.65878 11.4594C5.63477 11.4434 5.61075 11.4274 5.59474 11.4114C5.58674 11.4034 5.57073 11.3953 5.56272 11.3873C5.56272 11.3873 5.55472 11.3873 5.55472 11.3793C5.56272 11.3553 5.57873 11.3393 5.57873 11.3233C5.59474 11.2833 5.61075 11.2513 5.63477 11.2192C5.67479 11.1552 5.71482 11.0912 5.76285 11.0271C5.77886 11.0031 5.79487 10.9791 5.82689 10.9711C5.8509 10.9631 5.88292 10.9711 5.90693 10.9711C5.95496 10.9791 6.00299 11.0111 6.04302 11.0511Z" fill="white"/>
<path d="M5.42664 11.4755C5.42664 11.4675 5.43465 11.4675 5.42664 11.4755C5.45866 11.5075 5.48268 11.5315 5.5147 11.5555C5.53071 11.5635 5.53871 11.5795 5.55472 11.5876C5.55472 11.5876 5.55472 11.5876 5.55472 11.5956C5.5227 11.7316 5.49869 11.8757 5.49869 12.0198C5.49869 12.0278 5.49068 12.0278 5.49068 12.0198C5.45066 11.8517 5.40263 11.5796 5.42664 11.4755Z" fill="white"/>
<path d="M5.81889 11.7718C5.80288 11.8919 5.79487 12.012 5.80288 12.132C5.80288 12.1961 5.81088 12.2601 5.81889 12.3321C5.80288 12.3321 5.78687 12.3321 5.77086 12.3321H5.76285H5.75485C5.73884 12.3241 5.73884 12.3241 5.72283 12.3161C5.70682 12.3081 5.69081 12.2841 5.6748 12.2601C5.64278 12.2041 5.63477 12.14 5.63477 12.076C5.62677 11.9559 5.64278 11.8278 5.66679 11.7078C5.6828 11.7158 5.70682 11.7238 5.73083 11.7318C5.76285 11.7478 5.78687 11.7638 5.81889 11.7718Z" fill="white"/>
<g opacity="0.8">
<path opacity="0.8" d="M8.97296 18.0153C8.42863 18.0153 7.91631 17.9833 7.48405 17.9513L7.36397 17.9433L7.2439 17.9273C7.18786 17.9193 7.12383 17.9113 7.05178 17.9033C6.63552 17.8552 5.85905 17.7752 5.00252 17.3749L4.86644 17.3109L4.74636 17.2389C3.09735 16.3103 2.48897 14.9254 2.15277 14.181C2.12875 14.1329 2.10474 14.0769 2.08072 14.0209C1.91262 13.6767 1.80855 13.3725 1.7205 13.0843L1.70449 13.0203L1.68848 12.9562C1.44833 12.1077 1.3923 11.3793 1.49636 10.6508C1.60843 9.92236 1.87259 9.26595 2.34488 8.56952L2.58503 8.17728C2.63306 8.09723 2.66508 8.00918 2.6891 7.92112C2.87321 7.00856 3.28947 6.36016 3.49759 6.04797C3.55363 5.67174 3.64969 5.30351 3.77777 4.94329L3.79378 4.88726L3.81779 4.83122C3.81779 4.82322 3.8258 4.80721 3.8338 4.78319C3.92986 4.50302 4.14599 3.85462 4.69833 3.1662L4.90646 2.92605L5.12259 2.73393C5.66693 2.23763 6.32333 1.8694 7.02777 1.66127C7.42001 1.5412 7.82826 1.46915 8.24451 1.44514H8.28454H8.34057C8.41262 1.44514 8.48466 1.43713 8.5487 1.43713C8.80486 1.43713 9.06102 1.46115 9.31717 1.50117C9.47727 1.52519 9.63737 1.50918 9.78947 1.44514C10.2297 1.26103 10.686 1.14095 11.1583 1.07691C11.1983 1.06891 11.2304 1.06891 11.2624 1.0609C11.3344 1.0529 11.4545 1.03689 11.5986 1.02088C11.8467 0.996863 12.231 0.964844 12.6392 0.964844C13.4477 0.964844 14.1441 1.06891 14.7685 1.28504L14.8246 1.30105L14.8726 1.31706C16.2494 1.83738 16.9459 2.56583 17.4502 3.19822L17.4742 3.23024L17.5462 3.29428C18.0025 3.64649 18.3868 4.08676 18.6909 4.57507L18.787 4.72716L18.8671 4.88726C19.5395 6.2561 19.3233 7.52888 19.2433 8.00117L19.2353 8.02519C19.1792 8.37741 19.0832 8.72162 18.9631 9.05782C18.9151 9.37802 18.843 9.69822 18.739 10.0024C18.5629 10.5467 18.2987 11.0671 17.9625 11.5313C17.7704 11.8035 17.5462 12.0677 17.3061 12.2998C17.218 12.3799 17.162 12.4919 17.146 12.612C17.138 12.6841 17.122 12.7561 17.114 12.8281C16.9139 13.8848 16.4576 14.6212 16.2655 14.9174L15.6971 15.7339C15.0087 16.5905 14.1922 17.1508 13.2076 17.455L12.9674 17.527L12.7113 17.5751C12.4151 17.6311 12.1189 17.6551 11.8147 17.6551C11.7747 17.6551 11.7347 17.6551 11.6866 17.6551H11.6706H11.6226H11.5666C11.4545 17.6551 11.3424 17.6791 11.2304 17.7111C10.5739 17.9193 9.8535 18.0153 8.97296 18.0153Z" stroke="url(#paint1_linear_401_532)" stroke-width="1.0554" stroke-miterlimit="10"/>
<path opacity="0.8" d="M8.97296 17.4471C8.45264 17.4471 7.94833 17.415 7.53207 17.383L7.43601 17.375L7.33996 17.359C7.27592 17.351 7.20387 17.343 7.13183 17.335C6.72358 17.295 6.05116 17.2149 5.2987 16.8627L5.18663 16.8067L5.08257 16.7506C3.61766 15.9421 3.08133 14.7334 2.76114 14.013C2.73712 13.9649 2.71311 13.9009 2.68109 13.8449C2.52899 13.5407 2.43294 13.2525 2.35289 12.9963L2.33688 12.9403L2.32087 12.8923C2.11274 12.1318 2.0567 11.4914 2.15276 10.859C2.24882 10.2346 2.48897 9.65027 2.90523 9.0419L3.21742 8.53759C3.27345 8.44953 3.31348 8.34547 3.32949 8.2414C3.48158 7.37687 3.88983 6.7685 4.07395 6.48832L4.09796 6.4563L4.10597 6.4403C4.10597 6.43229 4.11397 6.42429 4.11397 6.41628C4.12198 6.37626 4.13799 6.34424 4.14599 6.31222C4.19402 5.96 4.28207 5.60778 4.40215 5.27158L4.41816 5.22355L4.43417 5.17552C4.44217 5.15951 4.44217 5.1435 4.45818 5.09547C4.54624 4.8313 4.73035 4.27896 5.21065 3.6866L5.38675 3.47847L5.56286 3.31837C6.03515 2.88611 6.6035 2.56591 7.21188 2.3898C7.56409 2.28574 7.91631 2.2217 8.28454 2.20569H8.31656H8.36459C8.42863 2.20569 8.48466 2.19768 8.54069 2.19768C8.80486 2.19768 9.06101 2.12564 9.31717 2.17367C9.5173 2.21369 9.71742 2.18968 9.90153 2.10963C10.2457 1.95754 10.71 1.9015 11.2384 1.82946C11.2784 1.82145 11.3104 1.82145 11.3344 1.81345C11.4065 1.80544 11.5185 1.78943 11.6466 1.78143C11.8787 1.75741 12.239 1.7334 12.6312 1.7334C13.3677 1.7334 13.992 1.82946 14.5444 2.01357L14.5924 2.02958L14.6324 2.04559C15.8492 2.50988 16.4496 3.11825 16.9219 3.71862C16.9459 3.75064 16.9779 3.78266 16.9859 3.79867L16.9939 3.80667L17.082 3.88672L17.09 3.90273C17.4982 4.21493 17.8424 4.59916 18.1066 5.03143L18.1866 5.15951L18.2507 5.29559C18.827 6.47231 18.6509 7.55298 18.5709 8.00926L18.5629 8.03328C18.5068 8.36948 18.4188 8.68968 18.2987 9.00988C18.2587 9.31406 18.1866 9.61825 18.0906 9.90643C17.9305 10.3867 17.6983 10.843 17.4021 11.2593C17.202 11.5474 16.9619 11.8116 16.7057 12.0437C16.5856 12.1558 16.5056 12.2999 16.4896 12.468C16.4736 12.5881 16.4576 12.7001 16.4416 12.8202C16.2654 13.7568 15.8652 14.3972 15.6731 14.6854L15.2088 15.3578C14.5924 16.1503 13.864 16.6626 12.9834 16.9348L12.7833 16.9988L12.5672 17.0388C12.311 17.0868 12.0469 17.1109 11.7907 17.1029C11.7507 17.1029 11.7106 17.1029 11.6706 17.1029H11.6626H11.6386C11.6386 17.1029 11.6306 17.1029 11.6146 17.1029H11.5666H11.5185H11.4305C11.3104 17.1109 11.1903 17.1269 11.0703 17.1669C10.4859 17.359 9.80547 17.4471 8.97296 17.4471Z" stroke="url(#paint2_linear_401_532)" stroke-width="1.0554" stroke-miterlimit="10"/>
<path opacity="0.8" d="M8.9732 16.7826C8.47689 16.7826 7.98859 16.7505 7.58034 16.7185L7.50029 16.7105L7.42024 16.7025C7.3482 16.6945 7.26815 16.6865 7.1881 16.6785C6.80386 16.6385 6.2195 16.5744 5.5631 16.2622L5.47505 16.2222L5.395 16.1742C4.13822 15.4697 3.67394 14.4291 3.36975 13.7407C3.34574 13.6847 3.31372 13.6126 3.2897 13.5566C3.15362 13.2844 3.06556 13.0282 2.99352 12.7881L2.97751 12.7481L2.9695 12.708C2.78539 12.0516 2.73736 11.4913 2.81741 10.963C2.89746 10.4266 3.11359 9.92233 3.48182 9.386L3.52985 9.32197L3.57788 9.25793C3.6099 9.2179 3.63391 9.17788 3.66593 9.14586L3.85005 8.80165C3.91409 8.68958 3.95411 8.5695 3.97012 8.44142C4.09019 7.67295 4.45842 7.12061 4.62652 6.86445C4.63453 6.84844 4.65054 6.83243 4.65854 6.82443L4.69857 6.76839C4.71458 6.73637 4.73059 6.69635 4.7466 6.64832C4.76261 6.60029 4.78662 6.52825 4.80263 6.46421C4.84266 6.13601 4.92271 5.81581 5.03478 5.50362L5.05078 5.46359L5.06679 5.42357C5.0748 5.39155 5.09081 5.36753 5.10682 5.3115C5.18687 5.06335 5.33896 4.60706 5.74721 4.11076L5.8833 3.94266L6.02739 3.81458C6.42763 3.44635 6.90793 3.18219 7.42825 3.02209C7.73243 2.93404 8.03662 2.878 8.35682 2.86199H8.38083H8.42086C8.46889 2.86199 8.51692 2.86199 8.57295 2.86199C8.84512 2.86199 9.10928 2.89401 9.37344 2.96605C9.59758 3.02209 9.83773 2.99807 10.0459 2.89401C10.3821 2.73391 10.8303 2.5578 11.3507 2.49376C11.3827 2.48576 11.4147 2.48576 11.4387 2.47775C11.5028 2.46975 11.6068 2.45374 11.7349 2.44573C11.951 2.42172 12.2952 2.39771 12.6555 2.39771C13.3119 2.39771 13.8642 2.47775 14.3525 2.64586L14.3845 2.66187L14.4165 2.67788C15.5372 3.10214 16.0335 3.65448 16.4178 4.14278C16.5058 4.24684 16.5138 4.26285 16.5699 4.31889L16.6419 4.38293L16.6659 4.41495C16.85 4.55903 17.2263 4.85522 17.5545 5.39155L17.6185 5.49561L17.6746 5.59968C18.1629 6.58428 18.0108 7.48083 17.9387 7.9131L17.9307 7.93711C17.8827 8.24931 17.7946 8.5615 17.6665 8.85768V8.88169C17.6345 9.16187 17.5705 9.44204 17.4824 9.7062C17.3464 10.1305 17.1462 10.5227 16.8821 10.8829C16.6659 11.1951 16.4018 11.4753 16.1056 11.7154C16.0335 11.7715 15.9775 11.8435 15.9375 11.9236C15.8975 12.0036 15.8734 12.0917 15.8654 12.1797C15.8574 12.3558 15.8334 12.5319 15.8014 12.708C15.6493 13.5165 15.2971 14.0769 15.121 14.3571L14.7608 14.8854C14.2244 15.6058 13.584 16.0701 12.8076 16.3103L12.6475 16.3583L12.4714 16.3903C12.2552 16.4303 12.0311 16.4463 11.8069 16.4463C11.7749 16.4463 11.7349 16.4463 11.6949 16.4463H11.6869H11.6468C11.6388 16.4463 11.6228 16.4463 11.5828 16.4463H11.5428H11.5108L11.3266 16.4544C11.1986 16.4624 11.0705 16.4784 10.9504 16.5264C10.3981 16.7025 9.76569 16.7826 8.9732 16.7826Z" stroke="url(#paint3_linear_401_532)" stroke-width="0.9894" stroke-miterlimit="10"/>
<path opacity="0.8" d="M8.97312 16.1182C8.50083 16.1182 8.02854 16.0862 7.6363 16.0542L7.58027 16.0462L7.52423 16.0382C7.44418 16.0301 7.35613 16.0141 7.27608 16.0061C6.91586 15.9661 6.41955 15.9101 5.85921 15.6539L5.79517 15.6219L5.73113 15.5899C4.66647 14.9895 4.27423 14.109 3.98605 13.4686C3.95404 13.4045 3.92202 13.3325 3.898 13.2684C3.77793 13.0203 3.69788 12.7882 3.63384 12.588L3.62583 12.556L3.60182 12.532C3.28963 11.4273 3.4097 10.6508 4.01807 9.76229L4.05009 9.71426L4.08211 9.66623C4.12214 9.6182 4.16216 9.56217 4.20219 9.51414C4.25822 9.44209 4.31426 9.36204 4.3783 9.29C4.41832 9.24197 4.45034 9.18594 4.47436 9.1299L4.5464 8.95379C4.57842 8.87374 4.59443 8.79369 4.60243 8.71364C4.66647 8.00121 5.01069 7.48889 5.17879 7.23273C5.1948 7.21672 5.21081 7.1847 5.21881 7.1767L5.25884 7.11266L5.27485 7.09665C5.29886 7.05662 5.33889 6.96057 5.37091 6.86451C5.38692 6.80047 5.41894 6.6964 5.45096 6.60835V6.60034C5.48298 6.30416 5.55502 6.00798 5.65908 5.72781L5.66709 5.70379L5.67509 5.67978C5.6911 5.63175 5.70711 5.59172 5.72312 5.53569C5.79517 5.31956 5.91524 4.95133 6.24344 4.54308L6.34751 4.415L6.45157 4.31894C7.22805 3.61451 8.09258 3.55847 8.38076 3.53446H8.39677H8.42879C8.46881 3.53446 8.50884 3.53446 8.54886 3.53446C8.89307 3.53446 9.22928 3.6065 9.54948 3.74259C9.60551 3.7666 9.66955 3.77461 9.72559 3.77461C9.78963 3.77461 9.84566 3.7586 9.90169 3.72658C10.1979 3.55847 10.7342 3.24628 11.4226 3.16623C11.4547 3.15823 11.4867 3.15823 11.5107 3.15823C11.5747 3.15022 11.6708 3.14222 11.7829 3.12621C11.991 3.1102 12.3032 3.08618 12.6394 3.08618C13.2237 3.08618 13.704 3.15823 14.1123 3.29431L14.1363 3.30231L14.1603 3.31032C15.1209 3.67054 15.5292 4.12682 15.8734 4.55909C15.9614 4.67916 16.0095 4.72719 16.1055 4.82325L16.1615 4.87128L16.2016 4.91931L16.2336 4.94332C16.3937 5.0714 16.6979 5.30355 16.97 5.74382L17.0181 5.82387L17.0581 5.90392C17.4503 6.70441 17.3223 7.42485 17.2582 7.80909V7.8331C17.2102 8.11328 17.1301 8.39345 17.0181 8.65761L17.0101 8.68163C17.0101 8.68963 17.0101 8.68963 17.0021 8.70564C16.9941 8.72965 16.9941 8.75367 16.9941 8.77768L16.9861 8.8097C16.962 9.04985 16.906 9.28199 16.826 9.50613C16.7059 9.86635 16.5378 10.2026 16.3136 10.5067C16.0975 10.8189 15.8494 11.0751 15.5772 11.2752C15.4571 11.3633 15.3611 11.4753 15.289 11.6114C15.217 11.7475 15.1849 11.8916 15.1849 12.0437C15.1849 12.2278 15.1609 12.4199 15.1289 12.604C15.0008 13.2925 14.7127 13.7567 14.5285 14.0369L14.2644 14.4292C13.8001 15.0776 13.2478 15.4938 12.5833 15.7019L12.5513 15.7099C12.4953 15.726 12.4393 15.742 12.3832 15.75L12.3432 15.758C12.1591 15.79 11.975 15.806 11.7909 15.806C11.7588 15.806 11.7268 15.806 11.6948 15.806H11.6868C11.6708 15.806 11.6548 15.806 11.6388 15.806C11.6228 15.806 11.5907 15.806 11.5267 15.806H11.5027H11.4787C11.3906 15.806 11.2785 15.814 11.1825 15.814C11.0464 15.822 10.9183 15.846 10.7902 15.8941C10.3099 16.0382 9.72559 16.1182 8.97312 16.1182Z" stroke="url(#paint4_linear_401_532)" stroke-width="0.9235" stroke-miterlimit="10"/>
<path opacity="0.8" d="M8.97296 15.4536C8.51668 15.4536 8.06841 15.4216 7.68417 15.3896H7.64414L7.60412 15.3816C7.51607 15.3656 7.42001 15.3576 7.33195 15.3496C6.99575 15.3095 6.57949 15.2695 6.13121 15.0534L6.08318 15.0294L6.04316 15.0054C5.17062 14.5171 4.84242 13.7806 4.58626 13.1882C4.55424 13.1162 4.52222 13.0442 4.4902 12.9641C4.38614 12.756 4.3141 12.5478 4.25806 12.3717L4.25006 12.3477L4.24205 12.3237C3.98589 11.4111 4.07395 10.8348 4.57025 10.1144L4.59427 10.0823L4.61828 10.0503C4.65831 9.99428 4.69833 9.94625 4.73836 9.89021C4.86644 9.72211 4.99451 9.55401 5.17863 9.35388C5.21865 9.31386 5.24267 9.24982 5.25067 9.19379L5.25868 9.00967L5.25067 8.93763V8.86558C5.26668 8.27322 5.56286 7.83295 5.72296 7.5928C5.73897 7.56879 5.76299 7.53677 5.77099 7.52076L5.79501 7.48073L5.81902 7.44871C5.85104 7.40068 5.92309 7.23258 5.98713 7.08049C6.01114 7.01645 6.04316 6.88837 6.08318 6.7843C6.09119 6.75228 6.09119 6.74428 6.09919 6.67223C6.12321 6.42408 6.18725 6.17593 6.2673 5.94379L6.2753 5.92778L6.28331 5.91177C6.30732 5.84773 6.32333 5.7997 6.34735 5.73566C6.41139 5.54354 6.50745 5.26337 6.7556 4.95118L6.82764 4.86312L6.89969 4.79908C7.44402 4.31078 8.02838 4.21472 8.42863 4.19071H8.44464H8.46065C8.49267 4.19071 8.51668 4.19071 8.5487 4.19071C8.88491 4.19071 9.29316 4.35081 9.50929 4.45487C9.55732 4.47888 9.61336 4.49489 9.66939 4.49489C9.72543 4.49489 9.78146 4.48689 9.83749 4.47088C9.97358 4.42285 10.1017 4.36682 10.2217 4.30278C10.4939 4.14268 10.9422 3.88652 11.5025 3.82248C11.5345 3.81448 11.5586 3.81448 11.5826 3.81448C11.6386 3.80647 11.7267 3.79847 11.8387 3.78246C12.0308 3.76645 12.319 3.74243 12.6312 3.74243C13.1355 3.74243 13.5518 3.79847 13.888 3.91854L13.904 3.92654L13.92 3.93455C14.7205 4.23874 15.0407 4.58295 15.3449 4.97519C15.4409 5.10327 15.513 5.19132 15.6571 5.3194L15.6891 5.35142L15.7211 5.38344C15.7531 5.41546 15.7852 5.43948 15.8172 5.46349C15.9533 5.56755 16.1854 5.75167 16.3855 6.08787L16.4175 6.1359L16.4416 6.19194C16.7377 6.79231 16.6417 7.36066 16.5856 7.69686V7.72088C16.5456 7.95302 16.4816 8.17716 16.3855 8.39329C16.3615 8.44933 16.3455 8.50536 16.3295 8.5694C16.3215 8.60943 16.3135 8.64945 16.3135 8.68147L16.3055 8.71349C16.2815 8.90561 16.2414 9.09773 16.1774 9.28184C16.0813 9.57802 15.9372 9.85819 15.7611 10.1063C15.489 10.4906 15.1768 10.7628 14.8005 10.9389C14.7125 10.9789 14.6324 11.0429 14.5764 11.131C14.5204 11.211 14.4884 11.3151 14.4804 11.4112C14.4804 11.4512 14.4804 11.4832 14.4804 11.5072C14.4964 11.7954 14.5204 12.1236 14.4563 12.4678C14.3523 13.0281 14.1121 13.4044 13.936 13.6845C13.936 13.6845 13.1195 14.8212 12.3751 15.0534L12.295 15.0774L12.207 15.0934C12.0629 15.1174 11.9188 15.1334 11.7667 15.1334C11.7427 15.1334 11.7106 15.1334 11.6786 15.1334C11.6626 15.1334 11.6386 15.1334 11.6146 15.1334C11.5826 15.1334 11.5345 15.1334 11.4625 15.1414H11.4465H11.4305C11.1423 15.1495 10.8781 15.1575 10.7981 15.1735C10.7581 15.1815 10.718 15.1895 10.678 15.2055C10.2858 15.3736 9.73343 15.4536 8.97296 15.4536Z" stroke="url(#paint5_linear_401_532)" stroke-width="0.8575" stroke-miterlimit="10"/>
<path opacity="0.8" d="M8.97296 14.7974C8.5407 14.7974 8.10843 14.7654 7.7402 14.7414H7.72419H7.70818C7.60412 14.7254 7.50806 14.7174 7.42001 14.7094C7.10781 14.6774 6.77961 14.6373 6.4274 14.4772L6.40338 14.4692L6.37937 14.4612C5.69895 14.077 5.44279 13.5086 5.20264 12.9563C5.17062 12.8762 5.1306 12.7962 5.09057 12.7161C5.01052 12.556 4.94648 12.3799 4.89846 12.2118V12.2038V12.1958C4.69033 11.4674 4.74636 11.0992 5.1306 10.5388L5.1386 10.5228L5.14661 10.5068C5.19464 10.4508 5.23466 10.3947 5.27469 10.3467C5.4588 10.1065 5.6189 9.89841 5.97912 9.56221C6.00313 9.53819 6.02715 9.50617 6.03515 9.46615C6.04316 9.43413 6.04316 9.3941 6.02715 9.36208L5.96311 9.17797C5.9471 9.12194 5.9391 9.0579 5.9391 9.00186V8.95383V8.91381C5.95511 8.51356 6.16323 8.20137 6.29932 7.99324C6.32333 7.96122 6.33934 7.9292 6.35535 7.90519L6.37136 7.88117L6.38737 7.85716C6.45942 7.7611 6.57949 7.48093 6.64353 7.31282C6.65954 7.25679 6.69956 7.1207 6.73959 7.01664C6.7636 6.93659 6.77961 6.85654 6.78762 6.77649C6.81163 6.57637 6.85166 6.37625 6.9237 6.19213V6.18413V6.17612C6.95572 6.09607 6.97974 6.03203 6.99575 5.96799C7.05178 5.79989 7.11582 5.60777 7.29193 5.39164L7.32395 5.35162L7.35597 5.3196C7.7402 4.96738 8.16446 4.90334 8.48466 4.87932H8.49267H8.50067C8.51668 4.87932 8.5407 4.87932 8.55671 4.87932C8.8769 4.87932 9.11705 5.0074 9.27715 5.09546L9.31717 5.11147H9.32518C9.37321 5.13548 9.40523 5.1595 9.44525 5.17551C9.54131 5.22354 9.66139 5.23955 9.76545 5.20753C9.98959 5.15149 10.3338 5.01541 10.5579 4.88733H10.5659C10.8061 4.74324 11.1743 4.53511 11.6066 4.48708C11.6306 4.47908 11.6626 4.47908 11.6866 4.47908C11.7347 4.47107 11.8227 4.46307 11.9188 4.45506C12.0949 4.43905 12.3671 4.41504 12.6472 4.41504C13.0795 4.41504 13.4237 4.46307 13.6879 4.55112H13.6959H13.7039C14.3443 4.79127 14.5844 5.04743 14.8406 5.38364C14.9446 5.51972 15.0487 5.6478 15.2408 5.8159L15.2568 5.83191L15.2728 5.84792C15.3209 5.89595 15.3769 5.94398 15.4409 5.99201C15.553 6.08006 15.7131 6.20014 15.8492 6.43228L15.8652 6.45629L15.8812 6.48031C16.0813 6.89657 16.0173 7.28881 15.9693 7.58499V7.609C15.9372 7.79312 15.8892 7.96923 15.8092 8.14533C15.7691 8.24139 15.7371 8.34546 15.7211 8.44952C15.7131 8.51356 15.7051 8.56159 15.6971 8.60162L15.6891 8.63364C15.6731 8.78573 15.6411 8.92982 15.593 9.07391C15.521 9.30605 15.4089 9.52218 15.2648 9.7223C15.0247 10.0745 14.7525 10.2907 14.3923 10.4027C14.2162 10.4588 14.0721 10.5708 13.976 10.7229L13.944 10.7629L13.912 10.803C13.8239 10.907 13.848 11.3073 13.864 11.5474C13.88 11.8116 13.896 12.0838 13.848 12.3399C13.7679 12.7802 13.5758 13.0764 13.4077 13.3325C13.4077 13.3325 12.7833 14.2371 12.215 14.4052L12.1749 14.4212L12.1349 14.4292C12.0308 14.4452 11.9188 14.4612 11.8067 14.4612C11.7827 14.4612 11.7587 14.4612 11.7267 14.4612C11.7026 14.4612 11.6786 14.4612 11.6466 14.4612C11.6066 14.4612 11.5505 14.4612 11.4545 14.4692H11.4465H11.4385C11.0622 14.4852 10.8301 14.4932 10.702 14.5173C10.614 14.5333 10.5339 14.5573 10.4539 14.5893C10.1097 14.7254 9.64538 14.7974 8.97296 14.7974Z" stroke="url(#paint6_linear_401_532)" stroke-width="0.8575" stroke-miterlimit="10"/>
</g>
<defs>
<radialGradient id="paint0_radial_401_532" cx="0" cy="0" r="1" gradientUnits="userSpaceOnUse" gradientTransform="translate(10.286 10.4903) rotate(90) scale(8.34477)">
<stop offset="0.1667" stop-color="#073183"/>
<stop offset="1" stop-color="#0054F9"/>
</radialGradient>
<linearGradient id="paint1_linear_401_532" x1="1.81686" y1="0.615437" x2="18.8376" y2="18.4796" gradientUnits="userSpaceOnUse">
<stop offset="0.2057" stop-color="#89D0FF"/>
<stop offset="0.3984" stop-color="#EBBF9A"/>
<stop offset="0.6015" stop-color="#EB8280"/>
<stop offset="0.8411" stop-color="#A281FF"/>
</linearGradient>
<linearGradient id="paint2_linear_401_532" x1="2.47688" y1="1.38417" x2="18.1681" y2="17.9204" gradientUnits="userSpaceOnUse">
<stop offset="0.2057" stop-color="#89D0FF"/>
<stop offset="0.3984" stop-color="#EBBF9A"/>
<stop offset="0.6015" stop-color="#EB80DA"/>
<stop offset="0.8411" stop-color="#A281FF"/>
</linearGradient>
<linearGradient id="paint3_linear_401_532" x1="3.14373" y1="2.04866" x2="17.5052" y2="17.2565" gradientUnits="userSpaceOnUse">
<stop offset="0.2057" stop-color="#89D0FF"/>
<stop offset="0.3984" stop-color="#EBBF9A"/>
<stop offset="0.6015" stop-color="#EB8280"/>
<stop offset="0.8411" stop-color="#A281FF"/>
</linearGradient>
<linearGradient id="paint4_linear_401_532" x1="3.80935" y1="2.71561" x2="16.8381" y2="16.5911" gradientUnits="userSpaceOnUse">
<stop offset="0.2057" stop-color="#89D0FF"/>
<stop offset="0.3984" stop-color="#EBBF9A"/>
<stop offset="0.6015" stop-color="#EB80E7"/>
<stop offset="0.8411" stop-color="#A281FF"/>
</linearGradient>
<linearGradient id="paint5_linear_401_532" x1="4.47101" y1="3.38363" x2="16.1695" y2="15.9256" gradientUnits="userSpaceOnUse">
<stop offset="0.2057" stop-color="#89D0FF"/>
<stop offset="0.3984" stop-color="#EBBF9A"/>
<stop offset="0.6015" stop-color="#EB80D3"/>
<stop offset="0.8411" stop-color="#A281FF"/>
</linearGradient>
<linearGradient id="paint6_linear_401_532" x1="5.14142" y1="4.04397" x2="15.5086" y2="15.2575" gradientUnits="userSpaceOnUse">
<stop offset="0.2057" stop-color="#89D0FF"/>
<stop offset="0.3984" stop-color="#EBBF9A"/>
<stop offset="0.6015" stop-color="#A280EB"/>
<stop offset="0.8411" stop-color="#A281FF"/>
</linearGradient>
</defs>
</svg>
