<svg width="20" height="20" viewBox="0 0 20 20" fill="none" xmlns="http://www.w3.org/2000/svg">
<path d="M10 20C15.5228 20 20 15.5228 20 10C20 4.47715 15.5228 0 10 0C4.47715 0 0 4.47715 0 10C0 15.5228 4.47715 20 10 20Z" fill="#F0B90B"/>
<path d="M9.97639 2L11.9526 4.02382L6.97641 8.99998L5.00022 7.02382L9.97639 2Z" fill="white"/>
<path d="M12.9764 5L14.9526 7.02381L6.97641 15L5.00022 13.0238L12.9764 5Z" fill="white"/>
<path d="M3.97608 8L5.95227 10.0238L3.97608 12L1.99989 10.0238L3.97608 8Z" fill="white"/>
<path d="M15.9757 8L17.952 10.0238L9.97573 18L7.99956 16.0238L15.9757 8Z" fill="white"/>
</svg>
