<svg width="20" height="20" viewBox="0 0 20 20" fill="none" xmlns="http://www.w3.org/2000/svg">
<g clip-path="url(#clip0_401_412)">
<path d="M10 0C15.5233 0 20 4.47754 20 10C20 15.5233 15.5233 20 10 20C4.47754 20 0 15.5229 0 10C0 4.47754 4.47754 0 10 0Z" fill="#F5AC37"/>
<path d="M10.3687 10.7061H14.1685C14.2495 10.7061 14.2877 10.7061 14.2937 10.5999C14.3247 10.2134 14.3247 9.8246 14.2937 9.4376C14.2937 9.36243 14.2562 9.33135 14.1748 9.33135H6.61251C6.51891 9.33135 6.49371 9.36244 6.49371 9.45019V10.5626C6.49371 10.7061 6.49371 10.7061 6.64356 10.7061H10.3687ZM13.8692 8.03131C13.8801 8.00296 13.8801 7.97191 13.8692 7.94401C13.8058 7.80586 13.7307 7.67401 13.6434 7.55026C13.512 7.33876 13.3572 7.1439 13.1807 6.96885C13.0975 6.8631 13.0012 6.76815 12.8932 6.6876C12.3523 6.22724 11.7092 5.90144 11.0181 5.73764C10.6693 5.65933 10.3129 5.62199 9.95558 5.62514H6.59946C6.50586 5.62514 6.49326 5.66249 6.49326 5.74394V7.96246C6.49326 8.05606 6.49326 8.08126 6.61207 8.08126H13.8242C13.8242 8.08126 13.8868 8.06866 13.8994 8.03131H13.8688H13.8692ZM13.8692 12.0062C13.7631 11.9945 13.656 11.9945 13.5497 12.0062H6.61881C6.52521 12.0062 6.49371 12.0062 6.49371 12.1313V14.3004C6.49371 14.4003 6.49371 14.4254 6.61881 14.4254H9.81883C9.97183 14.4371 10.1248 14.4264 10.2747 14.3944C10.7391 14.3611 11.1958 14.2603 11.6314 14.0942C11.7898 14.0394 11.9428 13.9678 12.0872 13.8819H12.1309C12.8811 13.4917 13.4904 12.8788 13.8747 12.1264C13.8747 12.1264 13.9183 12.0319 13.8692 12.0071V12.0062ZM5.23775 15.55V15.5126V14.0564V13.5628V12.0939C5.23775 12.0125 5.23775 12.0004 5.13785 12.0004H3.78153C3.70638 12.0004 3.67533 12.0004 3.67533 11.9004V10.7129H5.12525C5.20625 10.7129 5.23775 10.7129 5.23775 10.6067V9.43177C5.23775 9.3566 5.23775 9.3381 5.13785 9.3381H3.78153C3.70638 9.3381 3.67533 9.3381 3.67533 9.23818V8.13841C3.67533 8.06956 3.67533 8.05111 3.77523 8.05111H5.11895C5.21255 8.05111 5.23775 8.05111 5.23775 7.93231V4.56358C5.23775 4.46368 5.23775 4.43848 5.36285 4.43848H10.0501C10.3903 4.45198 10.7282 4.48933 11.0626 4.55098C11.7516 4.67833 12.4135 4.92448 13.0188 5.27593C13.4202 5.51218 13.7897 5.79749 14.1186 6.12599C14.3661 6.38294 14.5893 6.66105 14.7873 6.95715C14.9839 7.2573 15.1473 7.57816 15.2756 7.91341C15.2913 8.00071 15.375 8.05966 15.4623 8.04481H16.581C16.7246 8.04481 16.7246 8.04481 16.7308 8.18252V9.2076C16.7308 9.30752 16.6935 9.33268 16.5932 9.33268H15.7305C15.6432 9.33268 15.618 9.33268 15.6243 9.44527C15.6585 9.82593 15.6585 10.208 15.6243 10.5887C15.6243 10.6949 15.6243 10.7075 15.7436 10.7075H16.7304C16.7741 10.7638 16.7304 10.82 16.7304 10.8767C16.7367 10.9491 16.7367 11.0225 16.7304 11.0949V11.8514C16.7304 11.9576 16.6993 11.9891 16.6053 11.9891H15.4241C15.3417 11.9734 15.2616 12.026 15.2427 12.1079C14.9614 12.8392 14.5114 13.4949 13.93 14.0204C13.7177 14.2117 13.4944 14.3917 13.2613 14.5578C13.0112 14.7018 12.7677 14.8516 12.5112 14.9704C12.0391 15.1828 11.5441 15.3394 11.0361 15.4389C10.5537 15.5253 10.0645 15.5644 9.57358 15.5576H5.23595V15.5514L5.23775 15.55Z" fill="#FEFEFD"/>
</g>
<defs>
<clipPath id="clip0_401_412">
<rect width="20" height="20" fill="white"/>
</clipPath>
</defs>
</svg>
