<svg width="20" height="20" viewBox="0 0 20 20" fill="none" xmlns="http://www.w3.org/2000/svg">
<g clip-path="url(#clip0_401_591)">
<path d="M10 20C15.5228 20 20 15.5228 20 10C20 4.47715 15.5228 0 10 0C4.47715 0 0 4.47715 0 10C0 15.5228 4.47715 20 10 20Z" fill="#00DCFA"/>
<path d="M12.1112 3.125C9.6925 3.125 7.63812 4.985 7.38 7.37937C4.98437 7.63812 3.125 9.6925 3.125 12.1106C3.12566 13.3739 3.62775 14.5853 4.52096 15.4786C5.41418 16.3719 6.62547 16.8742 7.88875 16.875C10.3075 16.875 12.37 15.015 12.62 12.6206C15.015 12.3619 16.875 10.3075 16.875 7.88938C16.8743 6.6261 16.3723 5.41474 15.479 4.52141C14.5858 3.62807 13.3745 3.12583 12.1112 3.125ZM15.7588 8.4225C15.6398 9.20379 15.2742 9.92661 14.7154 10.4854C14.1566 11.0442 13.4338 11.4098 12.6525 11.5287V8.4225H15.7588ZM4.24125 11.5775C4.3586 10.7947 4.72346 10.0701 5.28241 9.50968C5.84136 8.94927 6.56504 8.58252 7.3475 8.46313V11.5694H4.24125V11.5775ZM11.5369 12.6525C11.4078 13.5276 10.9682 14.3271 10.2984 14.9049C9.62864 15.4826 8.77332 15.8001 7.88875 15.7994C7.00435 15.8001 6.14918 15.4827 5.4795 14.905C4.80981 14.3274 4.37029 13.5281 4.24125 12.6531H11.5369V12.6525ZM11.5775 8.4225V11.5694H8.4225V8.4225H11.5775ZM15.7588 7.3475H8.46313C8.59217 6.47239 9.03175 5.67292 9.70156 5.09515C10.3714 4.51738 11.2267 4.19986 12.1112 4.20063C12.9957 4.19986 13.8508 4.51731 14.5205 5.09497C15.1902 5.67262 15.6297 6.47194 15.7588 7.34688V7.3475Z" fill="white"/>
</g>
<defs>
<clipPath id="clip0_401_591">
<rect width="20" height="20" fill="white"/>
</clipPath>
</defs>
</svg>
