<svg width="20" height="20" viewBox="0 0 20 20" fill="none" xmlns="http://www.w3.org/2000/svg">
<g clip-path="url(#clip0_401_482)">
<path d="M15.1042 6.76897C14.7396 6.54273 14.2708 6.54273 13.8542 6.76897L10.9375 8.63543L8.95833 9.82317L6.09375 11.6896C5.72917 11.9159 5.26042 11.9159 4.84375 11.6896L2.60417 10.2191C2.23958 9.99285 1.97917 9.54037 1.97917 9.03134V6.20338C1.97917 5.7509 2.1875 5.29843 2.60417 5.01563L4.84375 3.60165C5.20833 3.37541 5.67708 3.37541 6.09375 3.60165L8.33333 5.07219C8.69792 5.29843 8.95833 5.7509 8.95833 6.25993V8.12639L10.9375 6.88209V4.95907C10.9375 4.5066 10.7292 4.05412 10.3125 3.77133L6.14583 1.11304C5.78125 0.8868 5.3125 0.8868 4.89583 1.11304L0.625 3.82788C0.208333 4.05412 0 4.5066 0 4.95907V10.2756C0 10.7281 0.208333 11.1806 0.625 11.4634L4.84375 14.1217C5.20833 14.3479 5.67708 14.3479 6.09375 14.1217L8.95833 12.3118L10.9375 11.0675L13.8021 9.25758C14.1667 9.03134 14.6354 9.03134 15.0521 9.25758L17.2917 10.6716C17.6562 10.8978 17.9167 11.3503 17.9167 11.8593V14.6873C17.9167 15.1397 17.7083 15.5922 17.2917 15.875L15.1042 17.289C14.7396 17.5152 14.2708 17.5152 13.8542 17.289L11.6146 15.875C11.25 15.6488 10.9896 15.1963 10.9896 14.6873V12.8774L9.01042 14.1217V15.9881C9.01042 16.4406 9.21875 16.8931 9.63542 17.1759L13.8542 19.8342C14.2187 20.0604 14.6875 20.0604 15.1042 19.8342L19.3229 17.1759C19.6875 16.9496 19.9479 16.4972 19.9479 15.9881V10.615C19.9479 10.1625 19.7396 9.71005 19.3229 9.42726L15.1042 6.76897Z" fill="#8247E5"/>
</g>
<defs>
<clipPath id="clip0_401_482">
<rect width="20" height="18.9474" fill="white" transform="translate(0 1)"/>
</clipPath>
</defs>
</svg>
