<svg width="35" height="35" viewBox="0 0 35 35" fill="none" xmlns="http://www.w3.org/2000/svg">
<g clip-path="url(#clip0_401_525)">
<circle cx="17.6389" cy="17.3611" r="17.3611" fill="#F6F6F6"/>
<path d="M4.09391 7.92794C10.7215 -1.59962 24.5182 -1.23609 30.6827 7.88409C27.6073 10.985 24.5292 14.0869 21.4401 17.2016C24.5419 20.3391 27.6137 23.4455 30.7283 26.5967C27.4602 30.9892 23.1655 33.4389 17.6888 33.5238C12.0075 33.6124 7.53373 31.1737 4.12771 26.6469C7.24693 23.5085 10.3269 20.4103 13.4141 17.3039C10.2684 14.139 7.18938 11.0408 4.09391 7.92702V7.92794ZM22.7188 7.7416C19.3685 5.70109 14.7532 5.99612 12.1454 7.76079C13.9074 9.5355 15.6766 11.3166 17.4221 13.0749C19.163 11.3212 20.9313 9.54007 22.7188 7.74069V7.7416ZM12.1208 26.6606C14.0051 28.5568 20.1422 28.5797 22.6668 26.7246C20.8984 24.9435 19.1219 23.155 17.3618 21.3821C15.641 23.1158 13.8809 24.8887 12.1199 26.6606H12.1208Z" fill="#1EB6A3"/>
<path d="M31.1538 25.8476C29.8759 24.557 28.6191 23.2956 27.3769 22.0205C27.3029 21.9447 27.2828 21.7383 27.3285 21.6314C28.5488 18.6985 28.5479 15.7711 27.3303 12.8373C27.2819 12.7204 27.3093 12.4966 27.3906 12.4126C28.6136 11.1594 29.8513 9.92177 31.0862 8.68139C31.1044 8.66312 31.1391 8.66221 31.1647 8.65308C34.326 13.4073 34.5296 20.6303 31.1519 25.8476H31.1538Z" fill="#1EB6A3"/>
<path d="M3.67188 25.8378C0.345316 20.7219 0.451268 13.4942 3.6664 8.63135C3.75682 8.71173 3.84907 8.7848 3.93219 8.86791C5.06936 10.0115 6.19922 11.1605 7.34461 12.294C7.5483 12.4959 7.59123 12.6475 7.47614 12.9243C6.28325 15.775 6.29056 18.6375 7.46335 21.4909C7.58301 21.7814 7.55378 21.944 7.33182 22.1623C6.10971 23.3698 4.90495 24.5965 3.67279 25.8387L3.67188 25.8378Z" fill="#1EB6A3"/>
<g filter="url(#filter0_biiii_401_525)">
<circle cx="17.5002" cy="17.2221" r="13.8889" fill="white" fill-opacity="0.075"/>
</g>
<path d="M24.7143 16.7142C24.7143 12.6077 21.3842 9.28564 17.2857 9.28564C13.1792 9.28564 9.85714 12.6077 9.85714 16.7142C9.85714 20.8127 13.1792 24.1428 17.2857 24.1428C21.3842 24.1428 24.7143 20.8127 24.7143 16.7142Z" fill="url(#paint0_radial_401_525)"/>
<path d="M22.3367 14.393C22.3047 14.5771 22.2727 14.6652 22.2247 14.7612C22.1766 14.8733 22.1286 14.9934 22.0806 15.2495C22.0646 15.3456 22.0486 15.4256 22.0406 15.4897V15.4977C22.0245 15.6017 22.0165 15.6738 21.9765 15.7939C21.9445 15.8979 21.8885 16.066 21.7524 16.2421C21.6403 16.3862 21.4562 16.6344 21.208 16.6664C21.184 16.6664 21.144 16.6664 21.12 16.6584C20.4156 16.2982 19.8152 16.034 19.6071 15.978C19.3669 15.9059 19.3989 15.3776 19.4229 14.9133C19.439 14.7052 19.447 14.5051 19.439 14.337C19.4069 13.7446 19.3029 13.1042 18.7906 12.792C18.4864 12.6079 18.0861 12.5519 17.7099 12.5519C17.7819 12.5198 17.854 12.4718 17.942 12.4238C18.1662 12.2957 18.4383 12.1356 18.7185 12.1036C18.8066 12.0956 18.8946 12.0876 18.9827 12.0716C19.535 12.0075 20.0153 11.9515 20.5196 12.1276C20.7518 12.2076 21.216 12.4638 21.3361 12.712C21.4242 12.8801 21.5683 13.0161 21.8484 13.2803C22.0005 13.4164 22.0966 13.4964 22.1686 13.5605C22.2727 13.6405 22.2887 13.6645 22.3207 13.7206C22.4168 13.9127 22.3848 14.1128 22.3367 14.393Z" fill="white"/>
<path d="M19.7832 16.8184C19.8152 16.8264 19.8312 16.8665 19.8072 16.8985C19.7351 17.0105 19.6471 17.1706 19.543 17.3548C19.495 17.4428 19.447 17.5309 19.4069 17.5949C19.2709 17.827 19.2628 18.0272 19.2548 18.1793C19.2468 18.3474 19.2388 18.4194 19.1348 18.4835C19.0547 18.5395 18.9667 18.5555 18.3903 18.6436C18.2862 18.6596 18.2462 18.6756 18.2062 18.6996C18.1982 18.7076 18.1822 18.7076 18.1742 18.7156C18.1422 18.7316 18.1101 18.6996 18.1101 18.6676C18.1181 18.5875 18.1181 18.4835 18.1181 18.3474V18.3234C18.1181 18.2113 18.1181 18.1152 18.1101 18.0432C18.1021 17.8991 18.1021 17.8351 18.1422 17.771C18.1902 17.691 18.2302 17.6669 18.2862 17.6269C18.3743 17.5709 18.4944 17.4988 18.6625 17.2587C18.7585 17.1306 18.7745 17.0586 18.7906 17.0025C18.7986 16.9785 18.7986 16.9705 18.8706 16.9145C18.9427 16.8585 19.1748 16.6823 19.471 16.7304C19.567 16.7464 19.6711 16.7784 19.7832 16.8184Z" fill="white"/>
<path d="M17.4858 19.4762C17.4697 19.4922 17.4617 19.5002 17.4377 19.5002C17.3737 19.5002 17.3337 19.4842 17.3096 19.4522C17.2536 19.3802 17.2616 19.2361 17.2696 19.148L17.5178 19.084C17.5338 19.2201 17.5418 19.4042 17.4858 19.4762Z" fill="white"/>
<path d="M17.5018 18.5956C17.4938 18.6276 17.4938 18.6676 17.4938 18.7156C17.4938 18.7317 17.4938 18.7477 17.4938 18.7637C17.4938 18.8037 17.4938 18.8677 17.4938 18.8998C17.4137 18.9238 17.3497 18.9238 17.2696 18.9238C17.2696 18.8998 17.2696 18.8597 17.2696 18.8357C17.2696 18.8197 17.2696 18.7957 17.2696 18.7797C17.2696 18.7557 17.2696 18.7397 17.2696 18.7156C17.2696 18.6676 17.2696 18.5956 17.2776 18.5716C17.3016 18.5716 17.3257 18.5636 17.3497 18.5555C17.3977 18.5475 17.4697 18.5315 17.5098 18.5395C17.5098 18.5555 17.5098 18.5796 17.5018 18.5956Z" fill="white"/>
<path d="M17.0537 19.404C17.0457 19.5321 17.0057 19.6842 16.8856 19.7082C16.8296 19.7162 16.8055 19.7002 16.7895 19.6842C16.7095 19.6121 16.7015 19.388 16.7095 19.2279C16.7655 19.2279 16.8296 19.2199 16.9096 19.2039C16.9576 19.1959 17.0057 19.1799 17.0457 19.1719C17.0537 19.2359 17.0617 19.316 17.0537 19.404Z" fill="white"/>
<path d="M16.9975 18.9557L16.7333 19.0517C16.7493 18.9477 16.7653 18.8036 16.7733 18.7075C16.7813 18.6435 16.7973 18.6195 16.8053 18.6115C16.8053 18.6115 16.8133 18.6035 16.8213 18.6035C16.8213 18.6035 16.8213 18.6035 16.8294 18.6035H16.8374L17.0055 18.5955C16.9975 18.6755 16.9975 18.8516 16.9975 18.9557Z" fill="white"/>
<path d="M16.5652 18.8757C16.5492 18.9157 16.5332 19.0278 16.5252 19.1078L16.197 19.0998C16.213 18.9958 16.245 18.8917 16.269 18.8116C16.301 18.7316 16.325 18.6676 16.3571 18.6515C16.3891 18.6355 16.4611 18.6275 16.5092 18.6676C16.5812 18.7156 16.5972 18.7876 16.5652 18.8757Z" fill="white"/>
<path d="M16.4453 19.8924C16.4213 19.9244 16.3893 19.9484 16.3573 19.9484C16.3173 19.9565 16.2933 19.9404 16.2692 19.9244C16.1652 19.8284 16.1732 19.5162 16.1812 19.3641C16.3173 19.3321 16.4694 19.3081 16.5414 19.3C16.5414 19.4201 16.5494 19.7483 16.4453 19.8924Z" fill="white"/>
<path d="M16.0128 19.0838C15.9968 19.1238 15.9808 19.1639 15.9728 19.2039C15.9328 19.2199 15.8127 19.2039 15.6926 19.1799L15.7727 18.6596C15.9088 18.6195 16.0689 18.6115 16.1009 18.6516C16.1569 18.7076 16.0529 18.9718 16.0128 19.0838Z" fill="white"/>
<path d="M15.8608 19.9644C15.7967 20.0444 15.7007 20.0844 15.5646 20.0764C15.4685 20.0764 15.4365 20.0364 15.4205 20.0124C15.3484 19.8923 15.4205 19.6121 15.4925 19.436L15.9408 19.46C15.9488 19.4921 15.9488 19.5321 15.9488 19.5721C15.9568 19.7082 15.9408 19.8683 15.8608 19.9644Z" fill="white"/>
<path d="M19.575 16.1781C19.1668 16.066 19.2068 15.4737 19.2388 14.8973C19.2468 14.6972 19.2629 14.5051 19.2548 14.345C19.2228 13.8087 19.1348 13.2243 18.7025 12.9601C18.2382 12.68 17.4778 12.744 17.0135 12.8C16.8454 12.8481 16.6853 12.8881 16.5572 12.8801C16.285 12.8641 16.0689 12.752 15.8768 12.6479C15.7327 12.5679 15.6046 12.4958 15.4765 12.4958C15.4685 12.4958 15.4605 12.4958 15.4605 12.4958C15.1003 12.5199 14.9322 12.6079 14.7801 12.744C14.7401 12.776 14.692 12.8721 14.5399 13.3124C14.4599 13.5365 14.4519 13.6566 14.4359 13.7686C14.4199 13.8727 14.4119 13.9848 14.3558 14.1529C14.3158 14.2649 14.2838 14.361 14.2598 14.4571C14.1877 14.7052 14.1237 14.9053 13.9476 15.1455C13.9236 15.1695 13.8996 15.2175 13.8675 15.2575C13.8275 15.3216 13.7795 15.4016 13.7074 15.4897C13.6594 15.5537 13.5553 15.7939 13.5633 15.8659C13.5713 15.986 13.6114 16.058 13.6514 16.1381C13.6914 16.2181 13.7475 16.3142 13.7555 16.4503V16.4743C13.7715 16.6824 13.7395 16.7865 13.3472 17.1387C13.0991 17.3628 12.9149 17.579 12.7949 17.7391C12.7869 17.7551 12.7949 17.7711 12.8189 17.7711C12.8269 17.7711 12.8269 17.7711 12.8269 17.7711C12.8349 17.7711 12.8429 17.7711 12.8509 17.7711C12.8589 17.7711 12.8669 17.7711 12.8749 17.7711C12.8829 17.7711 12.8909 17.7711 12.8989 17.7711C12.995 17.7791 13.0911 17.8191 13.1551 17.8912C13.1631 17.9072 13.1871 17.9072 13.2031 17.8992C13.2672 17.8752 13.3392 17.8752 13.4032 17.8832C13.4833 17.8912 13.5713 17.9152 13.6274 17.9712C13.6434 17.9872 13.6674 17.9952 13.6914 17.9872C13.7555 17.9712 13.8275 17.9712 13.8915 17.9952C13.9396 18.0112 13.9876 18.0433 14.0196 18.0833C14.0436 18.1073 14.0837 18.1153 14.1157 18.0993C14.1317 18.0913 14.1557 18.0753 14.1797 18.0673C14.2678 18.0353 14.3638 18.0513 14.4439 18.0833C14.4839 18.0993 14.5239 18.1073 14.564 18.1393C14.628 18.1874 14.676 18.2514 14.7 18.3234C14.7161 18.3635 14.7721 18.3795 14.8041 18.3475C14.8681 18.2994 14.9162 18.2914 14.9642 18.3074C14.9882 18.3154 15.0042 18.3314 15.0202 18.3555C15.0443 18.3875 15.0843 18.4195 15.1163 18.4035C15.2524 18.3635 15.4125 18.3875 15.5326 18.4515C15.5726 18.4755 15.6206 18.5075 15.6446 18.5556V18.5316C15.6446 18.5236 15.6526 18.5156 15.6606 18.5075L15.6847 18.4995C15.7487 18.4755 16.0849 18.3795 16.213 18.5156C16.221 18.5236 16.229 18.5236 16.237 18.5156C16.253 18.4995 16.269 18.4835 16.277 18.4835C16.3651 18.4355 16.5092 18.4275 16.6052 18.5156C16.6212 18.5316 16.6532 18.5236 16.6693 18.5075C16.6773 18.4915 16.6853 18.4835 16.7013 18.4755C16.7333 18.4435 16.7813 18.4355 16.8294 18.4355L17.0135 18.4275C17.0615 18.4275 17.2056 18.4115 17.2456 18.4035H17.2536C17.2696 18.4035 17.2936 18.3955 17.3177 18.3875C17.4057 18.3715 17.5098 18.3475 17.5898 18.3875C17.6699 18.4275 17.6619 18.5156 17.6539 18.5956C17.6539 18.6276 17.6459 18.6596 17.6459 18.6917C17.6459 18.7077 17.6459 18.7237 17.6459 18.7397C17.6459 18.8117 17.6459 18.8758 17.6379 18.9238L17.6459 18.9638C17.6459 18.9638 17.6459 18.9638 17.6459 18.9718C17.6539 19.0039 17.6939 19.0279 17.7179 19.0039C17.7819 18.9638 17.846 18.9158 17.87 18.8838V18.8758C17.87 18.8678 17.878 18.8518 17.886 18.8197C17.894 18.7477 17.91 18.6116 17.91 18.3314C17.91 18.3154 17.91 18.3074 17.91 18.2994C17.91 18.1954 17.91 18.1073 17.902 18.0353C17.894 17.8832 17.886 17.7631 17.9661 17.643C18.0381 17.5229 18.1101 17.4829 18.1822 17.4349C18.2622 17.3869 18.3503 17.3308 18.5024 17.1227C18.5744 17.0186 18.5824 16.9786 18.5904 16.9466C18.6064 16.8665 18.6305 16.8185 18.7505 16.7385C18.8466 16.6664 19.1268 16.4503 19.511 16.5143C19.6391 16.5383 19.8392 16.6024 20.0473 16.6824C20.0553 16.6824 20.0633 16.6904 20.0713 16.6904H20.0794C20.2635 16.7625 20.4316 16.8425 20.5516 16.9066C20.5757 16.9226 20.6077 16.9146 20.6317 16.8906C20.6717 16.8425 20.7117 16.8185 20.7518 16.7865C20.7678 16.7785 20.7838 16.7705 20.7918 16.7625C20.7998 16.7625 20.7998 16.7545 20.7998 16.7545C20.8318 16.7305 20.8318 16.6664 20.7918 16.6504C20.2555 16.3862 19.7431 16.2261 19.575 16.1781ZM15.7167 16.2982C15.5886 16.8425 14.7401 17.4509 14.3558 17.4509H14.3478C14.3398 17.4509 14.3318 17.4509 14.3318 17.4509C14.3238 17.4509 14.3158 17.4509 14.3078 17.4429C14.2998 17.4429 14.2998 17.4429 14.2918 17.4429C14.2197 17.4189 14.1237 17.3708 14.0516 17.2988C14.0036 17.2508 13.9636 17.1867 13.9476 17.1307C13.9476 17.1227 13.9396 17.1067 13.9396 17.0987C13.9156 17.0026 13.8915 16.8906 13.9716 16.6984C13.9796 16.6744 13.9956 16.6504 14.0036 16.6264C14.0036 16.6184 14.0116 16.6104 14.0116 16.6024C14.0196 16.5784 14.0276 16.5624 14.0356 16.5463C14.0436 16.5143 14.0597 16.4903 14.0677 16.4743C14.0677 16.4663 14.0757 16.4583 14.0757 16.4503C14.0997 16.3862 14.0997 16.3622 14.1077 16.3382C14.1077 16.3222 14.1157 16.2902 14.1237 16.2582C14.1477 16.1541 14.1637 16.066 14.1717 15.994C14.1877 15.8579 14.2117 15.7378 14.2838 15.6258C14.2998 15.6098 14.3078 15.5938 14.3238 15.5777C14.3318 15.5697 14.3318 15.5697 14.3398 15.5617C14.3478 15.5537 14.3478 15.5537 14.3558 15.5457C14.3718 15.5297 14.3959 15.5217 14.4119 15.5137C14.4199 15.5137 14.4279 15.5057 14.4359 15.5057C14.4519 15.4977 14.4679 15.4977 14.4839 15.4897C14.556 15.4737 14.636 15.4737 14.7321 15.4817C14.8361 15.4897 14.9322 15.5057 15.0122 15.5297C15.0843 15.5457 15.1483 15.5697 15.1963 15.5938C15.2044 15.5938 15.2044 15.6018 15.2124 15.6018C15.2204 15.6098 15.2284 15.6098 15.2444 15.6178C15.2604 15.6258 15.2684 15.6258 15.2844 15.6338C15.3004 15.6418 15.3164 15.6498 15.3324 15.6578L15.3484 15.6658C15.4045 15.6898 15.4605 15.7218 15.5005 15.7539C15.5246 15.7699 15.5406 15.7859 15.5566 15.8019C15.5646 15.8099 15.5726 15.8099 15.5726 15.8179C15.5806 15.8259 15.5806 15.8259 15.5886 15.8339C15.7567 15.978 15.7487 16.1781 15.7167 16.2982ZM16.1169 14.2249L16.1009 14.321C16.0609 14.5451 15.9728 14.8493 15.6526 14.9293C15.3404 15.0014 15.2684 15.0174 15.0523 15.0334C15.0443 15.0334 15.0443 15.0334 15.0363 15.0334C14.8762 15.0334 14.564 14.9293 14.5079 14.6812C14.4759 14.5211 14.548 14.401 14.66 14.2089C14.676 14.1769 14.7 14.1449 14.7241 14.1048C14.8842 13.8407 14.9402 13.6486 14.9882 13.4965C15.0363 13.3444 15.0763 13.2243 15.1803 13.1202C15.2044 13.0962 15.2284 13.0722 15.2604 13.0562C15.2764 13.0402 15.3004 13.0322 15.3244 13.0162C15.3564 13.0002 15.3885 12.9922 15.4205 12.9761C15.4925 12.9521 15.5726 12.9441 15.6446 12.9441C15.7967 12.9441 15.9488 12.9842 16.0529 13.0722C16.1009 13.1122 16.173 13.1843 16.213 13.4164C16.229 13.5365 16.197 13.7526 16.1169 14.2249ZM18.4143 14.8653C18.3023 15.0574 18.2462 15.1615 18.1502 15.2415C17.958 15.4016 17.7419 15.4337 17.5578 15.4337C17.4297 15.4337 17.3177 15.4096 17.2456 15.4016C17.0535 15.3696 16.7093 15.3056 16.5892 15.0254C16.5652 14.9694 16.5652 14.9374 16.5652 14.8893C16.5652 14.8493 16.5652 14.7692 16.5412 14.6011V14.5931C16.5332 14.5131 16.5252 14.425 16.5412 14.313V14.297C16.6052 13.9608 16.6292 13.9127 16.6372 13.8807C16.6693 13.8167 16.7493 13.7846 16.8213 13.8247C16.8854 13.8567 16.9094 13.9367 16.8854 14.0008C16.8774 14.0168 16.8614 14.0888 16.8053 14.353V14.369C16.7893 14.441 16.7973 14.4971 16.8053 14.5691V14.5771C16.8294 14.7692 16.8294 14.8493 16.8294 14.8973C16.8294 14.9053 16.8294 14.9133 16.8294 14.9213V14.9293C16.8534 14.9854 16.9014 15.0174 16.9574 15.0494C16.9975 15.0654 17.0375 15.0334 17.0295 14.9934C16.9734 14.6972 16.9734 14.353 17.0855 14.1369C17.1255 14.0648 17.1896 13.9527 17.2536 13.8407C17.2616 13.8327 17.2696 13.8167 17.2696 13.8087C17.2776 13.8007 17.2776 13.7926 17.2856 13.7846C17.3177 13.7366 17.3417 13.6966 17.3657 13.6566C17.3657 13.6486 17.3737 13.6486 17.3737 13.6406L17.3817 13.6325C17.3897 13.6245 17.3897 13.6165 17.3977 13.6085C17.3977 13.6085 17.3977 13.6005 17.4057 13.6005L17.4137 13.5925C17.4137 13.5845 17.4217 13.5845 17.4217 13.5765C17.4457 13.5445 17.4697 13.5125 17.4858 13.4805C17.5178 13.4404 17.4778 13.3924 17.4377 13.4084C17.3257 13.4564 17.2536 13.5125 17.2376 13.5205C17.1816 13.5685 17.0935 13.5605 17.0455 13.4965C16.9975 13.4404 17.0055 13.3524 17.0695 13.3043C17.1415 13.2483 17.5098 12.9842 17.95 13.1042C18.2702 13.1923 18.4303 13.4404 18.4944 13.5285C18.5424 13.6005 18.7025 13.8247 18.6945 14.1449C18.6945 14.377 18.5984 14.5531 18.4143 14.8653Z" fill="white"/>
<path d="M15.5486 13.2244C15.5245 13.2804 15.5005 13.3444 15.4685 13.4165C15.4045 13.5846 15.3244 13.7767 15.2844 13.8487C15.2204 13.9688 15.1723 14.0489 15.1323 14.1049C15.0843 14.177 15.0523 14.233 15.0202 14.313C14.9722 14.4491 14.9642 14.6012 14.9962 14.7693C14.9082 14.7613 14.7721 14.7053 14.7561 14.6252C14.7481 14.5692 14.7801 14.5132 14.8761 14.3451C14.8922 14.313 14.9162 14.273 14.9402 14.241C15.1083 13.9528 15.1803 13.7367 15.2284 13.5766C15.2844 13.4085 15.3084 13.3364 15.3965 13.2724C15.4525 13.2484 15.5005 13.2324 15.5486 13.2244Z" fill="white"/>
<path d="M15.3805 19.2761C15.2844 19.4682 15.1723 19.6443 15.1003 19.7324C15.0362 19.5723 14.9322 19.1961 14.9642 18.8999C14.9642 18.8919 14.9642 18.8839 14.9642 18.8759C14.9722 18.7798 14.9962 18.6998 15.0443 18.6277C15.0763 18.5797 15.1563 18.5557 15.2444 18.5557C15.3084 18.5557 15.3805 18.5717 15.4445 18.6037C15.4765 18.6197 15.5246 18.6597 15.5246 18.7638C15.5406 18.9079 15.4685 19.1 15.3805 19.2761Z" fill="white"/>
<path d="M20.5039 17.1387C20.5119 17.1467 20.5119 17.1547 20.5119 17.1627C20.4879 17.2188 20.4479 17.2588 20.4078 17.3068C20.3598 17.3629 20.3038 17.4269 20.2557 17.531C20.1837 17.6751 20.1597 17.8031 20.1517 18.1393C20.1357 18.5316 20.1517 18.7477 20.1677 18.9078C20.1757 19.0599 20.1837 19.156 20.1597 19.3081C20.1036 19.6123 19.9756 19.8124 19.8075 20.0685C19.5993 20.3887 19.3912 20.7169 19.039 20.821C19.007 20.829 19.007 20.829 18.9109 20.829C18.8309 20.829 18.6948 20.829 18.4466 20.837C17.9823 20.853 17.7502 20.861 17.5581 20.901C17.3499 20.9411 17.2459 20.9891 17.1338 21.0291C17.0378 21.0691 16.9497 21.1012 16.7816 21.1412C16.6775 21.1652 16.5254 21.1812 16.0051 21.1892C15.4608 21.1892 15.1326 21.1892 14.7083 21.1412C14.116 21.0772 13.8198 21.0371 13.6197 20.9331C13.1554 20.6849 12.9552 20.2366 12.635 19.5002C12.635 19.4922 12.6431 19.4842 12.6511 19.4842C12.6671 19.4922 12.6831 19.5002 12.6991 19.5082C12.7151 19.5162 12.7311 19.5162 12.7391 19.5162C12.7711 19.5242 12.8032 19.5242 12.8352 19.5162C12.8432 19.5162 12.8432 19.5162 12.8512 19.5082C12.8592 19.5082 12.8672 19.5082 12.8672 19.5162C12.8912 19.5722 12.9232 19.6203 12.9793 19.6523C13.0353 19.6843 13.0993 19.6843 13.1554 19.6843C13.2194 19.6843 13.2834 19.6763 13.3475 19.6683C13.3795 19.6683 13.4115 19.6843 13.4275 19.7083C13.4836 19.8524 13.5556 19.9485 13.6677 19.9645C13.6757 19.9645 13.6837 19.9645 13.6917 19.9645C13.7157 19.9645 13.7557 19.9565 13.8038 19.9244C13.8438 19.8924 13.9078 19.9164 13.9399 19.9565C13.9639 19.9965 13.9959 20.0205 14.0279 20.0445C14.14 20.1566 14.4121 20.2126 14.6363 20.2126C14.7564 20.2126 14.8684 20.1966 14.9325 20.1646C15.0285 20.1166 15.0285 20.0525 15.0205 20.0205C15.0125 19.9725 15.0045 19.9164 14.9965 19.8684C14.9965 19.8604 15.0045 19.8604 15.0045 19.8684C15.0205 19.9004 15.0365 19.9325 15.0766 19.9405C15.0846 19.9405 15.0846 19.9405 15.0926 19.9405C15.1566 19.9405 15.2527 19.9645 15.2687 20.0205C15.2767 20.0525 15.2927 20.0765 15.3087 20.1086C15.3487 20.1646 15.4208 20.2366 15.5729 20.2446H15.5809C15.757 20.2446 15.8931 20.1886 15.9811 20.0765C15.9891 20.0685 15.9891 20.0605 15.9971 20.0525C16.0291 20.0045 16.1252 20.0045 16.1652 20.0445C16.2133 20.0845 16.2693 20.1086 16.3333 20.1086C16.3413 20.1086 16.3573 20.1086 16.3653 20.1086C16.4454 20.1006 16.5094 20.0605 16.5655 19.9885C16.5975 19.9405 16.6215 19.8844 16.6375 19.8204C16.6455 19.8044 16.6695 19.7964 16.6855 19.8124C16.7176 19.8444 16.7736 19.8764 16.8536 19.8764C16.8697 19.8764 16.8937 19.8764 16.9177 19.8684C17.0698 19.8364 17.1498 19.7083 17.1818 19.5722C17.1818 19.5642 17.1899 19.5642 17.1899 19.5722C17.2299 19.6203 17.3019 19.6763 17.422 19.6763C17.43 19.6763 17.438 19.6763 17.438 19.6763C17.502 19.6763 17.5581 19.6443 17.5981 19.5962C17.6461 19.5322 17.6621 19.4361 17.6701 19.3481C17.6701 19.3241 17.6862 19.3001 17.7182 19.2841C17.8463 19.228 18.0064 19.1079 18.0544 19.0279C18.0544 19.0279 18.0544 19.0199 18.0624 19.0199C18.0704 18.9959 18.0944 18.9799 18.1104 18.9799C18.2145 18.9639 18.2545 18.9398 18.2945 18.9238C18.3266 18.9078 18.3506 18.8998 18.4306 18.8838C19.015 18.7958 19.127 18.7717 19.2551 18.6917C19.4472 18.5636 19.4552 18.3875 19.4633 18.2194C19.4713 18.0753 19.4793 17.9152 19.5913 17.7231C19.6314 17.651 19.6794 17.571 19.7274 17.4749C19.8155 17.3148 19.9355 17.0907 20.0236 16.9706C20.0396 16.9466 20.0716 16.9386 20.0956 16.9546C20.2958 17.0267 20.4719 17.1067 20.5039 17.1387Z" fill="white"/>
<path d="M14.8201 18.8838C14.7961 19.0839 14.7801 19.3561 14.8121 19.7083C14.8201 19.8044 14.8361 19.9084 14.8521 20.0125C14.8281 20.0285 14.7401 20.0525 14.596 20.0445C14.3878 20.0365 14.1797 19.9885 14.1157 19.9164L14.1077 19.9084C14.0596 19.8684 14.0196 19.8364 14.0196 19.7643C14.0196 19.7403 14.0276 19.7163 14.0516 19.6763C14.0677 19.6603 14.0837 19.6362 14.0997 19.6042C14.1317 19.5562 14.1797 19.5002 14.2278 19.4201C14.3638 19.196 14.4119 19.1239 14.4759 19.0359C14.4839 19.0279 14.4839 19.0199 14.4919 19.0119C14.5319 18.9638 14.572 18.8998 14.644 18.7957C14.692 18.7237 14.7321 18.6596 14.7721 18.6116C14.8281 18.5316 14.8681 18.4915 14.8922 18.4675C14.8922 18.4995 14.8842 18.5476 14.8761 18.5956C14.8441 18.6917 14.8281 18.7797 14.8201 18.8838Z" fill="white"/>
<path d="M14.7161 15.7299C14.7161 15.7379 14.7161 15.7379 14.7161 15.7299C14.684 15.7699 14.652 15.8179 14.612 15.898C14.5079 16.1221 14.5079 16.2502 14.5079 16.3543C14.5079 16.4103 14.5079 16.4503 14.4919 16.4983C14.4839 16.5304 14.4679 16.5704 14.4439 16.6104C14.3879 16.7465 14.3078 16.9226 14.3398 17.1628C14.2918 17.1387 14.2197 17.0827 14.2037 17.0587C14.2037 17.0427 14.1957 17.0347 14.1957 17.0187C14.1797 16.9466 14.1717 16.8986 14.2117 16.7865C14.3398 16.4983 14.3558 16.4263 14.3638 16.3463C14.3638 16.3302 14.3718 16.3142 14.3718 16.2902C14.3959 16.1782 14.4119 16.0821 14.4199 16.002C14.4359 15.882 14.4519 15.8019 14.4919 15.7459C14.5079 15.7219 14.548 15.7139 14.604 15.7139C14.628 15.7139 14.652 15.7139 14.684 15.7219H14.692C14.7161 15.7299 14.7161 15.7299 14.7161 15.7299Z" fill="white"/>
<path d="M14.556 18.5875C14.548 18.5154 14.5399 18.4514 14.5079 18.3794C14.5079 18.3794 14.4999 18.3633 14.4999 18.3553C14.4919 18.3473 14.4919 18.3393 14.4839 18.3313L14.4759 18.3233C14.4679 18.3153 14.4679 18.3153 14.4599 18.3153L14.4519 18.3073C14.4439 18.3073 14.4439 18.2993 14.4359 18.2993H14.4279C14.3879 18.2833 14.3478 18.2673 14.2998 18.2593C14.2918 18.2593 14.2838 18.2593 14.2838 18.2593C14.2758 18.2593 14.2758 18.2593 14.2678 18.2593H14.2598C14.2518 18.2593 14.2438 18.2673 14.2278 18.2673C14.2197 18.2673 14.2197 18.2753 14.2117 18.2753L14.2037 18.2833C14.1957 18.2913 14.1957 18.2913 14.1877 18.2993L14.1797 18.3073V18.3153C14.1637 18.3393 14.1477 18.3633 14.1317 18.3874C14.0917 18.4434 14.0516 18.5074 14.0116 18.5635C13.9716 18.6195 13.9396 18.6675 13.8996 18.7236C13.8755 18.7556 13.8595 18.7796 13.8355 18.8116C13.8355 18.8196 13.8275 18.8196 13.8275 18.8276C13.8515 18.8356 13.8755 18.8356 13.8996 18.8436C13.9556 18.8516 14.0116 18.8596 14.0596 18.8677C14.1717 18.8837 14.2918 18.8917 14.4039 18.8837C14.4119 18.8837 14.4119 18.8837 14.4199 18.8837C14.4439 18.8436 14.4839 18.7956 14.5239 18.7316C14.548 18.6995 14.572 18.6675 14.588 18.6355C14.564 18.6275 14.556 18.6035 14.556 18.5875Z" fill="white"/>
<path d="M14.1477 19.0599C14.1397 19.1479 14.0436 19.3721 13.8915 19.5882C13.7635 19.7643 13.6834 19.8123 13.6674 19.8123C13.6034 19.8043 13.5473 19.6522 13.4993 19.5001C13.4833 19.4361 13.4593 19.3801 13.4513 19.324C13.4193 19.212 13.4112 19.0519 13.4193 18.9558C13.5473 19.0279 13.7715 19.0439 14.0917 19.0439C14.1077 19.0519 14.1317 19.0519 14.1477 19.0599Z" fill="white"/>
<path d="M13.9236 18.3395C13.8675 18.4275 13.8115 18.5076 13.7555 18.5876C13.7234 18.6277 13.6994 18.6677 13.6674 18.7077C13.6514 18.7317 13.6274 18.7557 13.6114 18.7798C13.5633 18.7718 13.5233 18.7557 13.4753 18.7477C13.4353 18.7397 13.4032 18.7237 13.3632 18.7077C13.3552 18.7077 13.3472 18.6997 13.3392 18.6997C13.3312 18.6917 13.3232 18.6757 13.3152 18.6677C13.3312 18.6437 13.3392 18.6117 13.3552 18.5876C13.3792 18.5396 13.4032 18.4916 13.4353 18.4436C13.4833 18.3635 13.5393 18.2755 13.6274 18.2194C13.6354 18.2194 13.6354 18.2114 13.6434 18.2114C13.6754 18.1954 13.7074 18.1794 13.7475 18.1714C13.7555 18.1714 13.7795 18.1714 13.7955 18.1714H13.8035C13.8035 18.1714 13.8035 18.1714 13.8115 18.1714C13.8195 18.1714 13.8275 18.1794 13.8435 18.1794C13.8435 18.1794 13.8515 18.1794 13.8515 18.1874C13.8595 18.1954 13.8675 18.1954 13.8755 18.2034C13.8595 18.1954 13.8915 18.2274 13.8915 18.2194C13.9076 18.2674 13.9156 18.2915 13.9236 18.3395Z" fill="white"/>
<path d="M13.4912 18.1074C13.3871 18.1874 13.315 18.2995 13.259 18.4196C13.227 18.4836 13.195 18.5477 13.163 18.6117C13.163 18.6197 13.1549 18.6277 13.1549 18.6277C13.1229 18.6197 13.0909 18.6117 13.0669 18.6037C13.0349 18.5957 13.0029 18.5797 12.9708 18.5717C12.9548 18.5637 12.9468 18.5557 12.9308 18.5477C12.9628 18.4916 12.9948 18.4356 13.0349 18.3796C13.0829 18.3075 13.1389 18.2275 13.195 18.1634C13.219 18.1394 13.243 18.1074 13.267 18.0914C13.299 18.0754 13.3311 18.0754 13.3711 18.0834C13.4111 18.0834 13.4511 18.0834 13.4831 18.0994C13.4751 18.0994 13.4831 18.1074 13.4912 18.1074Z" fill="white"/>
<path d="M13.3309 19.4681C13.3229 19.4761 13.3229 19.4761 13.3149 19.4841H13.3069C13.2829 19.4841 13.2589 19.4921 13.2349 19.4921C13.1868 19.4921 13.1388 19.5001 13.0908 19.4921C13.0668 19.4921 13.0427 19.4841 13.0267 19.4681C13.0107 19.4441 13.0027 19.396 12.9947 19.364C12.9627 19.1879 12.9627 19.0118 12.9787 18.8357C13.0668 18.8677 13.1628 18.8917 13.2589 18.9077C13.2349 19.0678 13.2749 19.3 13.2909 19.364C13.3149 19.396 13.3229 19.4361 13.3309 19.4681Z" fill="white"/>
<path d="M13.043 18.0511C12.963 18.1472 12.8909 18.2513 12.8269 18.3633C12.8029 18.4034 12.7709 18.4514 12.7468 18.4994C12.7148 18.4914 12.6828 18.4754 12.6588 18.4594C12.6348 18.4434 12.6108 18.4274 12.5947 18.4114C12.5867 18.4034 12.5707 18.3953 12.5627 18.3873C12.5627 18.3873 12.5547 18.3873 12.5547 18.3793C12.5627 18.3553 12.5787 18.3393 12.5787 18.3233C12.5947 18.2833 12.6108 18.2513 12.6348 18.2192C12.6748 18.1552 12.7148 18.0912 12.7628 18.0271C12.7789 18.0031 12.7949 17.9791 12.8269 17.9711C12.8509 17.9631 12.8829 17.9711 12.9069 17.9711C12.955 17.9791 13.003 18.0111 13.043 18.0511Z" fill="white"/>
<path d="M12.4266 18.4755C12.4266 18.4675 12.4346 18.4675 12.4266 18.4755C12.4587 18.5075 12.4827 18.5315 12.5147 18.5555C12.5307 18.5635 12.5387 18.5795 12.5547 18.5876C12.5547 18.5876 12.5547 18.5876 12.5547 18.5956C12.5227 18.7316 12.4987 18.8757 12.4987 19.0198C12.4987 19.0278 12.4907 19.0278 12.4907 19.0198C12.4507 18.8517 12.4026 18.5796 12.4266 18.4755Z" fill="white"/>
<path d="M12.8189 18.7718C12.8029 18.8919 12.7949 19.012 12.8029 19.132C12.8029 19.1961 12.8109 19.2601 12.8189 19.3321C12.8029 19.3321 12.7869 19.3321 12.7709 19.3321H12.7629H12.7548C12.7388 19.3241 12.7388 19.3241 12.7228 19.3161C12.7068 19.3081 12.6908 19.2841 12.6748 19.2601C12.6428 19.2041 12.6348 19.14 12.6348 19.076C12.6268 18.9559 12.6428 18.8278 12.6668 18.7078C12.6828 18.7158 12.7068 18.7238 12.7308 18.7318C12.7629 18.7478 12.7869 18.7638 12.8189 18.7718Z" fill="white"/>
<g opacity="0.8">
<path opacity="0.8" d="M15.973 25.0153C15.4286 25.0153 14.9163 24.9833 14.484 24.9513L14.364 24.9433L14.2439 24.9273C14.1879 24.9193 14.1238 24.9113 14.0518 24.9033C13.6355 24.8552 12.859 24.7752 12.0025 24.3749L11.8664 24.3109L11.7464 24.2389C10.0973 23.3103 9.48897 21.9254 9.15277 21.181C9.12875 21.1329 9.10474 21.0769 9.08072 21.0209C8.91262 20.6767 8.80855 20.3725 8.7205 20.0843L8.70449 20.0203L8.68848 19.9562C8.44833 19.1077 8.3923 18.3793 8.49636 17.6508C8.60843 16.9224 8.87259 16.266 9.34488 15.5695L9.58503 15.1773C9.63306 15.0972 9.66508 15.0092 9.6891 14.9211C9.87321 14.0086 10.2895 13.3602 10.4976 13.048C10.5536 12.6717 10.6497 12.3035 10.7778 11.9433L10.7938 11.8873L10.8178 11.8312C10.8178 11.8232 10.8258 11.8072 10.8338 11.7832C10.9299 11.503 11.146 10.8546 11.6983 10.1662L11.9065 9.92605L12.1226 9.73393C12.6669 9.23763 13.3233 8.8694 14.0278 8.66127C14.42 8.5412 14.8283 8.46915 15.2445 8.44514H15.2845H15.3406C15.4126 8.44514 15.4847 8.43713 15.5487 8.43713C15.8049 8.43713 16.061 8.46115 16.3172 8.50117C16.4773 8.52519 16.6374 8.50918 16.7895 8.44514C17.2297 8.26103 17.686 8.14095 18.1583 8.07691C18.1983 8.06891 18.2304 8.06891 18.2624 8.0609C18.3344 8.0529 18.4545 8.03689 18.5986 8.02088C18.8467 7.99686 19.231 7.96484 19.6392 7.96484C20.4477 7.96484 21.1441 8.06891 21.7685 8.28504L21.8246 8.30105L21.8726 8.31706C23.2494 8.83738 23.9459 9.56583 24.4502 10.1982L24.4742 10.2302L24.5462 10.2943C25.0025 10.6465 25.3868 11.0868 25.6909 11.5751L25.787 11.7272L25.8671 11.8873C26.5395 13.2561 26.3233 14.5289 26.2433 15.0012L26.2353 15.0252C26.1792 15.3774 26.0832 15.7216 25.9631 16.0578C25.9151 16.378 25.843 16.6982 25.739 17.0024C25.5629 17.5467 25.2987 18.0671 24.9625 18.5313C24.7704 18.8035 24.5462 19.0677 24.3061 19.2998C24.218 19.3799 24.162 19.4919 24.146 19.612C24.138 19.6841 24.122 19.7561 24.114 19.8281C23.9139 20.8848 23.4576 21.6212 23.2655 21.9174L22.6971 22.7339C22.0087 23.5905 21.1922 24.1508 20.2076 24.455L19.9674 24.527L19.7113 24.5751C19.4151 24.6311 19.1189 24.6551 18.8147 24.6551C18.7747 24.6551 18.7347 24.6551 18.6866 24.6551H18.6706H18.6226H18.5666C18.4545 24.6551 18.3424 24.6791 18.2304 24.7111C17.5739 24.9193 16.8535 25.0153 15.973 25.0153Z" stroke="url(#paint1_linear_401_525)" stroke-width="1.0554" stroke-miterlimit="10"/>
<path opacity="0.8" d="M15.973 24.4471C15.4526 24.4471 14.9483 24.415 14.5321 24.383L14.436 24.375L14.34 24.359C14.2759 24.351 14.2039 24.343 14.1318 24.335C13.7236 24.295 13.0512 24.2149 12.2987 23.8627L12.1866 23.8067L12.0826 23.7506C10.6177 22.9421 10.0813 21.7334 9.76114 21.013C9.73712 20.9649 9.71311 20.9009 9.68109 20.8449C9.52899 20.5407 9.43294 20.2525 9.35289 19.9963L9.33688 19.9403L9.32087 19.8923C9.11274 19.1318 9.0567 18.4914 9.15276 17.859C9.24882 17.2346 9.48897 16.6503 9.90523 16.0419L10.2174 15.5376C10.2735 15.4495 10.3135 15.3455 10.3295 15.2414C10.4816 14.3769 10.8898 13.7685 11.0739 13.4883L11.098 13.4563L11.106 13.4403C11.106 13.4323 11.114 13.4243 11.114 13.4163C11.122 13.3763 11.138 13.3442 11.146 13.3122C11.194 12.96 11.2821 12.6078 11.4021 12.2716L11.4182 12.2235L11.4342 12.1755C11.4422 12.1595 11.4422 12.1435 11.4582 12.0955C11.5462 11.8313 11.7303 11.279 12.2106 10.6866L12.3868 10.4785L12.5629 10.3184C13.0352 9.88611 13.6035 9.56591 14.2119 9.3898C14.5641 9.28574 14.9163 9.2217 15.2845 9.20569H15.3166H15.3646C15.4286 9.20569 15.4847 9.19768 15.5407 9.19768C15.8049 9.19768 16.061 9.12564 16.3172 9.17367C16.5173 9.21369 16.7174 9.18968 16.9015 9.10963C17.2457 8.95754 17.71 8.9015 18.2384 8.82946C18.2784 8.82145 18.3104 8.82145 18.3344 8.81345C18.4065 8.80544 18.5185 8.78943 18.6466 8.78143C18.8787 8.75741 19.239 8.7334 19.6312 8.7334C20.3677 8.7334 20.992 8.82946 21.5444 9.01357L21.5924 9.02958L21.6324 9.04559C22.8492 9.50988 23.4496 10.1183 23.9219 10.7186C23.9459 10.7506 23.9779 10.7827 23.9859 10.7987L23.9939 10.8067L24.082 10.8867L24.09 10.9027C24.4982 11.2149 24.8424 11.5992 25.1066 12.0314L25.1866 12.1595L25.2507 12.2956C25.827 13.4723 25.6509 14.553 25.5709 15.0093L25.5629 15.0333C25.5068 15.3695 25.4188 15.6897 25.2987 16.0099C25.2587 16.3141 25.1866 16.6183 25.0906 16.9064C24.9305 17.3867 24.6983 17.843 24.4021 18.2593C24.202 18.5474 23.9619 18.8116 23.7057 19.0437C23.5856 19.1558 23.5056 19.2999 23.4896 19.468C23.4736 19.5881 23.4576 19.7001 23.4416 19.8202C23.2654 20.7568 22.8652 21.3972 22.6731 21.6854L22.2088 22.3578C21.5924 23.1503 20.864 23.6626 19.9834 23.9348L19.7833 23.9988L19.5672 24.0388C19.311 24.0868 19.0469 24.1109 18.7907 24.1029C18.7507 24.1029 18.7106 24.1029 18.6706 24.1029H18.6626H18.6386C18.6386 24.1029 18.6306 24.1029 18.6146 24.1029H18.5666H18.5185H18.4305C18.3104 24.1109 18.1903 24.1269 18.0703 24.1669C17.4859 24.359 16.8055 24.4471 15.973 24.4471Z" stroke="url(#paint2_linear_401_525)" stroke-width="1.0554" stroke-miterlimit="10"/>
<path opacity="0.8" d="M15.9732 23.7826C15.4769 23.7826 14.9886 23.7505 14.5803 23.7185L14.5003 23.7105L14.4202 23.7025C14.3482 23.6945 14.2681 23.6865 14.1881 23.6785C13.8039 23.6385 13.2195 23.5744 12.5631 23.2622L12.475 23.2222L12.395 23.1742C11.1382 22.4697 10.6739 21.4291 10.3698 20.7407C10.3457 20.6847 10.3137 20.6126 10.2897 20.5566C10.1536 20.2844 10.0656 20.0282 9.99352 19.7881L9.97751 19.7481L9.9695 19.708C9.78539 19.0516 9.73736 18.4913 9.81741 17.963C9.89746 17.4266 10.1136 16.9223 10.4818 16.386L10.5298 16.322L10.5779 16.2579C10.6099 16.2179 10.6339 16.1779 10.6659 16.1459L10.85 15.8016C10.9141 15.6896 10.9541 15.5695 10.9701 15.4414C11.0902 14.673 11.4584 14.1206 11.6265 13.8645C11.6345 13.8484 11.6505 13.8324 11.6585 13.8244L11.6986 13.7684C11.7146 13.7364 11.7306 13.6963 11.7466 13.6483C11.7626 13.6003 11.7866 13.5282 11.8026 13.4642C11.8427 13.136 11.9227 12.8158 12.0348 12.5036L12.0508 12.4636L12.0668 12.4236C12.0748 12.3915 12.0908 12.3675 12.1068 12.3115C12.1869 12.0633 12.339 11.6071 12.7472 11.1108L12.8833 10.9427L13.0274 10.8146C13.4276 10.4464 13.9079 10.1822 14.4282 10.0221C14.7324 9.93404 15.0366 9.878 15.3568 9.86199H15.3808H15.4209C15.4689 9.86199 15.5169 9.86199 15.573 9.86199C15.8451 9.86199 16.1093 9.89401 16.3734 9.96605C16.5976 10.0221 16.8377 9.99807 17.0459 9.89401C17.3821 9.73391 17.8303 9.5578 18.3507 9.49376C18.3827 9.48576 18.4147 9.48576 18.4387 9.47775C18.5028 9.46975 18.6068 9.45374 18.7349 9.44573C18.951 9.42172 19.2952 9.39771 19.6555 9.39771C20.3119 9.39771 20.8642 9.47775 21.3525 9.64586L21.3845 9.66187L21.4165 9.67788C22.5372 10.1021 23.0335 10.6545 23.4178 11.1428C23.5058 11.2468 23.5138 11.2629 23.5699 11.3189L23.6419 11.3829L23.6659 11.4149C23.85 11.559 24.2263 11.8552 24.5545 12.3915L24.6185 12.4956L24.6746 12.5997C25.1629 13.5843 25.0108 14.4808 24.9387 14.9131L24.9307 14.9371C24.8827 15.2493 24.7946 15.5615 24.6665 15.8577V15.8817C24.6345 16.1619 24.5705 16.442 24.4824 16.7062C24.3464 17.1305 24.1462 17.5227 23.8821 17.8829C23.6659 18.1951 23.4018 18.4753 23.1056 18.7154C23.0335 18.7715 22.9775 18.8435 22.9375 18.9236C22.8975 19.0036 22.8734 19.0917 22.8654 19.1797C22.8574 19.3558 22.8334 19.5319 22.8014 19.708C22.6493 20.5165 22.2971 21.0769 22.121 21.3571L21.7608 21.8854C21.2244 22.6058 20.584 23.0701 19.8076 23.3103L19.6475 23.3583L19.4714 23.3903C19.2552 23.4303 19.0311 23.4463 18.8069 23.4463C18.7749 23.4463 18.7349 23.4463 18.6949 23.4463H18.6869H18.6468C18.6388 23.4463 18.6228 23.4463 18.5828 23.4463H18.5428H18.5108L18.3266 23.4544C18.1986 23.4624 18.0705 23.4784 17.9504 23.5264C17.3981 23.7025 16.7657 23.7826 15.9732 23.7826Z" stroke="url(#paint3_linear_401_525)" stroke-width="0.9894" stroke-miterlimit="10"/>
<path opacity="0.8" d="M15.9731 23.1182C15.5008 23.1182 15.0285 23.0862 14.6363 23.0542L14.5803 23.0462L14.5242 23.0382C14.4442 23.0301 14.3561 23.0141 14.2761 23.0061C13.9159 22.9661 13.4196 22.9101 12.8592 22.6539L12.7952 22.6219L12.7311 22.5899C11.6665 21.9895 11.2742 21.109 10.9861 20.4686C10.954 20.4045 10.922 20.3325 10.898 20.2684C10.7779 20.0203 10.6979 19.7882 10.6338 19.588L10.6258 19.556L10.6018 19.532C10.2896 18.4273 10.4097 17.6508 11.0181 16.7623L11.0501 16.7143L11.0821 16.6662C11.1221 16.6182 11.1622 16.5622 11.2022 16.5141C11.2582 16.4421 11.3143 16.362 11.3783 16.29C11.4183 16.242 11.4503 16.1859 11.4744 16.1299L11.5464 15.9538C11.5784 15.8737 11.5944 15.7937 11.6024 15.7136C11.6665 15.0012 12.0107 14.4889 12.1788 14.2327C12.1948 14.2167 12.2108 14.1847 12.2188 14.1767L12.2588 14.1127L12.2748 14.0966C12.2989 14.0566 12.3389 13.9606 12.3709 13.8645C12.3869 13.8005 12.4189 13.6964 12.451 13.6083V13.6003C12.483 13.3042 12.555 13.008 12.6591 12.7278L12.6671 12.7038L12.6751 12.6798C12.6911 12.6317 12.7071 12.5917 12.7231 12.5357C12.7952 12.3196 12.9152 11.9513 13.2434 11.5431L13.3475 11.415L13.4516 11.3189C14.228 10.6145 15.0926 10.5585 15.3808 10.5345H15.3968H15.4288C15.4688 10.5345 15.5088 10.5345 15.5489 10.5345C15.8931 10.5345 16.2293 10.6065 16.5495 10.7426C16.6055 10.7666 16.6696 10.7746 16.7256 10.7746C16.7896 10.7746 16.8457 10.7586 16.9017 10.7266C17.1979 10.5585 17.7342 10.2463 18.4226 10.1662C18.4547 10.1582 18.4867 10.1582 18.5107 10.1582C18.5747 10.1502 18.6708 10.1422 18.7829 10.1262C18.991 10.1102 19.3032 10.0862 19.6394 10.0862C20.2237 10.0862 20.704 10.1582 21.1123 10.2943L21.1363 10.3023L21.1603 10.3103C22.1209 10.6705 22.5292 11.1268 22.8734 11.5591C22.9614 11.6792 23.0095 11.7272 23.1055 11.8233L23.1615 11.8713L23.2016 11.9193L23.2336 11.9433C23.3937 12.0714 23.6979 12.3035 23.97 12.7438L24.0181 12.8239L24.0581 12.9039C24.4503 13.7044 24.3223 14.4249 24.2582 14.8091V14.8331C24.2102 15.1133 24.1301 15.3934 24.0181 15.6576L24.0101 15.6816C24.0101 15.6896 24.0101 15.6896 24.0021 15.7056C23.9941 15.7297 23.9941 15.7537 23.9941 15.7777L23.9861 15.8097C23.962 16.0499 23.906 16.282 23.826 16.5061C23.7059 16.8664 23.5378 17.2026 23.3136 17.5067C23.0975 17.8189 22.8494 18.0751 22.5772 18.2752C22.4571 18.3633 22.3611 18.4753 22.289 18.6114C22.217 18.7475 22.1849 18.8916 22.1849 19.0437C22.1849 19.2278 22.1609 19.4199 22.1289 19.604C22.0008 20.2925 21.7127 20.7567 21.5285 21.0369L21.2644 21.4292C20.8001 22.0776 20.2478 22.4938 19.5833 22.7019L19.5513 22.7099C19.4953 22.726 19.4393 22.742 19.3832 22.75L19.3432 22.758C19.1591 22.79 18.975 22.806 18.7909 22.806C18.7588 22.806 18.7268 22.806 18.6948 22.806H18.6868C18.6708 22.806 18.6548 22.806 18.6388 22.806C18.6228 22.806 18.5907 22.806 18.5267 22.806H18.5027H18.4787C18.3906 22.806 18.2785 22.814 18.1825 22.814C18.0464 22.822 17.9183 22.846 17.7902 22.8941C17.3099 23.0382 16.7256 23.1182 15.9731 23.1182Z" stroke="url(#paint4_linear_401_525)" stroke-width="0.9235" stroke-miterlimit="10"/>
<path opacity="0.8" d="M15.973 22.4536C15.5167 22.4536 15.0684 22.4216 14.6842 22.3896H14.6441L14.6041 22.3816C14.5161 22.3656 14.42 22.3576 14.332 22.3496C13.9957 22.3095 13.5795 22.2695 13.1312 22.0534L13.0832 22.0294L13.0432 22.0054C12.1706 21.5171 11.8424 20.7806 11.5863 20.1882C11.5542 20.1162 11.5222 20.0442 11.4902 19.9641C11.3861 19.756 11.3141 19.5478 11.2581 19.3717L11.2501 19.3477L11.2421 19.3237C10.9859 18.4111 11.0739 17.8348 11.5703 17.1144L11.5943 17.0823L11.6183 17.0503C11.6583 16.9943 11.6983 16.9462 11.7384 16.8902C11.8664 16.7221 11.9945 16.554 12.1786 16.3539C12.2187 16.3139 12.2427 16.2498 12.2507 16.1938L12.2587 16.0097L12.2507 15.9376V15.8656C12.2667 15.2732 12.5629 14.8329 12.723 14.5928C12.739 14.5688 12.763 14.5368 12.771 14.5208L12.795 14.4807L12.819 14.4487C12.851 14.4007 12.9231 14.2326 12.9871 14.0805C13.0111 14.0164 13.0432 13.8884 13.0832 13.7843C13.0912 13.7523 13.0912 13.7443 13.0992 13.6722C13.1232 13.4241 13.1872 13.1759 13.2673 12.9438L13.2753 12.9278L13.2833 12.9118C13.3073 12.8477 13.3233 12.7997 13.3473 12.7357C13.4114 12.5435 13.5074 12.2634 13.7556 11.9512L13.8276 11.8631L13.8997 11.7991C14.444 11.3108 15.0284 11.2147 15.4286 11.1907H15.4446H15.4606C15.4927 11.1907 15.5167 11.1907 15.5487 11.1907C15.8849 11.1907 16.2932 11.3508 16.5093 11.4549C16.5573 11.4789 16.6134 11.4949 16.6694 11.4949C16.7254 11.4949 16.7815 11.4869 16.8375 11.4709C16.9736 11.4229 17.1017 11.3668 17.2217 11.3028C17.4939 11.1427 17.9422 10.8865 18.5025 10.8225C18.5345 10.8145 18.5586 10.8145 18.5826 10.8145C18.6386 10.8065 18.7267 10.7985 18.8387 10.7825C19.0308 10.7664 19.319 10.7424 19.6312 10.7424C20.1355 10.7424 20.5518 10.7985 20.888 10.9185L20.904 10.9265L20.92 10.9345C21.7205 11.2387 22.0407 11.5829 22.3449 11.9752C22.4409 12.1033 22.513 12.1913 22.6571 12.3194L22.6891 12.3514L22.7211 12.3834C22.7531 12.4155 22.7852 12.4395 22.8172 12.4635C22.9533 12.5676 23.1854 12.7517 23.3855 13.0879L23.4175 13.1359L23.4416 13.1919C23.7377 13.7923 23.6417 14.3607 23.5856 14.6969V14.7209C23.5456 14.953 23.4816 15.1772 23.3855 15.3933C23.3615 15.4493 23.3455 15.5054 23.3295 15.5694C23.3215 15.6094 23.3135 15.6495 23.3135 15.6815L23.3055 15.7135C23.2815 15.9056 23.2414 16.0977 23.1774 16.2818C23.0813 16.578 22.9372 16.8582 22.7611 17.1063C22.489 17.4906 22.1768 17.7628 21.8005 17.9389C21.7125 17.9789 21.6324 18.0429 21.5764 18.131C21.5204 18.211 21.4884 18.3151 21.4804 18.4112C21.4804 18.4512 21.4804 18.4832 21.4804 18.5072C21.4964 18.7954 21.5204 19.1236 21.4563 19.4678C21.3523 20.0281 21.1121 20.4044 20.936 20.6845C20.936 20.6845 20.1195 21.8212 19.3751 22.0534L19.295 22.0774L19.207 22.0934C19.0629 22.1174 18.9188 22.1334 18.7667 22.1334C18.7427 22.1334 18.7106 22.1334 18.6786 22.1334C18.6626 22.1334 18.6386 22.1334 18.6146 22.1334C18.5826 22.1334 18.5345 22.1334 18.4625 22.1414H18.4465H18.4305C18.1423 22.1495 17.8781 22.1575 17.7981 22.1735C17.7581 22.1815 17.718 22.1895 17.678 22.2055C17.2858 22.3736 16.7334 22.4536 15.973 22.4536Z" stroke="url(#paint5_linear_401_525)" stroke-width="0.8575" stroke-miterlimit="10"/>
<path opacity="0.8" d="M15.973 21.7974C15.5407 21.7974 15.1084 21.7654 14.7402 21.7414H14.7242H14.7082C14.6041 21.7254 14.5081 21.7174 14.42 21.7094C14.1078 21.6774 13.7796 21.6373 13.4274 21.4772L13.4034 21.4692L13.3794 21.4612C12.6989 21.077 12.4428 20.5086 12.2026 19.9563C12.1706 19.8762 12.1306 19.7962 12.0906 19.7161C12.0105 19.556 11.9465 19.3799 11.8985 19.2118V19.2038V19.1958C11.6903 18.4674 11.7464 18.0992 12.1306 17.5388L12.1386 17.5228L12.1466 17.5068C12.1946 17.4508 12.2347 17.3947 12.2747 17.3467C12.4588 17.1065 12.6189 16.8984 12.9791 16.5622C13.0031 16.5382 13.0271 16.5062 13.0352 16.4661C13.0432 16.4341 13.0432 16.3941 13.0271 16.3621L12.9631 16.178C12.9471 16.1219 12.9391 16.0579 12.9391 16.0019V15.9538V15.9138C12.9551 15.5136 13.1632 15.2014 13.2993 14.9932C13.3233 14.9612 13.3393 14.9292 13.3554 14.9052L13.3714 14.8812L13.3874 14.8572C13.4594 14.7611 13.5795 14.4809 13.6435 14.3128C13.6595 14.2568 13.6996 14.1207 13.7396 14.0166C13.7636 13.9366 13.7796 13.8565 13.7876 13.7765C13.8116 13.5764 13.8517 13.3762 13.9237 13.1921V13.1841V13.1761C13.9557 13.0961 13.9797 13.032 13.9957 12.968C14.0518 12.7999 14.1158 12.6078 14.2919 12.3916L14.3239 12.3516L14.356 12.3196C14.7402 11.9674 15.1645 11.9033 15.4847 11.8793H15.4927H15.5007C15.5167 11.8793 15.5407 11.8793 15.5567 11.8793C15.8769 11.8793 16.1171 12.0074 16.2771 12.0955L16.3172 12.1115H16.3252C16.3732 12.1355 16.4052 12.1595 16.4453 12.1755C16.5413 12.2235 16.6614 12.2395 16.7654 12.2075C16.9896 12.1515 17.3338 12.0154 17.5579 11.8873H17.5659C17.8061 11.7432 18.1743 11.5351 18.6066 11.4871C18.6306 11.4791 18.6626 11.4791 18.6866 11.4791C18.7347 11.4711 18.8227 11.4631 18.9188 11.4551C19.0949 11.4391 19.3671 11.415 19.6472 11.415C20.0795 11.415 20.4237 11.4631 20.6879 11.5511H20.6959H20.7039C21.3443 11.7913 21.5844 12.0474 21.8406 12.3836C21.9446 12.5197 22.0487 12.6478 22.2408 12.8159L22.2568 12.8319L22.2728 12.8479C22.3209 12.896 22.3769 12.944 22.4409 12.992C22.553 13.0801 22.7131 13.2001 22.8492 13.4323L22.8652 13.4563L22.8812 13.4803C23.0813 13.8966 23.0173 14.2888 22.9693 14.585V14.609C22.9372 14.7931 22.8892 14.9692 22.8092 15.1453C22.7691 15.2414 22.7371 15.3455 22.7211 15.4495C22.7131 15.5136 22.7051 15.5616 22.6971 15.6016L22.6891 15.6336C22.6731 15.7857 22.6411 15.9298 22.593 16.0739C22.521 16.306 22.4089 16.5222 22.2648 16.7223C22.0247 17.0745 21.7525 17.2907 21.3923 17.4027C21.2162 17.4588 21.0721 17.5708 20.976 17.7229L20.944 17.7629L20.912 17.803C20.8239 17.907 20.848 18.3073 20.864 18.5474C20.88 18.8116 20.896 19.0838 20.848 19.3399C20.7679 19.7802 20.5758 20.0764 20.4077 20.3325C20.4077 20.3325 19.7833 21.2371 19.215 21.4052L19.1749 21.4212L19.1349 21.4292C19.0308 21.4452 18.9188 21.4612 18.8067 21.4612C18.7827 21.4612 18.7587 21.4612 18.7267 21.4612C18.7026 21.4612 18.6786 21.4612 18.6466 21.4612C18.6066 21.4612 18.5505 21.4612 18.4545 21.4692H18.4465H18.4385C18.0622 21.4852 17.8301 21.4932 17.702 21.5173C17.614 21.5333 17.5339 21.5573 17.4539 21.5893C17.1097 21.7254 16.6454 21.7974 15.973 21.7974Z" stroke="url(#paint6_linear_401_525)" stroke-width="0.8575" stroke-miterlimit="10"/>
</g>
</g>
<defs>
<filter id="filter0_biiii_401_525" x="0.944661" y="0.666585" width="33.1111" height="33.1112" filterUnits="userSpaceOnUse" color-interpolation-filters="sRGB">
<feFlood flood-opacity="0" result="BackgroundImageFix"/>
<feGaussianBlur in="BackgroundImageFix" stdDeviation="0.5"/>
<feComposite in2="SourceAlpha" operator="in" result="effect1_backgroundBlur_401_525"/>
<feBlend mode="normal" in="SourceGraphic" in2="effect1_backgroundBlur_401_525" result="shape"/>
<feColorMatrix in="SourceAlpha" type="matrix" values="0 0 0 0 0 0 0 0 0 0 0 0 0 0 0 0 0 0 127 0" result="hardAlpha"/>
<feOffset dx="-2.66667" dy="2.66667"/>
<feGaussianBlur stdDeviation="1.33333"/>
<feComposite in2="hardAlpha" operator="arithmetic" k2="-1" k3="1"/>
<feColorMatrix type="matrix" values="0 0 0 0 0.8 0 0 0 0 0.8 0 0 0 0 0.8 0 0 0 0.35 0"/>
<feBlend mode="normal" in2="shape" result="effect2_innerShadow_401_525"/>
<feColorMatrix in="SourceAlpha" type="matrix" values="0 0 0 0 0 0 0 0 0 0 0 0 0 0 0 0 0 0 127 0" result="hardAlpha"/>
<feOffset dx="-1.33333" dy="1.33333"/>
<feGaussianBlur stdDeviation="0.666667"/>
<feComposite in2="hardAlpha" operator="arithmetic" k2="-1" k3="1"/>
<feColorMatrix type="matrix" values="0 0 0 0 1 0 0 0 0 1 0 0 0 0 1 0 0 0 0.35 0"/>
<feBlend mode="normal" in2="effect2_innerShadow_401_525" result="effect3_innerShadow_401_525"/>
<feColorMatrix in="SourceAlpha" type="matrix" values="0 0 0 0 0 0 0 0 0 0 0 0 0 0 0 0 0 0 127 0" result="hardAlpha"/>
<feOffset dx="2.66667" dy="-2.66667"/>
<feGaussianBlur stdDeviation="1.33333"/>
<feComposite in2="hardAlpha" operator="arithmetic" k2="-1" k3="1"/>
<feColorMatrix type="matrix" values="0 0 0 0 1 0 0 0 0 1 0 0 0 0 1 0 0 0 0.35 0"/>
<feBlend mode="normal" in2="effect3_innerShadow_401_525" result="effect4_innerShadow_401_525"/>
<feColorMatrix in="SourceAlpha" type="matrix" values="0 0 0 0 0 0 0 0 0 0 0 0 0 0 0 0 0 0 127 0" result="hardAlpha"/>
<feOffset dx="1.33333" dy="-1.33333"/>
<feGaussianBlur stdDeviation="0.666667"/>
<feComposite in2="hardAlpha" operator="arithmetic" k2="-1" k3="1"/>
<feColorMatrix type="matrix" values="0 0 0 0 0.8 0 0 0 0 0.8 0 0 0 0 0.8 0 0 0 0.35 0"/>
<feBlend mode="normal" in2="effect4_innerShadow_401_525" result="effect5_innerShadow_401_525"/>
</filter>
<radialGradient id="paint0_radial_401_525" cx="0" cy="0" r="1" gradientUnits="userSpaceOnUse" gradientTransform="translate(17.286 17.4903) rotate(90) scale(8.34477)">
<stop offset="0.1667" stop-color="#073183"/>
<stop offset="1" stop-color="#0054F9"/>
</radialGradient>
<linearGradient id="paint1_linear_401_525" x1="8.81686" y1="7.61544" x2="25.8376" y2="25.4796" gradientUnits="userSpaceOnUse">
<stop offset="0.2057" stop-color="#89D0FF"/>
<stop offset="0.3984" stop-color="#EBBF9A"/>
<stop offset="0.6015" stop-color="#EB8280"/>
<stop offset="0.8411" stop-color="#A281FF"/>
</linearGradient>
<linearGradient id="paint2_linear_401_525" x1="9.47688" y1="8.38417" x2="25.1681" y2="24.9204" gradientUnits="userSpaceOnUse">
<stop offset="0.2057" stop-color="#89D0FF"/>
<stop offset="0.3984" stop-color="#EBBF9A"/>
<stop offset="0.6015" stop-color="#EB80DA"/>
<stop offset="0.8411" stop-color="#A281FF"/>
</linearGradient>
<linearGradient id="paint3_linear_401_525" x1="10.1437" y1="9.04866" x2="24.5052" y2="24.2565" gradientUnits="userSpaceOnUse">
<stop offset="0.2057" stop-color="#89D0FF"/>
<stop offset="0.3984" stop-color="#EBBF9A"/>
<stop offset="0.6015" stop-color="#EB8280"/>
<stop offset="0.8411" stop-color="#A281FF"/>
</linearGradient>
<linearGradient id="paint4_linear_401_525" x1="10.8094" y1="9.71561" x2="23.8381" y2="23.5911" gradientUnits="userSpaceOnUse">
<stop offset="0.2057" stop-color="#89D0FF"/>
<stop offset="0.3984" stop-color="#EBBF9A"/>
<stop offset="0.6015" stop-color="#EB80E7"/>
<stop offset="0.8411" stop-color="#A281FF"/>
</linearGradient>
<linearGradient id="paint5_linear_401_525" x1="11.471" y1="10.3836" x2="23.1695" y2="22.9256" gradientUnits="userSpaceOnUse">
<stop offset="0.2057" stop-color="#89D0FF"/>
<stop offset="0.3984" stop-color="#EBBF9A"/>
<stop offset="0.6015" stop-color="#EB80D3"/>
<stop offset="0.8411" stop-color="#A281FF"/>
</linearGradient>
<linearGradient id="paint6_linear_401_525" x1="12.1414" y1="11.044" x2="22.5086" y2="22.2575" gradientUnits="userSpaceOnUse">
<stop offset="0.2057" stop-color="#89D0FF"/>
<stop offset="0.3984" stop-color="#EBBF9A"/>
<stop offset="0.6015" stop-color="#A280EB"/>
<stop offset="0.8411" stop-color="#A281FF"/>
</linearGradient>
<clipPath id="clip0_401_525">
<rect width="35" height="35" fill="white"/>
</clipPath>
</defs>
</svg>
