<svg width="35" height="35" viewBox="0 0 35 35" fill="none" xmlns="http://www.w3.org/2000/svg">
<g clip-path="url(#clip0_401_384)">
<circle cx="17.6389" cy="17.3611" r="17.3611" fill="#F6F6F6"/>
<path d="M4.09391 7.92794C10.7215 -1.59962 24.5182 -1.23609 30.6827 7.88409C27.6073 10.985 24.5292 14.0869 21.4401 17.2016C24.5419 20.3391 27.6137 23.4455 30.7283 26.5967C27.4602 30.9892 23.1655 33.4389 17.6888 33.5238C12.0075 33.6124 7.53373 31.1737 4.12771 26.6469C7.24693 23.5085 10.3269 20.4103 13.4141 17.3039C10.2684 14.139 7.18938 11.0408 4.09391 7.92702V7.92794ZM22.7188 7.7416C19.3685 5.70109 14.7532 5.99612 12.1454 7.76079C13.9074 9.5355 15.6766 11.3166 17.4221 13.0749C19.163 11.3212 20.9313 9.54007 22.7188 7.74069V7.7416ZM12.1208 26.6606C14.0051 28.5568 20.1422 28.5797 22.6668 26.7246C20.8984 24.9435 19.1219 23.155 17.3618 21.3821C15.641 23.1158 13.8809 24.8887 12.1199 26.6606H12.1208Z" fill="#1EB6A3"/>
<path d="M31.1538 25.8476C29.8759 24.557 28.6191 23.2956 27.3769 22.0205C27.3029 21.9447 27.2828 21.7383 27.3285 21.6314C28.5488 18.6985 28.5479 15.7711 27.3303 12.8373C27.2819 12.7204 27.3093 12.4966 27.3906 12.4126C28.6136 11.1594 29.8513 9.92177 31.0862 8.68139C31.1044 8.66312 31.1391 8.66221 31.1647 8.65308C34.326 13.4073 34.5296 20.6303 31.1519 25.8476H31.1538Z" fill="#1EB6A3"/>
<path d="M3.67188 25.8378C0.345316 20.7219 0.451268 13.4942 3.6664 8.63135C3.75682 8.71173 3.84907 8.7848 3.93219 8.86791C5.06936 10.0115 6.19922 11.1605 7.34461 12.294C7.5483 12.4959 7.59123 12.6475 7.47614 12.9243C6.28325 15.775 6.29056 18.6375 7.46335 21.4909C7.58301 21.7814 7.55378 21.944 7.33182 22.1623C6.10971 23.3698 4.90495 24.5965 3.67279 25.8387L3.67188 25.8378Z" fill="#1EB6A3"/>
<g filter="url(#filter0_biiii_401_384)">
<circle cx="17.5002" cy="17.2221" r="13.8889" fill="white" fill-opacity="0.075"/>
</g>
<path d="M18 27C23.5228 27 28 22.5228 28 17C28 11.4772 23.5228 7 18 7C12.4772 7 8 11.4772 8 17C8 22.5228 12.4772 27 18 27Z" fill="#F0B90B"/>
<path d="M17.9764 9L19.9526 11.0238L14.9764 16L13.0002 14.0238L17.9764 9Z" fill="white"/>
<path d="M20.9764 12L22.9526 14.0238L14.9764 22L13.0002 20.0238L20.9764 12Z" fill="white"/>
<path d="M11.9761 15L13.9523 17.0238L11.9761 19L9.99989 17.0238L11.9761 15Z" fill="white"/>
<path d="M23.9757 15L25.952 17.0238L17.9757 25L15.9996 23.0238L23.9757 15Z" fill="white"/>
</g>
<defs>
<filter id="filter0_biiii_401_384" x="0.944661" y="0.666585" width="33.1111" height="33.1112" filterUnits="userSpaceOnUse" color-interpolation-filters="sRGB">
<feFlood flood-opacity="0" result="BackgroundImageFix"/>
<feGaussianBlur in="BackgroundImageFix" stdDeviation="0.5"/>
<feComposite in2="SourceAlpha" operator="in" result="effect1_backgroundBlur_401_384"/>
<feBlend mode="normal" in="SourceGraphic" in2="effect1_backgroundBlur_401_384" result="shape"/>
<feColorMatrix in="SourceAlpha" type="matrix" values="0 0 0 0 0 0 0 0 0 0 0 0 0 0 0 0 0 0 127 0" result="hardAlpha"/>
<feOffset dx="-2.66667" dy="2.66667"/>
<feGaussianBlur stdDeviation="1.33333"/>
<feComposite in2="hardAlpha" operator="arithmetic" k2="-1" k3="1"/>
<feColorMatrix type="matrix" values="0 0 0 0 0.8 0 0 0 0 0.8 0 0 0 0 0.8 0 0 0 0.35 0"/>
<feBlend mode="normal" in2="shape" result="effect2_innerShadow_401_384"/>
<feColorMatrix in="SourceAlpha" type="matrix" values="0 0 0 0 0 0 0 0 0 0 0 0 0 0 0 0 0 0 127 0" result="hardAlpha"/>
<feOffset dx="-1.33333" dy="1.33333"/>
<feGaussianBlur stdDeviation="0.666667"/>
<feComposite in2="hardAlpha" operator="arithmetic" k2="-1" k3="1"/>
<feColorMatrix type="matrix" values="0 0 0 0 1 0 0 0 0 1 0 0 0 0 1 0 0 0 0.35 0"/>
<feBlend mode="normal" in2="effect2_innerShadow_401_384" result="effect3_innerShadow_401_384"/>
<feColorMatrix in="SourceAlpha" type="matrix" values="0 0 0 0 0 0 0 0 0 0 0 0 0 0 0 0 0 0 127 0" result="hardAlpha"/>
<feOffset dx="2.66667" dy="-2.66667"/>
<feGaussianBlur stdDeviation="1.33333"/>
<feComposite in2="hardAlpha" operator="arithmetic" k2="-1" k3="1"/>
<feColorMatrix type="matrix" values="0 0 0 0 1 0 0 0 0 1 0 0 0 0 1 0 0 0 0.35 0"/>
<feBlend mode="normal" in2="effect3_innerShadow_401_384" result="effect4_innerShadow_401_384"/>
<feColorMatrix in="SourceAlpha" type="matrix" values="0 0 0 0 0 0 0 0 0 0 0 0 0 0 0 0 0 0 127 0" result="hardAlpha"/>
<feOffset dx="1.33333" dy="-1.33333"/>
<feGaussianBlur stdDeviation="0.666667"/>
<feComposite in2="hardAlpha" operator="arithmetic" k2="-1" k3="1"/>
<feColorMatrix type="matrix" values="0 0 0 0 0.8 0 0 0 0 0.8 0 0 0 0 0.8 0 0 0 0.35 0"/>
<feBlend mode="normal" in2="effect4_innerShadow_401_384" result="effect5_innerShadow_401_384"/>
</filter>
<clipPath id="clip0_401_384">
<rect width="35" height="35" fill="white"/>
</clipPath>
</defs>
</svg>
