<svg width="35" height="35" viewBox="0 0 35 35" fill="none" xmlns="http://www.w3.org/2000/svg">
<g clip-path="url(#clip0_401_405)">
<circle cx="17.6389" cy="17.3611" r="17.3611" fill="#F6F6F6"/>
<path d="M4.09391 7.92794C10.7215 -1.59962 24.5182 -1.23609 30.6827 7.88409C27.6073 10.985 24.5292 14.0869 21.4401 17.2016C24.5419 20.3391 27.6137 23.4455 30.7283 26.5967C27.4602 30.9892 23.1655 33.4389 17.6888 33.5238C12.0075 33.6124 7.53373 31.1737 4.12771 26.6469C7.24693 23.5085 10.3269 20.4103 13.4141 17.3039C10.2684 14.139 7.18938 11.0408 4.09391 7.92702V7.92794ZM22.7188 7.7416C19.3685 5.70109 14.7532 5.99612 12.1454 7.76079C13.9074 9.5355 15.6766 11.3166 17.4221 13.0749C19.163 11.3212 20.9313 9.54007 22.7188 7.74069V7.7416ZM12.1208 26.6606C14.0051 28.5568 20.1422 28.5797 22.6668 26.7246C20.8984 24.9435 19.1219 23.155 17.3618 21.3821C15.641 23.1158 13.8809 24.8887 12.1199 26.6606H12.1208Z" fill="#1EB6A3"/>
<path d="M31.1538 25.8476C29.8759 24.557 28.6191 23.2956 27.3769 22.0205C27.3029 21.9447 27.2828 21.7383 27.3285 21.6314C28.5488 18.6985 28.5479 15.7711 27.3303 12.8373C27.2819 12.7204 27.3093 12.4966 27.3906 12.4126C28.6136 11.1594 29.8513 9.92177 31.0862 8.68139C31.1044 8.66312 31.1391 8.66221 31.1647 8.65308C34.326 13.4073 34.5296 20.6303 31.1519 25.8476H31.1538Z" fill="#1EB6A3"/>
<path d="M3.67188 25.8378C0.345316 20.7219 0.451268 13.4942 3.6664 8.63135C3.75682 8.71173 3.84907 8.7848 3.93219 8.86791C5.06936 10.0115 6.19922 11.1605 7.34461 12.294C7.5483 12.4959 7.59123 12.6475 7.47614 12.9243C6.28325 15.775 6.29056 18.6375 7.46335 21.4909C7.58301 21.7814 7.55378 21.944 7.33182 22.1623C6.10971 23.3698 4.90495 24.5965 3.67279 25.8387L3.67188 25.8378Z" fill="#1EB6A3"/>
<g filter="url(#filter0_biiii_401_405)">
<circle cx="17.5002" cy="17.2221" r="13.8889" fill="white" fill-opacity="0.075"/>
</g>
<g clip-path="url(#clip1_401_405)">
<path d="M18 7C23.5233 7 28 11.4775 28 17C28 22.5233 23.5233 27 18 27C12.4775 27 8 22.5229 8 17C8 11.4775 12.4775 7 18 7Z" fill="#F5AC37"/>
<path d="M18.3687 17.7061H22.1685C22.2495 17.7061 22.2877 17.7061 22.2937 17.5999C22.3247 17.2134 22.3247 16.8246 22.2937 16.4376C22.2937 16.3624 22.2562 16.3314 22.1748 16.3314H14.6125C14.5189 16.3314 14.4937 16.3624 14.4937 16.4502V17.5626C14.4937 17.7061 14.4937 17.7061 14.6436 17.7061H18.3687ZM21.8692 15.0313C21.8801 15.003 21.8801 14.9719 21.8692 14.944C21.8058 14.8059 21.7307 14.674 21.6434 14.5503C21.512 14.3388 21.3572 14.1439 21.1807 13.9689C21.0975 13.8631 21.0012 13.7682 20.8932 13.6876C20.3523 13.2272 19.7092 12.9014 19.0181 12.7376C18.6693 12.6593 18.3129 12.622 17.9556 12.6251H14.5995C14.5059 12.6251 14.4933 12.6625 14.4933 12.7439V14.9625C14.4933 15.0561 14.4933 15.0813 14.6121 15.0813H21.8242C21.8242 15.0813 21.8868 15.0687 21.8994 15.0313H21.8688H21.8692ZM21.8692 19.0062C21.7631 18.9945 21.656 18.9945 21.5497 19.0062H14.6188C14.5252 19.0062 14.4937 19.0062 14.4937 19.1313V21.3004C14.4937 21.4003 14.4937 21.4254 14.6188 21.4254H17.8188C17.9718 21.4371 18.1248 21.4264 18.2747 21.3944C18.7391 21.3611 19.1958 21.2603 19.6314 21.0942C19.7898 21.0394 19.9428 20.9678 20.0872 20.8819H20.1309C20.8811 20.4917 21.4904 19.8788 21.8747 19.1264C21.8747 19.1264 21.9183 19.0319 21.8692 19.0071V19.0062ZM13.2377 22.55V22.5126V21.0564V20.5628V19.0939C13.2377 19.0125 13.2377 19.0004 13.1378 19.0004H11.7815C11.7064 19.0004 11.6753 19.0004 11.6753 18.9004V17.7129H13.1252C13.2062 17.7129 13.2377 17.7129 13.2377 17.6067V16.4318C13.2377 16.3566 13.2377 16.3381 13.1378 16.3381H11.7815C11.7064 16.3381 11.6753 16.3381 11.6753 16.2382V15.1384C11.6753 15.0696 11.6753 15.0511 11.7752 15.0511H13.1189C13.2125 15.0511 13.2377 15.0511 13.2377 14.9323V11.5636C13.2377 11.4637 13.2377 11.4385 13.3628 11.4385H18.0501C18.3903 11.452 18.7282 11.4893 19.0626 11.551C19.7516 11.6783 20.4135 11.9245 21.0187 12.2759C21.4202 12.5122 21.7897 12.7975 22.1186 13.126C22.3661 13.3829 22.5893 13.6611 22.7873 13.9572C22.9839 14.2573 23.1473 14.5782 23.2756 14.9134C23.2913 15.0007 23.375 15.0597 23.4623 15.0448H24.581C24.7246 15.0448 24.7246 15.0448 24.7308 15.1825V16.2076C24.7308 16.3075 24.6935 16.3327 24.5932 16.3327H23.7305C23.6432 16.3327 23.618 16.3327 23.6243 16.4453C23.6585 16.8259 23.6585 17.208 23.6243 17.5887C23.6243 17.6949 23.6243 17.7075 23.7436 17.7075H24.7304C24.7741 17.7638 24.7304 17.82 24.7304 17.8767C24.7367 17.9491 24.7367 18.0225 24.7304 18.0949V18.8514C24.7304 18.9576 24.6993 18.9891 24.6053 18.9891H23.4241C23.3417 18.9734 23.2616 19.026 23.2427 19.1079C22.9614 19.8392 22.5114 20.4949 21.93 21.0204C21.7177 21.2117 21.4944 21.3917 21.2613 21.5578C21.0112 21.7018 20.7677 21.8516 20.5112 21.9704C20.0391 22.1828 19.5441 22.3394 19.0361 22.4389C18.5537 22.5253 18.0645 22.5644 17.5736 22.5576H13.2359V22.5514L13.2377 22.55Z" fill="#FEFEFD"/>
</g>
</g>
<defs>
<filter id="filter0_biiii_401_405" x="0.944661" y="0.666585" width="33.1111" height="33.1112" filterUnits="userSpaceOnUse" color-interpolation-filters="sRGB">
<feFlood flood-opacity="0" result="BackgroundImageFix"/>
<feGaussianBlur in="BackgroundImageFix" stdDeviation="0.5"/>
<feComposite in2="SourceAlpha" operator="in" result="effect1_backgroundBlur_401_405"/>
<feBlend mode="normal" in="SourceGraphic" in2="effect1_backgroundBlur_401_405" result="shape"/>
<feColorMatrix in="SourceAlpha" type="matrix" values="0 0 0 0 0 0 0 0 0 0 0 0 0 0 0 0 0 0 127 0" result="hardAlpha"/>
<feOffset dx="-2.66667" dy="2.66667"/>
<feGaussianBlur stdDeviation="1.33333"/>
<feComposite in2="hardAlpha" operator="arithmetic" k2="-1" k3="1"/>
<feColorMatrix type="matrix" values="0 0 0 0 0.8 0 0 0 0 0.8 0 0 0 0 0.8 0 0 0 0.35 0"/>
<feBlend mode="normal" in2="shape" result="effect2_innerShadow_401_405"/>
<feColorMatrix in="SourceAlpha" type="matrix" values="0 0 0 0 0 0 0 0 0 0 0 0 0 0 0 0 0 0 127 0" result="hardAlpha"/>
<feOffset dx="-1.33333" dy="1.33333"/>
<feGaussianBlur stdDeviation="0.666667"/>
<feComposite in2="hardAlpha" operator="arithmetic" k2="-1" k3="1"/>
<feColorMatrix type="matrix" values="0 0 0 0 1 0 0 0 0 1 0 0 0 0 1 0 0 0 0.35 0"/>
<feBlend mode="normal" in2="effect2_innerShadow_401_405" result="effect3_innerShadow_401_405"/>
<feColorMatrix in="SourceAlpha" type="matrix" values="0 0 0 0 0 0 0 0 0 0 0 0 0 0 0 0 0 0 127 0" result="hardAlpha"/>
<feOffset dx="2.66667" dy="-2.66667"/>
<feGaussianBlur stdDeviation="1.33333"/>
<feComposite in2="hardAlpha" operator="arithmetic" k2="-1" k3="1"/>
<feColorMatrix type="matrix" values="0 0 0 0 1 0 0 0 0 1 0 0 0 0 1 0 0 0 0.35 0"/>
<feBlend mode="normal" in2="effect3_innerShadow_401_405" result="effect4_innerShadow_401_405"/>
<feColorMatrix in="SourceAlpha" type="matrix" values="0 0 0 0 0 0 0 0 0 0 0 0 0 0 0 0 0 0 127 0" result="hardAlpha"/>
<feOffset dx="1.33333" dy="-1.33333"/>
<feGaussianBlur stdDeviation="0.666667"/>
<feComposite in2="hardAlpha" operator="arithmetic" k2="-1" k3="1"/>
<feColorMatrix type="matrix" values="0 0 0 0 0.8 0 0 0 0 0.8 0 0 0 0 0.8 0 0 0 0.35 0"/>
<feBlend mode="normal" in2="effect4_innerShadow_401_405" result="effect5_innerShadow_401_405"/>
</filter>
<clipPath id="clip0_401_405">
<rect width="35" height="35" fill="white"/>
</clipPath>
<clipPath id="clip1_401_405">
<rect width="20" height="20" fill="white" transform="translate(8 7)"/>
</clipPath>
</defs>
</svg>
