<svg width="35" height="35" viewBox="0 0 35 35" fill="none" xmlns="http://www.w3.org/2000/svg">
<g clip-path="url(#clip0_401_475)">
<circle cx="17.6389" cy="17.3611" r="17.3611" fill="#F6F6F6"/>
<path d="M4.09391 7.92794C10.7215 -1.59962 24.5182 -1.23609 30.6827 7.88409C27.6073 10.985 24.5292 14.0869 21.4401 17.2016C24.5419 20.3391 27.6137 23.4455 30.7283 26.5967C27.4602 30.9892 23.1655 33.4389 17.6888 33.5238C12.0075 33.6124 7.53373 31.1737 4.12771 26.6469C7.24693 23.5085 10.3269 20.4103 13.4141 17.3039C10.2684 14.139 7.18938 11.0408 4.09391 7.92702V7.92794ZM22.7188 7.7416C19.3685 5.70109 14.7532 5.99612 12.1454 7.76079C13.9074 9.5355 15.6766 11.3166 17.4221 13.0749C19.163 11.3212 20.9313 9.54007 22.7188 7.74069V7.7416ZM12.1208 26.6606C14.0051 28.5568 20.1422 28.5797 22.6668 26.7246C20.8984 24.9435 19.1219 23.155 17.3618 21.3821C15.641 23.1158 13.8809 24.8887 12.1199 26.6606H12.1208Z" fill="#1EB6A3"/>
<path d="M31.1538 25.8476C29.8759 24.557 28.6191 23.2956 27.3769 22.0205C27.3029 21.9447 27.2828 21.7383 27.3285 21.6314C28.5488 18.6985 28.5479 15.7711 27.3303 12.8373C27.2819 12.7204 27.3093 12.4966 27.3906 12.4126C28.6136 11.1594 29.8513 9.92177 31.0862 8.68139C31.1044 8.66312 31.1391 8.66221 31.1647 8.65308C34.326 13.4073 34.5296 20.6303 31.1519 25.8476H31.1538Z" fill="#1EB6A3"/>
<path d="M3.67188 25.8378C0.345316 20.7219 0.451268 13.4942 3.6664 8.63135C3.75682 8.71173 3.84907 8.7848 3.93219 8.86791C5.06936 10.0115 6.19922 11.1605 7.34461 12.294C7.5483 12.4959 7.59123 12.6475 7.47614 12.9243C6.28325 15.775 6.29056 18.6375 7.46335 21.4909C7.58301 21.7814 7.55378 21.944 7.33182 22.1623C6.10971 23.3698 4.90495 24.5965 3.67279 25.8387L3.67188 25.8378Z" fill="#1EB6A3"/>
<g filter="url(#filter0_biiii_401_475)">
<circle cx="17.5002" cy="17.2221" r="13.8889" fill="white" fill-opacity="0.075"/>
</g>
<g clip-path="url(#clip1_401_475)">
<path d="M23.1042 13.769C22.7396 13.5427 22.2708 13.5427 21.8542 13.769L18.9375 15.6354L16.9583 16.8232L14.0937 18.6896C13.7292 18.9159 13.2604 18.9159 12.8437 18.6896L10.6042 17.2191C10.2396 16.9928 9.97917 16.5404 9.97917 16.0313V13.2034C9.97917 12.7509 10.1875 12.2984 10.6042 12.0156L12.8437 10.6016C13.2083 10.3754 13.6771 10.3754 14.0937 10.6016L16.3333 12.0722C16.6979 12.2984 16.9583 12.7509 16.9583 13.2599V15.1264L18.9375 13.8821V11.9591C18.9375 11.5066 18.7292 11.0541 18.3125 10.7713L14.1458 8.11304C13.7812 7.8868 13.3125 7.8868 12.8958 8.11304L8.625 10.8279C8.20833 11.0541 8 11.5066 8 11.9591V17.2756C8 17.7281 8.20833 18.1806 8.625 18.4634L12.8437 21.1217C13.2083 21.3479 13.6771 21.3479 14.0937 21.1217L16.9583 19.3118L18.9375 18.0675L21.8021 16.2576C22.1667 16.0313 22.6354 16.0313 23.0521 16.2576L25.2917 17.6716C25.6562 17.8978 25.9167 18.3503 25.9167 18.8593V21.6873C25.9167 22.1397 25.7083 22.5922 25.2917 22.875L23.1042 24.289C22.7396 24.5152 22.2708 24.5152 21.8542 24.289L19.6146 22.875C19.25 22.6488 18.9896 22.1963 18.9896 21.6873V19.8774L17.0104 21.1217V22.9881C17.0104 23.4406 17.2187 23.8931 17.6354 24.1759L21.8542 26.8342C22.2187 27.0604 22.6875 27.0604 23.1042 26.8342L27.3229 24.1759C27.6875 23.9496 27.9479 23.4972 27.9479 22.9881V17.615C27.9479 17.1625 27.7396 16.7101 27.3229 16.4273L23.1042 13.769Z" fill="#8247E5"/>
</g>
</g>
<defs>
<filter id="filter0_biiii_401_475" x="0.944661" y="0.666585" width="33.1111" height="33.1112" filterUnits="userSpaceOnUse" color-interpolation-filters="sRGB">
<feFlood flood-opacity="0" result="BackgroundImageFix"/>
<feGaussianBlur in="BackgroundImageFix" stdDeviation="0.5"/>
<feComposite in2="SourceAlpha" operator="in" result="effect1_backgroundBlur_401_475"/>
<feBlend mode="normal" in="SourceGraphic" in2="effect1_backgroundBlur_401_475" result="shape"/>
<feColorMatrix in="SourceAlpha" type="matrix" values="0 0 0 0 0 0 0 0 0 0 0 0 0 0 0 0 0 0 127 0" result="hardAlpha"/>
<feOffset dx="-2.66667" dy="2.66667"/>
<feGaussianBlur stdDeviation="1.33333"/>
<feComposite in2="hardAlpha" operator="arithmetic" k2="-1" k3="1"/>
<feColorMatrix type="matrix" values="0 0 0 0 0.8 0 0 0 0 0.8 0 0 0 0 0.8 0 0 0 0.35 0"/>
<feBlend mode="normal" in2="shape" result="effect2_innerShadow_401_475"/>
<feColorMatrix in="SourceAlpha" type="matrix" values="0 0 0 0 0 0 0 0 0 0 0 0 0 0 0 0 0 0 127 0" result="hardAlpha"/>
<feOffset dx="-1.33333" dy="1.33333"/>
<feGaussianBlur stdDeviation="0.666667"/>
<feComposite in2="hardAlpha" operator="arithmetic" k2="-1" k3="1"/>
<feColorMatrix type="matrix" values="0 0 0 0 1 0 0 0 0 1 0 0 0 0 1 0 0 0 0.35 0"/>
<feBlend mode="normal" in2="effect2_innerShadow_401_475" result="effect3_innerShadow_401_475"/>
<feColorMatrix in="SourceAlpha" type="matrix" values="0 0 0 0 0 0 0 0 0 0 0 0 0 0 0 0 0 0 127 0" result="hardAlpha"/>
<feOffset dx="2.66667" dy="-2.66667"/>
<feGaussianBlur stdDeviation="1.33333"/>
<feComposite in2="hardAlpha" operator="arithmetic" k2="-1" k3="1"/>
<feColorMatrix type="matrix" values="0 0 0 0 1 0 0 0 0 1 0 0 0 0 1 0 0 0 0.35 0"/>
<feBlend mode="normal" in2="effect3_innerShadow_401_475" result="effect4_innerShadow_401_475"/>
<feColorMatrix in="SourceAlpha" type="matrix" values="0 0 0 0 0 0 0 0 0 0 0 0 0 0 0 0 0 0 127 0" result="hardAlpha"/>
<feOffset dx="1.33333" dy="-1.33333"/>
<feGaussianBlur stdDeviation="0.666667"/>
<feComposite in2="hardAlpha" operator="arithmetic" k2="-1" k3="1"/>
<feColorMatrix type="matrix" values="0 0 0 0 0.8 0 0 0 0 0.8 0 0 0 0 0.8 0 0 0 0.35 0"/>
<feBlend mode="normal" in2="effect4_innerShadow_401_475" result="effect5_innerShadow_401_475"/>
</filter>
<clipPath id="clip0_401_475">
<rect width="35" height="35" fill="white"/>
</clipPath>
<clipPath id="clip1_401_475">
<rect width="20" height="18.9474" fill="white" transform="translate(8 8)"/>
</clipPath>
</defs>
</svg>
