<svg width="35" height="35" viewBox="0 0 35 35" fill="none" xmlns="http://www.w3.org/2000/svg">
<g clip-path="url(#clip0_401_595)">
<circle cx="17.6389" cy="17.3611" r="17.3611" fill="#F6F6F6"/>
<path d="M4.09391 7.92794C10.7215 -1.59962 24.5182 -1.23609 30.6827 7.88409C27.6073 10.985 24.5292 14.0869 21.4401 17.2016C24.5419 20.3391 27.6137 23.4455 30.7283 26.5967C27.4602 30.9892 23.1655 33.4389 17.6888 33.5238C12.0075 33.6124 7.53373 31.1737 4.12771 26.6469C7.24693 23.5085 10.3269 20.4103 13.4141 17.3039C10.2684 14.139 7.18938 11.0408 4.09391 7.92702V7.92794ZM22.7188 7.7416C19.3685 5.70109 14.7532 5.99612 12.1454 7.76079C13.9074 9.5355 15.6766 11.3166 17.4221 13.0749C19.163 11.3212 20.9313 9.54007 22.7188 7.74069V7.7416ZM12.1208 26.6606C14.0051 28.5568 20.1422 28.5797 22.6668 26.7246C20.8984 24.9435 19.1219 23.155 17.3618 21.3821C15.641 23.1158 13.8809 24.8887 12.1199 26.6606H12.1208Z" fill="#1EB6A3"/>
<path d="M31.1538 25.8476C29.8759 24.557 28.6191 23.2956 27.3769 22.0205C27.3029 21.9447 27.2828 21.7383 27.3285 21.6314C28.5488 18.6985 28.5479 15.7711 27.3303 12.8373C27.2819 12.7204 27.3093 12.4966 27.3906 12.4126C28.6136 11.1594 29.8513 9.92177 31.0862 8.68139C31.1044 8.66312 31.1391 8.66221 31.1647 8.65308C34.326 13.4073 34.5296 20.6303 31.1519 25.8476H31.1538Z" fill="#1EB6A3"/>
<path d="M3.67188 25.8378C0.345316 20.7219 0.451268 13.4942 3.6664 8.63135C3.75682 8.71173 3.84907 8.7848 3.93219 8.86791C5.06936 10.0115 6.19922 11.1605 7.34461 12.294C7.5483 12.4959 7.59123 12.6475 7.47614 12.9243C6.28325 15.775 6.29056 18.6375 7.46335 21.4909C7.58301 21.7814 7.55378 21.944 7.33182 22.1623C6.10971 23.3698 4.90495 24.5965 3.67279 25.8387L3.67188 25.8378Z" fill="#1EB6A3"/>
<g filter="url(#filter0_biiii_401_595)">
<circle cx="17.5002" cy="17.2221" r="13.8889" fill="white" fill-opacity="0.075"/>
</g>
<g clip-path="url(#clip1_401_595)">
<path d="M12.5573 9.60378C12.938 9.14428 13.2881 8.75547 13.6215 8.42558C7.99218 8.23412 9.63153 12.5493 7.78657 16.9293C5.67487 21.9779 8.03664 23.9013 11.5543 24.5022C11.0631 23.8816 10.6622 23.1866 10.3651 22.4403C8.09499 19.3976 9.01469 13.8512 12.5573 9.60378Z" fill="#EFE812"/>
<path d="M26.1023 14.9824C25.4375 16.8261 24.4757 18.5333 23.2598 20.0281C22.285 21.2839 21.1174 22.3564 19.8061 23.2004C18.2831 24.2234 16.5131 24.7565 14.7102 24.735C13.6576 24.745 12.606 24.6672 11.5649 24.5023C12.1429 25.2342 12.8595 25.8293 13.6683 26.249C18.7586 28.8587 19.0781 24.0133 24.4629 21.5538C27.486 20.1724 27.4971 17.4743 26.0995 14.9824" fill="#EDE70A"/>
<path d="M19.8063 9.94561C20.5432 10.0823 21.2533 10.3492 21.9069 10.735C23.6192 11.7556 25.062 13.2162 26.1025 14.9824C27.0194 12.2431 26.5916 10.0929 24.5882 9.70408C22.382 9.27698 20.6593 9.13854 19.0033 7.91321C16.9639 6.411 15.1745 6.89996 13.6241 8.42868L13.9603 8.4434C16.1109 8.5789 18.167 9.03251 19.7952 9.93972" fill="#EDE70A"/>
<path d="M12.5571 9.60371C9.01444 13.8511 8.09474 19.3975 10.3759 22.4402C9.84823 21.1194 9.61793 19.6865 9.7033 18.255C9.78866 16.8234 10.1873 15.4327 10.8677 14.1928C12.7877 10.7996 16.6416 9.32683 19.8063 9.94539C18.167 9.02639 16.1109 8.58456 13.9714 8.44907L13.6352 8.4314C13.2906 8.76718 12.9405 9.14421 12.5571 9.60371Z" fill="#DEC21C"/>
<path d="M21.9066 10.7291C21.2526 10.3453 20.5426 10.0804 19.806 9.94556C21.9622 11.1473 23.3931 13.1856 23.3931 16.408C23.3806 17.7683 23.0455 19.1033 22.4187 20.2903C21.7918 21.4773 20.8934 22.478 19.806 23.2003C21.118 22.3572 22.2858 21.2846 23.2598 20.028C24.4757 18.5333 25.4374 16.826 26.1022 14.9824C25.0624 13.214 23.6196 11.7513 21.9066 10.7291" fill="#E5CB22"/>
<path d="M19.8061 9.94544C16.6413 9.32688 12.7875 10.7996 10.8675 14.1781C10.1843 15.4196 9.78399 16.813 9.69861 18.2475C9.61322 19.6819 9.84508 21.1176 10.3757 22.4403C10.6718 23.1872 11.0727 23.8823 11.5649 24.5021C12.606 24.6671 13.6577 24.7449 14.7102 24.7348C16.5131 24.7563 18.2832 24.2233 19.8061 23.2002C20.8936 22.4781 21.7922 21.4774 22.4191 20.2904C23.046 19.1034 23.381 17.7682 23.3932 16.4079C23.3932 13.1855 21.9623 11.1472 19.8061 9.94544ZM19.4504 21.6686C18.28 22.4656 16.8594 22.7388 15.4994 22.4286C14.1394 22.1184 12.9506 21.25 12.1929 20.0132C10.6202 17.4418 11.3982 14.1222 13.7572 12.3549C16.3968 10.3666 19.7811 11.1502 21.0148 14.0102C22.2179 16.7967 21.8872 20.0161 19.4504 21.6686" fill="#CCA727"/>
</g>
</g>
<defs>
<filter id="filter0_biiii_401_595" x="0.944661" y="0.666585" width="33.1111" height="33.1112" filterUnits="userSpaceOnUse" color-interpolation-filters="sRGB">
<feFlood flood-opacity="0" result="BackgroundImageFix"/>
<feGaussianBlur in="BackgroundImageFix" stdDeviation="0.5"/>
<feComposite in2="SourceAlpha" operator="in" result="effect1_backgroundBlur_401_595"/>
<feBlend mode="normal" in="SourceGraphic" in2="effect1_backgroundBlur_401_595" result="shape"/>
<feColorMatrix in="SourceAlpha" type="matrix" values="0 0 0 0 0 0 0 0 0 0 0 0 0 0 0 0 0 0 127 0" result="hardAlpha"/>
<feOffset dx="-2.66667" dy="2.66667"/>
<feGaussianBlur stdDeviation="1.33333"/>
<feComposite in2="hardAlpha" operator="arithmetic" k2="-1" k3="1"/>
<feColorMatrix type="matrix" values="0 0 0 0 0.8 0 0 0 0 0.8 0 0 0 0 0.8 0 0 0 0.35 0"/>
<feBlend mode="normal" in2="shape" result="effect2_innerShadow_401_595"/>
<feColorMatrix in="SourceAlpha" type="matrix" values="0 0 0 0 0 0 0 0 0 0 0 0 0 0 0 0 0 0 127 0" result="hardAlpha"/>
<feOffset dx="-1.33333" dy="1.33333"/>
<feGaussianBlur stdDeviation="0.666667"/>
<feComposite in2="hardAlpha" operator="arithmetic" k2="-1" k3="1"/>
<feColorMatrix type="matrix" values="0 0 0 0 1 0 0 0 0 1 0 0 0 0 1 0 0 0 0.35 0"/>
<feBlend mode="normal" in2="effect2_innerShadow_401_595" result="effect3_innerShadow_401_595"/>
<feColorMatrix in="SourceAlpha" type="matrix" values="0 0 0 0 0 0 0 0 0 0 0 0 0 0 0 0 0 0 127 0" result="hardAlpha"/>
<feOffset dx="2.66667" dy="-2.66667"/>
<feGaussianBlur stdDeviation="1.33333"/>
<feComposite in2="hardAlpha" operator="arithmetic" k2="-1" k3="1"/>
<feColorMatrix type="matrix" values="0 0 0 0 1 0 0 0 0 1 0 0 0 0 1 0 0 0 0.35 0"/>
<feBlend mode="normal" in2="effect3_innerShadow_401_595" result="effect4_innerShadow_401_595"/>
<feColorMatrix in="SourceAlpha" type="matrix" values="0 0 0 0 0 0 0 0 0 0 0 0 0 0 0 0 0 0 127 0" result="hardAlpha"/>
<feOffset dx="1.33333" dy="-1.33333"/>
<feGaussianBlur stdDeviation="0.666667"/>
<feComposite in2="hardAlpha" operator="arithmetic" k2="-1" k3="1"/>
<feColorMatrix type="matrix" values="0 0 0 0 0.8 0 0 0 0 0.8 0 0 0 0 0.8 0 0 0 0.35 0"/>
<feBlend mode="normal" in2="effect4_innerShadow_401_595" result="effect5_innerShadow_401_595"/>
</filter>
<clipPath id="clip0_401_595">
<rect width="35" height="35" fill="white"/>
</clipPath>
<clipPath id="clip1_401_595">
<rect width="20" height="20" fill="white" transform="translate(7 7)"/>
</clipPath>
</defs>
</svg>
