<svg width="35" height="35" viewBox="0 0 35 35" fill="none" xmlns="http://www.w3.org/2000/svg">
<g clip-path="url(#clip0_401_486)">
<circle cx="17.6389" cy="17.3611" r="17.3611" fill="#F6F6F6"/>
<path d="M4.09391 7.92794C10.7215 -1.59962 24.5182 -1.23609 30.6827 7.88409C27.6073 10.985 24.5292 14.0869 21.4401 17.2016C24.5419 20.3391 27.6137 23.4455 30.7283 26.5967C27.4602 30.9892 23.1655 33.4389 17.6888 33.5238C12.0075 33.6124 7.53373 31.1737 4.12771 26.6469C7.24693 23.5085 10.3269 20.4103 13.4141 17.3039C10.2684 14.139 7.18938 11.0408 4.09391 7.92702V7.92794ZM22.7188 7.7416C19.3685 5.70109 14.7532 5.99612 12.1454 7.76079C13.9074 9.5355 15.6766 11.3166 17.4221 13.0749C19.163 11.3212 20.9313 9.54007 22.7188 7.74069V7.7416ZM12.1208 26.6606C14.0051 28.5568 20.1422 28.5797 22.6668 26.7246C20.8984 24.9435 19.1219 23.155 17.3618 21.3821C15.641 23.1158 13.8809 24.8887 12.1199 26.6606H12.1208Z" fill="#1EB6A3"/>
<path d="M31.1538 25.8476C29.8759 24.557 28.6191 23.2956 27.3769 22.0205C27.3029 21.9447 27.2828 21.7383 27.3285 21.6314C28.5488 18.6985 28.5479 15.7711 27.3303 12.8373C27.2819 12.7204 27.3093 12.4966 27.3906 12.4126C28.6136 11.1594 29.8513 9.92177 31.0862 8.68139C31.1044 8.66312 31.1391 8.66221 31.1647 8.65308C34.326 13.4073 34.5296 20.6303 31.1519 25.8476H31.1538Z" fill="#1EB6A3"/>
<path d="M3.67188 25.8378C0.345316 20.7219 0.451268 13.4942 3.6664 8.63135C3.75682 8.71173 3.84907 8.7848 3.93219 8.86791C5.06936 10.0115 6.19922 11.1605 7.34461 12.294C7.5483 12.4959 7.59123 12.6475 7.47614 12.9243C6.28325 15.775 6.29056 18.6375 7.46335 21.4909C7.58301 21.7814 7.55378 21.944 7.33182 22.1623C6.10971 23.3698 4.90495 24.5965 3.67279 25.8387L3.67188 25.8378Z" fill="#1EB6A3"/>
<g filter="url(#filter0_biiii_401_486)">
<circle cx="17.5002" cy="17.2221" r="13.8889" fill="white" fill-opacity="0.075"/>
</g>
<g clip-path="url(#clip1_401_486)">
<g clip-path="url(#clip2_401_486)">
<path d="M22.6443 8.75953C22.1238 9.27417 21.6469 9.83195 21.2231 10.4267L21.089 10.3836C20.3161 10.134 19.5151 9.97987 18.7079 9.92748C18.4648 9.90899 17.5578 9.90899 17.2617 9.92748C16.3672 9.98603 15.6815 10.1185 14.9023 10.3866C14.8712 10.399 14.8431 10.4082 14.8151 10.4175C14.3756 9.82579 13.8863 9.27109 13.3471 8.76261C15.934 7.4529 18.9603 7.29574 21.6687 8.3281C21.9586 8.43596 22.2422 8.5623 22.5196 8.6979L22.6443 8.75953Z" fill="#F00500"/>
<path d="M27.4687 20.4484C27.0759 21.5547 26.4869 22.5809 25.7233 23.4746C25.3088 23.9553 24.8506 24.396 24.3582 24.7966C23.205 25.7149 21.8586 26.3713 20.4218 26.7165C18.8322 27.0955 17.1741 27.0955 15.5846 26.7165C14.1447 26.3713 12.8014 25.7149 11.6482 24.7966C11.1557 24.396 10.6976 23.9553 10.2831 23.4746C8.08577 20.9075 7.41879 17.3821 8.53769 14.2049C8.74963 13.6163 9.01455 13.0493 9.33246 12.51C9.47894 12.2635 9.65971 11.9861 9.74698 11.8721C10.0462 13.1448 10.414 14.2635 10.5511 14.6672C10.5417 14.6887 10.5293 14.7134 10.5168 14.735C9.79061 16.1895 9.39791 17.5917 9.30441 19.0832C9.30441 19.1017 9.30129 19.1233 9.30129 19.1417C9.27636 19.5886 9.28882 19.8012 9.36362 20.0816C9.59738 20.9599 10.3173 21.9276 11.4456 22.8767C13.2938 24.4299 15.7997 25.5516 17.6977 25.681C19.6769 25.8135 22.5972 24.6702 24.5421 23C24.8475 22.7319 25.1342 22.4484 25.4023 22.1464C25.5955 21.9245 25.8822 21.5424 25.8604 21.5424C25.8542 21.5424 25.8604 21.5362 25.8729 21.53C25.8822 21.5239 25.8916 21.5146 25.8854 21.5085C25.8822 21.5054 25.8885 21.4961 25.8978 21.4931C25.9072 21.49 25.9134 21.4838 25.9103 21.4776C25.9072 21.4715 25.9103 21.4653 25.9228 21.4622C25.9321 21.4592 25.9352 21.4499 25.9321 21.4437C25.929 21.4376 25.9321 21.4314 25.9383 21.4314C25.9446 21.4314 25.9508 21.4222 25.9508 21.416C25.9508 21.4098 25.957 21.4006 25.9633 21.4006C25.9695 21.4006 25.9757 21.3944 25.9757 21.3883C25.9851 21.3636 26.0007 21.339 26.0163 21.3174C26.063 21.2465 26.25 20.9168 26.275 20.8613C26.4526 20.4638 26.5648 20.1094 26.6178 19.755C26.6427 19.5855 26.6583 19.2743 26.6458 19.2003C26.6427 19.188 26.6427 19.1664 26.6396 19.1325C26.6334 19.0709 26.6303 18.9784 26.624 18.886C26.6178 18.7473 26.6053 18.5531 26.596 18.4576C26.462 17.0585 26.1004 15.9152 25.4147 14.7041C25.3867 14.6579 25.3618 14.6117 25.3462 14.5747C25.3399 14.5655 25.3368 14.5562 25.3337 14.5501C25.4303 14.2635 25.8261 13.0647 26.1409 11.6934L26.1472 11.6995L26.1939 11.7612C26.275 11.869 26.49 12.1895 26.5866 12.3436C27.0261 13.0524 27.3689 13.8135 27.612 14.6086C28.1762 16.5223 28.1294 18.5624 27.4687 20.4484Z" fill="#F00500"/>
<path d="M23.4231 16.7657C23.4138 16.815 23.2673 16.9629 23.1208 17.0708C22.6907 17.382 21.9209 17.6717 21.1386 17.8104C20.6929 17.8905 20.2472 17.9028 20.1132 17.8381C20.0259 17.795 20.0135 17.7611 20.0446 17.6501C20.1101 17.419 20.322 17.1663 20.6524 16.929C20.8207 16.8088 21.5032 16.399 21.8212 16.2264C22.3448 15.9429 22.7686 15.7734 23.0554 15.7333C23.1458 15.721 23.2548 15.7179 23.2891 15.7333C23.3452 15.7549 23.4076 15.9182 23.4325 16.1155C23.445 16.2202 23.4387 16.6825 23.4231 16.7657Z" fill="black"/>
<path d="M16.0802 17.7857C16.0615 17.8227 15.968 17.8627 15.862 17.8782C15.756 17.8936 15.4319 17.8843 15.248 17.8627C14.5872 17.7765 13.886 17.5761 13.3748 17.3296C13.0881 17.1909 12.8824 17.0523 12.7297 16.9013L12.6424 16.8119L12.6331 16.6948C12.6175 16.4914 12.6206 16.1709 12.6455 16.0569C12.6611 15.9614 12.6954 15.8689 12.7421 15.7857C12.7671 15.7549 12.7671 15.7549 12.8793 15.7549C13.0164 15.7549 13.1317 15.7765 13.3187 15.835C13.7021 15.9521 14.2725 16.2356 14.9675 16.6486C15.541 16.9875 15.756 17.154 15.9212 17.382C16.0334 17.5238 16.1082 17.7241 16.0802 17.7857Z" fill="black"/>
<path d="M20.4931 22.0753C20.4931 22.0846 20.4557 22.2325 20.409 22.4081C20.3622 22.5838 20.3248 22.7256 20.3248 22.7317C20.2905 22.7348 20.2594 22.7379 20.2251 22.7348H20.1253L19.9882 23.0553C19.9134 23.2309 19.8448 23.3943 19.8355 23.4189L19.8168 23.4621L19.7513 23.3573L19.6859 23.2525V22.3989L19.6609 22.4051C19.608 22.4174 19.2308 22.4667 19.0657 22.4821C18.3831 22.5499 17.6974 22.5345 17.018 22.439C16.9089 22.4236 16.8154 22.4112 16.8123 22.4143C16.8091 22.4174 16.8123 22.6146 16.8185 22.8581L16.8278 23.2957L16.7749 23.3758C16.7468 23.4189 16.7188 23.4559 16.7188 23.459C16.7094 23.4682 16.6782 23.4189 16.6066 23.2772C16.5286 23.1293 16.4725 22.9721 16.432 22.8088L16.4102 22.7194L16.3136 22.7256L16.217 22.7348L16.192 22.6208C16.1796 22.5591 16.164 22.4636 16.1578 22.4112L16.1484 22.3126L16.0674 22.2417C16.0206 22.2017 15.9739 22.1616 15.9645 22.1554C15.9489 22.1431 15.9427 22.1215 15.9427 22.1031V22.0661L16.3323 22.0692L16.7219 22.0722L16.7343 22.1123L16.7468 22.1524L16.8808 22.1585C16.9556 22.1616 17.1925 22.1678 17.4044 22.1739L17.794 22.1832L17.8938 22.0291L17.9966 21.875H18.1275L18.1244 21.5545L18.1213 21.234L17.9499 21.1601C17.3982 20.9197 17.0741 20.6454 16.9525 20.3126C16.9276 20.2448 16.9276 20.2202 16.9213 19.912C16.9182 19.6069 16.9182 19.5792 16.94 19.5114C16.9837 19.3573 17.1052 19.2371 17.2611 19.197C17.3141 19.1816 17.4543 19.1816 18.1899 19.1816L19.0563 19.1847L19.1529 19.2309C19.2682 19.2864 19.3212 19.3265 19.3867 19.4128C19.4615 19.5114 19.4833 19.5884 19.4833 19.7764C19.4833 20.0445 19.4646 20.2756 19.4365 20.3681C19.396 20.4944 19.3337 20.6146 19.2558 20.7225C19.0999 20.9197 18.8163 21.1169 18.5576 21.2063L18.4828 21.234L18.4859 21.5576L18.4891 21.8812L18.5576 21.8873L18.6262 21.8935L18.7197 22.0322L18.8101 22.1709H19.2277C19.4584 22.1709 19.6609 22.1739 19.6796 22.177C19.7108 22.1832 19.717 22.1801 19.7482 22.1277L19.7856 22.0722H20.144C20.4121 22.0599 20.4931 22.0661 20.4931 22.0753Z" fill="black"/>
<path d="M18.8478 22.9599C18.7886 22.9938 18.7481 23.0092 18.7387 23.0031C18.7294 23 18.6857 22.963 18.639 22.9291L18.5548 22.8613L18.4676 22.9538C18.2774 23.1572 18.2712 23.1664 18.2151 23.1695C18.1278 23.1787 18.1091 23.1633 18.0032 23.0062C17.9471 22.926 17.9034 22.8582 17.9034 22.8582C17.9034 22.8582 17.8629 22.8521 17.8162 22.849L17.7289 22.8398L17.6884 22.923L17.6479 23.0062L17.5762 22.9846C17.5201 22.9661 17.464 22.9445 17.411 22.9199L17.3175 22.8737V22.698L18.1465 22.7011L18.9756 22.7042L18.9787 22.7874C18.9818 22.886 18.9849 22.8829 18.8478 22.9599Z" fill="black"/>
<path d="M26.6396 19.2002C26.6365 19.1879 26.6365 19.1663 26.6334 19.1324C25.8854 19.0523 23.7504 19.003 21.7682 20.6209C21.7682 20.6209 21.1292 17.7241 18.1372 17.7241C15.1451 17.7241 14.0356 20.6209 14.0356 20.6209C12.3588 18.8366 10.1148 18.966 9.30441 19.0831C9.30441 19.1016 9.30129 19.1232 9.30129 19.1417C9.27636 19.5885 9.28882 19.8012 9.36362 20.0816C9.59738 20.9599 10.3173 21.9275 11.4456 22.8767C13.2938 24.4298 15.7997 25.5515 17.6977 25.681C19.6769 25.8135 22.5972 24.6702 24.5421 22.9999C24.8475 22.7318 25.1342 22.4483 25.4023 22.1463C25.5955 21.9244 25.8822 21.5423 25.8604 21.5423C25.8542 21.5423 25.8604 21.5361 25.8729 21.53C25.8822 21.5238 25.8916 21.5146 25.8854 21.5084C25.8822 21.5053 25.8885 21.4961 25.8978 21.493C25.9072 21.4899 25.9134 21.4838 25.9103 21.4776C25.9072 21.4714 25.9103 21.4653 25.9228 21.4622C25.9321 21.4591 25.9352 21.4499 25.9321 21.4437C25.929 21.4375 25.9321 21.4314 25.9383 21.4314C25.9446 21.4314 25.9508 21.4221 25.9508 21.416C25.9508 21.4098 25.957 21.4005 25.9633 21.4005C25.9695 21.4005 25.9757 21.3944 25.9757 21.3882C25.9851 21.3636 26.0007 21.3389 26.0163 21.3173C26.063 21.2465 26.25 20.9167 26.275 20.8613C26.4526 20.4637 26.5648 20.1093 26.6178 19.7549C26.6365 19.5854 26.6521 19.2742 26.6396 19.2002ZM18.8478 22.9599C18.7886 22.9938 18.7481 23.0092 18.7387 23.003C18.7294 22.9999 18.6857 22.963 18.639 22.9291L18.5548 22.8613L18.4676 22.9537C18.2774 23.1571 18.2712 23.1663 18.2151 23.1694C18.1278 23.1787 18.1091 23.1633 18.0032 23.0061C17.9471 22.926 17.9034 22.8582 17.9034 22.8582C17.9034 22.8582 17.8629 22.852 17.8162 22.8489L17.7289 22.8397L17.6884 22.9229L17.6479 23.0061L17.5762 22.9845C17.5201 22.966 17.464 22.9445 17.411 22.9198L17.3175 22.8736V22.6979L18.1465 22.701L18.9756 22.7041L18.9787 22.7873C18.9818 22.8859 18.9849 22.8828 18.8478 22.9599ZM20.4062 22.4052C20.3594 22.5808 20.322 22.7226 20.322 22.7287C20.2877 22.7318 20.2566 22.7349 20.2223 22.7318H20.1225L19.9885 23.0554C19.9137 23.2311 19.8452 23.3944 19.8358 23.419L19.8171 23.4622L19.7517 23.3574L19.6862 23.2526V22.399L19.6613 22.4052C19.6083 22.4175 19.2312 22.4668 19.066 22.4822C18.3834 22.55 17.6977 22.5346 17.0183 22.4391C16.9092 22.4237 16.8157 22.4113 16.8126 22.4144C16.8095 22.4175 16.8126 22.6147 16.8188 22.8582L16.8282 23.2958L16.7752 23.3759C16.7471 23.419 16.7191 23.456 16.7191 23.4591C16.7097 23.4683 16.6786 23.419 16.6069 23.2773C16.529 23.1294 16.4729 22.9722 16.4323 22.8089L16.4105 22.7195L16.3139 22.7257L16.2173 22.7349L16.1924 22.6209C16.1799 22.5593 16.1643 22.4637 16.1581 22.4113L16.1487 22.3127L16.0677 22.2418C16.0209 22.2018 15.9742 22.1617 15.9648 22.1556C15.9493 22.1432 15.943 22.1217 15.943 22.1032V22.0662L16.3326 22.0693L16.7222 22.0723L16.7347 22.1124L16.7471 22.1525L16.8812 22.1586C16.956 22.1617 17.1928 22.1679 17.4048 22.174L17.7944 22.1833L17.8941 22.0292L17.9969 21.8751H18.1278L18.1247 21.5546L18.1216 21.2341L17.9502 21.1602C17.3985 20.9198 17.0744 20.6455 16.9528 20.3127C16.9279 20.2449 16.9279 20.2203 16.9217 19.9121C16.9186 19.607 16.9186 19.5793 16.9404 19.5115C16.984 19.3574 17.1056 19.2372 17.2614 19.1972C17.3144 19.1817 17.4546 19.1817 18.1902 19.1817L19.0566 19.1848L19.1532 19.2311C19.2686 19.2865 19.3215 19.3266 19.387 19.4129C19.4618 19.5115 19.4836 19.5885 19.4836 19.7765C19.4836 20.0446 19.4649 20.2757 19.4369 20.3682C19.3964 20.4945 19.334 20.6147 19.2561 20.7226C19.1003 20.9198 18.8166 21.117 18.558 21.2064L18.4831 21.2341L18.4863 21.5577L18.4894 21.8813L18.558 21.8874L18.6265 21.8936L18.72 22.0323L18.8104 22.171H19.228C19.4587 22.171 19.6613 22.174 19.68 22.1771C19.7111 22.1833 19.7174 22.1802 19.7485 22.1278L19.7859 22.0723H20.1444C20.4218 22.0723 20.5028 22.0754 20.5028 22.0847C20.4934 22.0816 20.4529 22.2326 20.4062 22.4052Z" fill="white"/>
<path d="M26.6147 18.8859C26.6084 18.7472 26.596 18.5531 26.5866 18.4576C26.4526 17.0585 26.0911 15.9152 25.4054 14.7041C25.3773 14.6579 25.3524 14.6116 25.3368 14.5747C25.3306 14.5654 25.3275 14.5562 25.3244 14.55C25.421 14.2634 25.8168 13.0646 26.1316 11.6933C26.5586 9.83198 26.8297 7.65633 26.0007 7.00301C26.0007 7.00301 24.567 6.89824 22.6471 8.75956C22.1266 9.2742 21.6497 9.83198 21.2259 10.4267L21.0918 10.3836C20.3189 10.134 19.5179 9.9799 18.7107 9.92751C18.4676 9.90902 17.5606 9.90902 17.2645 9.92751C16.37 9.98606 15.6843 10.1186 14.9052 10.3867C14.874 10.399 14.8459 10.4083 14.8179 10.4175C14.3784 9.82582 13.8891 9.27112 13.3499 8.76264C11.3521 6.89207 9.86542 6.99993 9.86542 6.99993C8.9865 7.67482 9.28571 9.94908 9.74075 11.872C10.04 13.1448 10.4077 14.2634 10.5449 14.6671C10.5355 14.6887 10.523 14.7133 10.5106 14.7349C9.78438 16.1895 9.39167 17.5916 9.29817 19.0831C10.1116 18.966 12.3526 18.8335 14.0325 20.6209C14.0325 20.6209 15.142 17.7241 18.1341 17.7241C21.1261 17.7241 21.7651 20.6209 21.7651 20.6209C23.7473 19.003 25.8822 19.0554 26.6303 19.1324C26.6271 19.0708 26.6209 18.9784 26.6147 18.8859ZM11.1339 13.5053C11.1339 13.5053 9.96827 10.624 10.2675 8.97836C10.3173 8.70101 10.4108 8.45756 10.5573 8.27266C10.5573 8.27266 11.8788 8.40209 14.0107 10.7442C14.0107 10.7442 13.6055 10.9383 13.0632 11.3512C13.0632 11.3512 13.0601 11.3543 13.0569 11.3543C12.4679 11.8012 11.7136 12.5099 11.1339 13.5053ZM16.0802 17.7858C16.0615 17.8227 15.968 17.8628 15.862 17.8782C15.756 17.8936 15.4319 17.8844 15.248 17.8628C14.5872 17.7765 13.886 17.5762 13.3748 17.3297C13.0881 17.191 12.8824 17.0523 12.7297 16.9013L12.6424 16.812L12.6331 16.6948C12.6175 16.4915 12.6206 16.171 12.6455 16.0569C12.6611 15.9614 12.6954 15.869 12.7421 15.7858C12.7671 15.7549 12.7671 15.7549 12.8793 15.7549C13.0164 15.7549 13.1317 15.7765 13.3187 15.8351C13.7021 15.9522 14.2725 16.2357 14.9675 16.6486C15.541 16.9876 15.756 17.154 15.9212 17.3821C16.0334 17.5238 16.1082 17.7241 16.0802 17.7858ZM23.4232 16.7657C23.4138 16.815 23.2673 16.963 23.1208 17.0708C22.6907 17.3821 21.9209 17.6717 21.1386 17.8104C20.6929 17.8905 20.2472 17.9029 20.1132 17.8381C20.0259 17.795 20.0135 17.7611 20.0446 17.6502C20.1101 17.419 20.322 17.1663 20.6524 16.9291C20.8207 16.8089 21.5033 16.399 21.8212 16.2264C22.3448 15.9429 22.7686 15.7734 23.0554 15.7334C23.1458 15.721 23.2549 15.718 23.2891 15.7334C23.3452 15.7549 23.4076 15.9183 23.4325 16.1155C23.445 16.2203 23.4387 16.6825 23.4232 16.7657ZM22.9058 11.3512L22.8995 11.3482C22.3759 10.9352 21.9832 10.7411 21.9832 10.7411C24.0434 8.39901 25.3181 8.26958 25.3181 8.26958C25.4584 8.45756 25.5488 8.69793 25.5986 8.97528C25.8885 10.6209 24.7633 13.5053 24.7633 13.5053C24.2927 12.6764 23.66 11.9429 22.9058 11.3512Z" fill="#FFA409"/>
<path d="M25.6017 8.97523C25.3586 8.94442 24.2086 8.93825 22.9058 11.3512L22.8995 11.3481C22.3759 10.9352 21.9832 10.741 21.9832 10.741C24.0434 8.39896 25.3181 8.26953 25.3181 8.26953C25.4615 8.45751 25.5519 8.69788 25.6017 8.97523Z" fill="#FF9300"/>
<path d="M24.7665 13.5052C24.2927 12.6731 23.6631 11.9428 22.9058 11.3511C24.2086 8.93814 25.3555 8.9443 25.6017 8.97512C25.8916 10.6238 24.7665 13.5052 24.7665 13.5052Z" fill="#FF8300"/>
<path d="M25.6488 8.98469C25.6332 8.98157 25.6176 8.97846 25.6021 8.97534L25.6488 8.98469Z" fill="#FF8300"/>
<path d="M14.0107 10.741C14.0107 10.741 13.6055 10.9352 13.0632 11.3481C13.0632 11.3481 13.0601 11.3512 13.0569 11.3512C11.7074 8.93517 10.5199 8.94442 10.2644 8.97523C10.3142 8.69788 10.4077 8.45443 10.5542 8.26953C10.5573 8.26953 11.8788 8.39896 14.0107 10.741Z" fill="#FF9300"/>
<path d="M13.0601 11.3511C12.4679 11.801 11.7136 12.5067 11.1339 13.5052C11.1339 13.5052 9.96827 10.6238 10.2675 8.97512C10.5199 8.9443 11.7105 8.93814 13.0601 11.3511Z" fill="#FF8300"/>
<path d="M10.2675 8.97534C10.2519 8.97846 10.2332 8.98157 10.2176 8.98469L10.2675 8.97534Z" fill="#FF8300"/>
<path d="M21.6123 15.1047C21.6123 15.1047 20.615 15.1663 20.7397 14.3959C20.8643 13.6255 21.6435 13.533 21.8617 13.5638C22.0798 13.5946 22.9525 13.9028 22.7967 14.55C22.6409 15.1971 22.4227 15.0738 22.298 15.1047C22.1733 15.1355 21.6123 15.1047 21.6123 15.1047Z" fill="white"/>
<path d="M14.2569 15.1047C14.2569 15.1047 13.2595 15.1663 13.3842 14.3959C13.5089 13.6255 14.288 13.533 14.5062 13.5638C14.7244 13.5946 15.5971 13.9028 15.4412 14.55C15.2854 15.1971 15.0672 15.0738 14.9426 15.1047C14.8179 15.1355 14.2569 15.1047 14.2569 15.1047Z" fill="white"/>
</g>
</g>
</g>
<defs>
<filter id="filter0_biiii_401_486" x="0.944661" y="0.666585" width="33.1111" height="33.1112" filterUnits="userSpaceOnUse" color-interpolation-filters="sRGB">
<feFlood flood-opacity="0" result="BackgroundImageFix"/>
<feGaussianBlur in="BackgroundImageFix" stdDeviation="0.5"/>
<feComposite in2="SourceAlpha" operator="in" result="effect1_backgroundBlur_401_486"/>
<feBlend mode="normal" in="SourceGraphic" in2="effect1_backgroundBlur_401_486" result="shape"/>
<feColorMatrix in="SourceAlpha" type="matrix" values="0 0 0 0 0 0 0 0 0 0 0 0 0 0 0 0 0 0 127 0" result="hardAlpha"/>
<feOffset dx="-2.66667" dy="2.66667"/>
<feGaussianBlur stdDeviation="1.33333"/>
<feComposite in2="hardAlpha" operator="arithmetic" k2="-1" k3="1"/>
<feColorMatrix type="matrix" values="0 0 0 0 0.8 0 0 0 0 0.8 0 0 0 0 0.8 0 0 0 0.35 0"/>
<feBlend mode="normal" in2="shape" result="effect2_innerShadow_401_486"/>
<feColorMatrix in="SourceAlpha" type="matrix" values="0 0 0 0 0 0 0 0 0 0 0 0 0 0 0 0 0 0 127 0" result="hardAlpha"/>
<feOffset dx="-1.33333" dy="1.33333"/>
<feGaussianBlur stdDeviation="0.666667"/>
<feComposite in2="hardAlpha" operator="arithmetic" k2="-1" k3="1"/>
<feColorMatrix type="matrix" values="0 0 0 0 1 0 0 0 0 1 0 0 0 0 1 0 0 0 0.35 0"/>
<feBlend mode="normal" in2="effect2_innerShadow_401_486" result="effect3_innerShadow_401_486"/>
<feColorMatrix in="SourceAlpha" type="matrix" values="0 0 0 0 0 0 0 0 0 0 0 0 0 0 0 0 0 0 127 0" result="hardAlpha"/>
<feOffset dx="2.66667" dy="-2.66667"/>
<feGaussianBlur stdDeviation="1.33333"/>
<feComposite in2="hardAlpha" operator="arithmetic" k2="-1" k3="1"/>
<feColorMatrix type="matrix" values="0 0 0 0 1 0 0 0 0 1 0 0 0 0 1 0 0 0 0.35 0"/>
<feBlend mode="normal" in2="effect3_innerShadow_401_486" result="effect4_innerShadow_401_486"/>
<feColorMatrix in="SourceAlpha" type="matrix" values="0 0 0 0 0 0 0 0 0 0 0 0 0 0 0 0 0 0 127 0" result="hardAlpha"/>
<feOffset dx="1.33333" dy="-1.33333"/>
<feGaussianBlur stdDeviation="0.666667"/>
<feComposite in2="hardAlpha" operator="arithmetic" k2="-1" k3="1"/>
<feColorMatrix type="matrix" values="0 0 0 0 0.8 0 0 0 0 0.8 0 0 0 0 0.8 0 0 0 0.35 0"/>
<feBlend mode="normal" in2="effect4_innerShadow_401_486" result="effect5_innerShadow_401_486"/>
</filter>
<clipPath id="clip0_401_486">
<rect width="35" height="35" fill="white"/>
</clipPath>
<clipPath id="clip1_401_486">
<rect width="20" height="20" fill="white" transform="translate(8 7)"/>
</clipPath>
<clipPath id="clip2_401_486">
<rect width="20" height="20" fill="white" transform="translate(8 7)"/>
</clipPath>
</defs>
</svg>
