<svg width="35" height="35" viewBox="0 0 35 35" fill="none" xmlns="http://www.w3.org/2000/svg">
<g clip-path="url(#clip0_401_569)">
<circle cx="17.6389" cy="17.3611" r="17.3611" fill="#F6F6F6"/>
<path d="M4.09391 7.92794C10.7215 -1.59962 24.5182 -1.23609 30.6827 7.88409C27.6073 10.985 24.5292 14.0869 21.4401 17.2016C24.5419 20.3391 27.6137 23.4455 30.7283 26.5967C27.4602 30.9892 23.1655 33.4389 17.6888 33.5238C12.0075 33.6124 7.53373 31.1737 4.12771 26.6469C7.24693 23.5085 10.3269 20.4103 13.4141 17.3039C10.2684 14.139 7.18938 11.0408 4.09391 7.92702V7.92794ZM22.7188 7.7416C19.3685 5.70109 14.7532 5.99612 12.1454 7.76079C13.9074 9.5355 15.6766 11.3166 17.4221 13.0749C19.163 11.3212 20.9313 9.54007 22.7188 7.74069V7.7416ZM12.1208 26.6606C14.0051 28.5568 20.1422 28.5797 22.6668 26.7246C20.8984 24.9435 19.1219 23.155 17.3618 21.3821C15.641 23.1158 13.8809 24.8887 12.1199 26.6606H12.1208Z" fill="#1EB6A3"/>
<path d="M31.1538 25.8476C29.8759 24.557 28.6191 23.2956 27.3769 22.0205C27.3029 21.9447 27.2828 21.7383 27.3285 21.6314C28.5488 18.6985 28.5479 15.7711 27.3303 12.8373C27.2819 12.7204 27.3093 12.4966 27.3906 12.4126C28.6136 11.1594 29.8513 9.92177 31.0862 8.68139C31.1044 8.66312 31.1391 8.66221 31.1647 8.65308C34.326 13.4073 34.5296 20.6303 31.1519 25.8476H31.1538Z" fill="#1EB6A3"/>
<path d="M3.67188 25.8378C0.345316 20.7219 0.451268 13.4942 3.6664 8.63135C3.75682 8.71173 3.84907 8.7848 3.93219 8.86791C5.06936 10.0115 6.19922 11.1605 7.34461 12.294C7.5483 12.4959 7.59123 12.6475 7.47614 12.9243C6.28325 15.775 6.29056 18.6375 7.46335 21.4909C7.58301 21.7814 7.55378 21.944 7.33182 22.1623C6.10971 23.3698 4.90495 24.5965 3.67279 25.8387L3.67188 25.8378Z" fill="#1EB6A3"/>
<g filter="url(#filter0_biiii_401_569)">
<circle cx="17.5002" cy="17.2221" r="13.8889" fill="white" fill-opacity="0.075"/>
</g>
<g clip-path="url(#clip1_401_569)">
<path d="M12.2825 23.1915C12.8226 23.8068 13.4796 24.3088 14.2153 24.6683C14.951 25.0278 15.7508 25.2376 16.5682 25.2856C17.5448 25.2338 18.4662 24.8165 19.1494 24.1168C20.4969 22.9626 21.9118 21.8893 23.3864 20.9025L24.2143 20.5616C24.5552 20.4155 25.1396 20.0746 25.6753 19.4415C26.2597 18.6622 26.3571 17.8343 26.3571 17.5421C26.2924 16.6205 25.9904 15.7313 25.4805 14.9609C24.15 17.3318 22.2431 19.3289 19.9362 20.7675C17.6293 22.2061 14.9969 23.0398 12.2825 23.1915V23.1915Z" fill="#0293D6"/>
<path d="M14.1334 9.3604C14.4969 8.97638 14.9349 8.6704 15.4205 8.46108C15.9061 8.25176 16.4292 8.14349 16.9581 8.14286C17.2931 8.12043 17.6293 8.16485 17.947 8.27355C18.2647 8.38224 18.5576 8.55303 18.8087 8.77598C20.2057 9.76565 21.8696 10.309 23.5814 10.3344C24.0197 10.3831 24.8964 10.5292 25.4808 11.2597C25.9191 11.8442 25.9678 12.4773 25.9678 12.7695C25.9286 13.522 25.764 14.2627 25.4808 14.961L14.1334 9.3604Z" fill="#EBE638"/>
<path d="M12.2825 23.1914C11.8442 23.1427 11.2597 22.9966 10.5779 22.7044C9.89611 22.4122 9.06819 22.0713 8.53247 21.146C8.19156 20.5616 8.14286 19.9772 8.14286 19.5876C8.15475 18.5543 8.40473 17.5377 8.87338 16.6168C9.33964 15.4785 9.65087 14.2827 9.7987 13.0616L10.0422 12.0876C10.1883 11.6005 10.2857 11.1135 10.6266 10.6265L11.1623 10.0421C12.0472 9.48579 13.0943 9.24547 14.1331 9.36028C12.7421 11.3502 11.8481 13.6444 11.5261 16.0509C11.2042 18.4573 11.4635 20.9059 12.2825 23.1914V23.1914Z" fill="#BAD147"/>
<path d="M14.1334 9.36035C14.0847 9.36035 16.7633 9.50646 18.4191 10.0909L19.7827 10.6753C19.247 10.6266 15.8379 10.4805 13.2568 13.0617C9.99377 16.3733 11.0652 20.9026 11.1139 21.1461C10.3577 20.1947 9.97655 18.9992 10.0425 17.7857C10.1066 16.1751 10.5031 14.5953 11.2071 13.1453C11.9111 11.6954 12.9074 10.4068 14.1334 9.36035V9.36035Z" fill="#78B650"/>
<path d="M20.6591 21.3896C21.5805 19.7147 21.9886 17.8058 21.8328 15.9005C21.6769 13.9953 20.9638 12.1781 19.7825 10.6753C21.1931 10.9111 22.4907 11.5941 23.4838 12.6233C24.0682 13.1104 24.7987 13.8409 25.4805 14.961C24.5176 17.5188 22.845 19.7489 20.6591 21.3896V21.3896Z" fill="#2F8260"/>
<path d="M22.2175 12.8182C21.4383 11.5032 20.3182 10.9188 19.8312 10.6753C19.4416 10.5779 15.789 9.99351 13.013 12.6721C10.7727 14.8149 10.6266 17.5909 10.6266 18.1266C10.6369 19.962 11.2533 21.7426 12.3799 23.1916C13.8276 23.4703 15.3152 23.4703 16.763 23.1916C17.4935 23.0455 19.1981 22.7532 20.6591 21.487C20.8539 21.2922 22.9968 19.2955 23.1429 16.1299C23.1429 15.5942 23.1429 14.2305 22.2175 12.8182ZM20.4643 19.8799C20.012 20.3718 19.4625 20.7644 18.8505 21.0327C18.2384 21.301 17.5773 21.4391 16.9091 21.4383C16.6169 21.4383 14.6688 21.3896 13.3052 19.7825C13.1104 19.539 12.1364 18.3701 12.1851 16.6169C12.2825 14.2792 14.1331 12.9156 14.5227 12.6234C14.8636 12.3799 15.6916 11.8442 16.9091 11.7955C17.2013 11.7468 18.224 11.6981 19.2468 12.2825C21.487 13.5 21.5844 16.4221 21.5844 16.6169C21.5844 17.1526 21.5844 18.6136 20.4643 19.8799Z" fill="#085229"/>
</g>
</g>
<defs>
<filter id="filter0_biiii_401_569" x="0.944661" y="0.666585" width="33.1111" height="33.1112" filterUnits="userSpaceOnUse" color-interpolation-filters="sRGB">
<feFlood flood-opacity="0" result="BackgroundImageFix"/>
<feGaussianBlur in="BackgroundImageFix" stdDeviation="1"/>
<feComposite in2="SourceAlpha" operator="in" result="effect1_backgroundBlur_401_569"/>
<feBlend mode="normal" in="SourceGraphic" in2="effect1_backgroundBlur_401_569" result="shape"/>
<feColorMatrix in="SourceAlpha" type="matrix" values="0 0 0 0 0 0 0 0 0 0 0 0 0 0 0 0 0 0 127 0" result="hardAlpha"/>
<feOffset dx="-2.66667" dy="2.66667"/>
<feGaussianBlur stdDeviation="1.33333"/>
<feComposite in2="hardAlpha" operator="arithmetic" k2="-1" k3="1"/>
<feColorMatrix type="matrix" values="0 0 0 0 0.8 0 0 0 0 0.8 0 0 0 0 0.8 0 0 0 0.35 0"/>
<feBlend mode="normal" in2="shape" result="effect2_innerShadow_401_569"/>
<feColorMatrix in="SourceAlpha" type="matrix" values="0 0 0 0 0 0 0 0 0 0 0 0 0 0 0 0 0 0 127 0" result="hardAlpha"/>
<feOffset dx="-1.33333" dy="1.33333"/>
<feGaussianBlur stdDeviation="0.666667"/>
<feComposite in2="hardAlpha" operator="arithmetic" k2="-1" k3="1"/>
<feColorMatrix type="matrix" values="0 0 0 0 1 0 0 0 0 1 0 0 0 0 1 0 0 0 0.35 0"/>
<feBlend mode="normal" in2="effect2_innerShadow_401_569" result="effect3_innerShadow_401_569"/>
<feColorMatrix in="SourceAlpha" type="matrix" values="0 0 0 0 0 0 0 0 0 0 0 0 0 0 0 0 0 0 127 0" result="hardAlpha"/>
<feOffset dx="2.66667" dy="-2.66667"/>
<feGaussianBlur stdDeviation="1.33333"/>
<feComposite in2="hardAlpha" operator="arithmetic" k2="-1" k3="1"/>
<feColorMatrix type="matrix" values="0 0 0 0 1 0 0 0 0 1 0 0 0 0 1 0 0 0 0.35 0"/>
<feBlend mode="normal" in2="effect3_innerShadow_401_569" result="effect4_innerShadow_401_569"/>
<feColorMatrix in="SourceAlpha" type="matrix" values="0 0 0 0 0 0 0 0 0 0 0 0 0 0 0 0 0 0 127 0" result="hardAlpha"/>
<feOffset dx="1.33333" dy="-1.33333"/>
<feGaussianBlur stdDeviation="0.666667"/>
<feComposite in2="hardAlpha" operator="arithmetic" k2="-1" k3="1"/>
<feColorMatrix type="matrix" values="0 0 0 0 0.8 0 0 0 0 0.8 0 0 0 0 0.8 0 0 0 0.35 0"/>
<feBlend mode="normal" in2="effect4_innerShadow_401_569" result="effect5_innerShadow_401_569"/>
</filter>
<clipPath id="clip0_401_569">
<rect width="35" height="35" fill="white"/>
</clipPath>
<clipPath id="clip1_401_569">
<rect width="18.2143" height="17.1429" fill="white" transform="translate(8.14286 8.14282)"/>
</clipPath>
</defs>
</svg>
