<svg width="35" height="35" viewBox="0 0 35 35" fill="none" xmlns="http://www.w3.org/2000/svg">
<g clip-path="url(#clip0_401_416)">
<circle cx="17.6389" cy="17.3611" r="17.3611" fill="#F6F6F6"/>
<path d="M4.09391 7.92794C10.7215 -1.59962 24.5182 -1.23609 30.6827 7.88409C27.6073 10.985 24.5292 14.0869 21.4401 17.2016C24.5419 20.3391 27.6137 23.4455 30.7283 26.5967C27.4602 30.9892 23.1655 33.4389 17.6888 33.5238C12.0075 33.6124 7.53373 31.1737 4.12771 26.6469C7.24693 23.5085 10.3269 20.4103 13.4141 17.3039C10.2684 14.139 7.18938 11.0408 4.09391 7.92702V7.92794ZM22.7188 7.7416C19.3685 5.70109 14.7532 5.99612 12.1454 7.76079C13.9074 9.5355 15.6766 11.3166 17.4221 13.0749C19.163 11.3212 20.9313 9.54007 22.7188 7.74069V7.7416ZM12.1208 26.6606C14.0051 28.5568 20.1422 28.5797 22.6668 26.7246C20.8984 24.9435 19.1219 23.155 17.3618 21.3821C15.641 23.1158 13.8809 24.8887 12.1199 26.6606H12.1208Z" fill="#1EB6A3"/>
<path d="M31.1538 25.8476C29.8759 24.557 28.6191 23.2956 27.3769 22.0205C27.3029 21.9447 27.2828 21.7383 27.3285 21.6314C28.5488 18.6985 28.5479 15.7711 27.3303 12.8373C27.2819 12.7204 27.3093 12.4966 27.3906 12.4126C28.6136 11.1594 29.8513 9.92177 31.0862 8.68139C31.1044 8.66312 31.1391 8.66221 31.1647 8.65308C34.326 13.4073 34.5296 20.6303 31.1519 25.8476H31.1538Z" fill="#1EB6A3"/>
<path d="M3.67188 25.8378C0.345316 20.7219 0.451268 13.4942 3.6664 8.63135C3.75682 8.71173 3.84907 8.7848 3.93219 8.86791C5.06936 10.0115 6.19922 11.1605 7.34461 12.294C7.5483 12.4959 7.59123 12.6475 7.47614 12.9243C6.28325 15.775 6.29056 18.6375 7.46335 21.4909C7.58301 21.7814 7.55378 21.944 7.33182 22.1623C6.10971 23.3698 4.90495 24.5965 3.67279 25.8387L3.67188 25.8378Z" fill="#1EB6A3"/>
<g filter="url(#filter0_biiii_401_416)">
<circle cx="17.5002" cy="17.2221" r="13.8889" fill="white" fill-opacity="0.075"/>
</g>
<g clip-path="url(#clip1_401_416)">
<path d="M18 27C23.5417 27 28 22.5417 28 17C28 11.4583 23.5417 7 18 7C12.4583 7 8 11.4583 8 17C8 22.5417 12.4583 27 18 27Z" fill="#2775CA"/>
<path d="M20.7502 18.5833C20.7502 17.125 19.8752 16.625 18.1252 16.4167C16.8752 16.25 16.6252 15.9167 16.6252 15.3333C16.6252 14.7499 17.0419 14.375 17.8752 14.375C18.6252 14.375 19.0419 14.625 19.2502 15.25C19.2919 15.375 19.4169 15.4583 19.5419 15.4583H20.2085C20.3752 15.4583 20.5002 15.3333 20.5002 15.1667V15.125C20.3335 14.2083 19.5835 13.5 18.6252 13.4167V12.4167C18.6252 12.25 18.5002 12.125 18.2919 12.0833H17.6669C17.5002 12.0833 17.3752 12.2083 17.3335 12.4167V13.375C16.0835 13.5417 15.2919 14.375 15.2919 15.4167C15.2919 16.7917 16.1252 17.3333 17.8752 17.5417C19.0419 17.75 19.4169 18 19.4169 18.6667C19.4169 19.3334 18.8335 19.7917 18.0419 19.7917C16.9585 19.7917 16.5835 19.3333 16.4585 18.7083C16.4169 18.5417 16.2919 18.4583 16.1669 18.4583H15.4585C15.2919 18.4583 15.1669 18.5833 15.1669 18.75V18.7917C15.3335 19.8333 16.0002 20.5833 17.3752 20.7917V21.7917C17.3752 21.9583 17.5002 22.0833 17.7085 22.125H18.3335C18.5002 22.125 18.6252 22 18.6669 21.7917V20.7917C19.9169 20.5833 20.7502 19.7083 20.7502 18.5833V18.5833Z" fill="white"/>
<path d="M15.8753 22.9583C12.6253 21.7917 10.9586 18.1667 12.167 14.9583C12.792 13.2083 14.167 11.875 15.8753 11.25C16.042 11.1667 16.1253 11.0417 16.1253 10.8333V10.25C16.1253 10.0833 16.042 9.95835 15.8753 9.91675C15.8336 9.91675 15.7503 9.91675 15.7086 9.95835C11.7503 11.2083 9.58356 15.4167 10.8336 19.375C11.5836 21.7083 13.3753 23.5 15.7086 24.25C15.8753 24.3333 16.042 24.25 16.0836 24.0833C16.1253 24.0417 16.1253 24 16.1253 23.9167V23.3333C16.1253 23.2083 16.0003 23.0417 15.8753 22.9583ZM20.292 9.95835C20.1253 9.87505 19.9586 9.95835 19.917 10.125C19.8753 10.1667 19.8753 10.2083 19.8753 10.2917V10.875C19.8753 11.0417 20.0003 11.2083 20.1253 11.2917C23.3753 12.4583 25.042 16.0833 23.8336 19.2917C23.2086 21.0417 21.8336 22.375 20.1253 23C19.9586 23.0833 19.8753 23.2083 19.8753 23.4167V24C19.8753 24.1667 19.9586 24.2917 20.1253 24.3333C20.167 24.3333 20.2503 24.3333 20.292 24.2917C24.2503 23.0417 26.417 18.8333 25.167 14.875C24.417 12.5 22.5836 10.7083 20.292 9.95835V9.95835Z" fill="white"/>
</g>
</g>
<defs>
<filter id="filter0_biiii_401_416" x="0.944661" y="0.666585" width="33.1111" height="33.1112" filterUnits="userSpaceOnUse" color-interpolation-filters="sRGB">
<feFlood flood-opacity="0" result="BackgroundImageFix"/>
<feGaussianBlur in="BackgroundImageFix" stdDeviation="0.5"/>
<feComposite in2="SourceAlpha" operator="in" result="effect1_backgroundBlur_401_416"/>
<feBlend mode="normal" in="SourceGraphic" in2="effect1_backgroundBlur_401_416" result="shape"/>
<feColorMatrix in="SourceAlpha" type="matrix" values="0 0 0 0 0 0 0 0 0 0 0 0 0 0 0 0 0 0 127 0" result="hardAlpha"/>
<feOffset dx="-2.66667" dy="2.66667"/>
<feGaussianBlur stdDeviation="1.33333"/>
<feComposite in2="hardAlpha" operator="arithmetic" k2="-1" k3="1"/>
<feColorMatrix type="matrix" values="0 0 0 0 0.8 0 0 0 0 0.8 0 0 0 0 0.8 0 0 0 0.35 0"/>
<feBlend mode="normal" in2="shape" result="effect2_innerShadow_401_416"/>
<feColorMatrix in="SourceAlpha" type="matrix" values="0 0 0 0 0 0 0 0 0 0 0 0 0 0 0 0 0 0 127 0" result="hardAlpha"/>
<feOffset dx="-1.33333" dy="1.33333"/>
<feGaussianBlur stdDeviation="0.666667"/>
<feComposite in2="hardAlpha" operator="arithmetic" k2="-1" k3="1"/>
<feColorMatrix type="matrix" values="0 0 0 0 1 0 0 0 0 1 0 0 0 0 1 0 0 0 0.35 0"/>
<feBlend mode="normal" in2="effect2_innerShadow_401_416" result="effect3_innerShadow_401_416"/>
<feColorMatrix in="SourceAlpha" type="matrix" values="0 0 0 0 0 0 0 0 0 0 0 0 0 0 0 0 0 0 127 0" result="hardAlpha"/>
<feOffset dx="2.66667" dy="-2.66667"/>
<feGaussianBlur stdDeviation="1.33333"/>
<feComposite in2="hardAlpha" operator="arithmetic" k2="-1" k3="1"/>
<feColorMatrix type="matrix" values="0 0 0 0 1 0 0 0 0 1 0 0 0 0 1 0 0 0 0.35 0"/>
<feBlend mode="normal" in2="effect3_innerShadow_401_416" result="effect4_innerShadow_401_416"/>
<feColorMatrix in="SourceAlpha" type="matrix" values="0 0 0 0 0 0 0 0 0 0 0 0 0 0 0 0 0 0 127 0" result="hardAlpha"/>
<feOffset dx="1.33333" dy="-1.33333"/>
<feGaussianBlur stdDeviation="0.666667"/>
<feComposite in2="hardAlpha" operator="arithmetic" k2="-1" k3="1"/>
<feColorMatrix type="matrix" values="0 0 0 0 0.8 0 0 0 0 0.8 0 0 0 0 0.8 0 0 0 0.35 0"/>
<feBlend mode="normal" in2="effect4_innerShadow_401_416" result="effect5_innerShadow_401_416"/>
</filter>
<clipPath id="clip0_401_416">
<rect width="35" height="35" fill="white"/>
</clipPath>
<clipPath id="clip1_401_416">
<rect width="20" height="20" fill="white" transform="translate(8 7)"/>
</clipPath>
</defs>
</svg>
