<svg width="35" height="35" viewBox="0 0 35 35" fill="none" xmlns="http://www.w3.org/2000/svg">
<g clip-path="url(#clip0_401_456)">
<circle cx="17.6389" cy="17.3611" r="17.3611" fill="#F6F6F6"/>
<path d="M4.09391 7.92794C10.7215 -1.59962 24.5182 -1.23609 30.6827 7.88409C27.6073 10.985 24.5292 14.0869 21.4401 17.2016C24.5419 20.3391 27.6137 23.4455 30.7283 26.5967C27.4602 30.9892 23.1655 33.4389 17.6888 33.5238C12.0075 33.6124 7.53373 31.1737 4.12771 26.6469C7.24693 23.5085 10.3269 20.4103 13.4141 17.3039C10.2684 14.139 7.18938 11.0408 4.09391 7.92702V7.92794ZM22.7188 7.7416C19.3685 5.70109 14.7532 5.99612 12.1454 7.76079C13.9074 9.5355 15.6766 11.3166 17.4221 13.0749C19.163 11.3212 20.9313 9.54007 22.7188 7.74069V7.7416ZM12.1208 26.6606C14.0051 28.5568 20.1422 28.5797 22.6668 26.7246C20.8984 24.9435 19.1219 23.155 17.3618 21.3821C15.641 23.1158 13.8809 24.8887 12.1199 26.6606H12.1208Z" fill="#1EB6A3"/>
<path d="M31.1538 25.8476C29.8759 24.557 28.6191 23.2956 27.3769 22.0205C27.3029 21.9447 27.2828 21.7383 27.3285 21.6314C28.5488 18.6985 28.5479 15.7711 27.3303 12.8373C27.2819 12.7204 27.3093 12.4966 27.3906 12.4126C28.6136 11.1594 29.8513 9.92177 31.0862 8.68139C31.1044 8.66312 31.1391 8.66221 31.1647 8.65308C34.326 13.4073 34.5296 20.6303 31.1519 25.8476H31.1538Z" fill="#1EB6A3"/>
<path d="M3.67188 25.8378C0.345316 20.7219 0.451268 13.4942 3.6664 8.63135C3.75682 8.71173 3.84907 8.7848 3.93219 8.86791C5.06936 10.0115 6.19922 11.1605 7.34461 12.294C7.5483 12.4959 7.59123 12.6475 7.47614 12.9243C6.28325 15.775 6.29056 18.6375 7.46335 21.4909C7.58301 21.7814 7.55378 21.944 7.33182 22.1623C6.10971 23.3698 4.90495 24.5965 3.67279 25.8387L3.67188 25.8378Z" fill="#1EB6A3"/>
<g filter="url(#filter0_biiii_401_456)">
<circle cx="17.5002" cy="17.2221" r="13.8889" fill="white" fill-opacity="0.075"/>
</g>
<g clip-path="url(#clip1_401_456)">
<path d="M24.3076 11.1974L23.7585 11.7465C25.0688 13.1795 25.7955 15.051 25.7955 16.9927C25.7955 18.9345 25.0688 20.806 23.7585 22.2389L24.3076 22.7881C25.7649 21.2074 26.5739 19.1362 26.5739 16.9863C26.5739 14.8364 25.7649 12.7652 24.3076 11.1846V11.1974Z" fill="#5A5564"/>
<path d="M12.7593 11.2449C14.1923 9.93455 16.0637 9.20788 18.0055 9.20788C19.9473 9.20788 21.8187 9.93455 23.2517 11.2449L23.8008 10.6958C22.2202 9.2385 20.149 8.42944 17.9991 8.42944C15.8492 8.42944 13.778 9.2385 12.1973 10.6958L12.7593 11.2449Z" fill="#5A5564"/>
<path d="M12.2451 22.2443C10.9363 20.8117 10.2106 18.9413 10.2106 17.0009C10.2106 15.0604 10.9363 13.1901 12.2451 11.7574L11.696 11.2083C10.2387 12.7889 9.42969 14.8601 9.42969 17.01C9.42969 19.1599 10.2387 21.2311 11.696 22.8118L12.2451 22.2443Z" fill="#5A5564"/>
<path d="M23.2447 22.7515C21.8117 24.0618 19.9402 24.7885 17.9985 24.7885C16.0567 24.7885 14.1852 24.0618 12.7523 22.7515L12.2031 23.3006C13.7838 24.7579 15.855 25.5669 18.0049 25.5669C20.1548 25.5669 22.226 24.7579 23.8066 23.3006L23.2447 22.7515Z" fill="#5A5564"/>
<path d="M21.7157 15.1443L21.7156 15.1439C21.6528 14.4886 21.3312 14.0376 20.8502 13.7447C20.4399 13.4949 19.9216 13.3643 19.3682 13.2959V11.9424V11.6924H19.1182H18.1517H17.9017V11.9424V13.241H17.9013H17.8998H17.8983H17.8967H17.8952H17.8937H17.8922H17.8907H17.8892H17.8877H17.8862H17.8847H17.8832H17.8817H17.8802H17.8787H17.8771H17.8756H17.8741H17.8726H17.8711H17.8696H17.8681H17.8666H17.8651H17.8636H17.8621H17.8606H17.859H17.8575H17.856H17.8545H17.853H17.8515H17.85H17.8485H17.847H17.8455H17.8439H17.8424H17.8409H17.8394H17.8379H17.8364H17.8349H17.8334H17.8319H17.8304H17.8288H17.8273H17.8258H17.8243H17.8228H17.8213H17.8198H17.8183H17.8168H17.8153H17.8137H17.8122H17.8107H17.8092H17.8077H17.8062H17.8047H17.8032H17.8017H17.8001H17.7986H17.7971H17.7956H17.7941H17.7926H17.7911H17.7896H17.788H17.7865H17.785H17.7835H17.782H17.7805H17.779H17.7775H17.776H17.7744H17.7729H17.7714H17.7699H17.7684H17.7669H17.7654H17.7639H17.7623H17.7608H17.7593H17.7578H17.7563H17.7548H17.7533H17.7518H17.7502H17.7487H17.7472H17.7457H17.7442H17.7427H17.7412H17.7397H17.7381H17.7366H17.7351H17.7336H17.7321H17.7306H17.7291H17.7275H17.726H17.7245H17.723H17.7215H17.72H17.7185H17.717H17.7154H17.7139H17.7124H17.7109H17.7094H17.7079H17.7064H17.7048H17.7033H17.7018H17.7003H17.6988H17.6973H17.6958H17.6942H17.6927H17.6912H17.6897H17.6882H17.6867H17.6852H17.6837H17.6821H17.6806H17.6791H17.6776H17.6761H17.6746H17.6731H17.6715H17.67H17.6685H17.667H17.6655H17.664H17.6625H17.6609H17.6594H17.6579H17.6564H17.6549H17.6534H17.6518H17.6503H17.6488H17.6473H17.6458H17.6443H17.6428H17.6412H17.6397H17.6382H17.6367H17.6352H17.6337H17.6322H17.6306H17.6293V11.9424V11.6924H17.3793H16.4201H16.1701V11.9424V13.2813H14.4596H14.2096V13.5313V14.5655V14.82L14.4641 14.8154L14.4596 14.5655L14.4641 14.8154L14.4641 14.8154L14.4642 14.8154L14.4646 14.8154L14.4661 14.8154L14.472 14.8153L14.4945 14.8149L14.5748 14.8137C14.5893 14.8134 14.6048 14.8132 14.6211 14.813L14.561 14.8832L15.1899 14.814C15.2542 14.8069 15.3188 14.8251 15.37 14.8647C15.4172 14.9012 15.4496 14.9533 15.4617 15.0114V19.3294C15.4605 19.3394 15.4576 19.3492 15.4531 19.3582C15.4478 19.3689 15.4405 19.3783 15.4315 19.386L15.4315 19.386L15.428 19.3891C15.4194 19.3968 15.4094 19.4026 15.3986 19.4063C15.3877 19.4099 15.3762 19.4114 15.3648 19.4105L14.602 19.3517L14.6702 19.4101L14.6544 19.4099L14.6485 19.4098L14.647 19.4098L14.6466 19.4098L14.6465 19.4098H14.6465L14.6427 19.6598L14.6465 19.4098L14.4297 19.4065L14.3958 19.6206L14.2127 20.7757L14.1669 21.0648H14.4596H16.1518V22.4293V22.6793H16.4018H17.3683H17.6183V22.4293V21.0886H17.8908V22.422V22.672H18.1408H19.1091H19.3591V22.422V21.0587C20.0895 20.999 20.7465 20.8656 21.2536 20.5612C21.8352 20.2121 22.1941 19.6542 22.2722 18.8191C22.3337 18.1622 22.213 17.648 21.9174 17.2645C21.7279 17.0188 21.4787 16.8426 21.1931 16.7167C21.3175 16.602 21.425 16.468 21.5105 16.3127C21.6866 15.993 21.7587 15.603 21.7157 15.1443ZM19.8622 18.6054C19.8622 18.8207 19.7756 18.9667 19.6282 19.0799C19.4695 19.2017 19.2357 19.2873 18.9539 19.342C18.5054 19.4291 18.0087 19.4264 17.6494 19.4216V17.7846C17.6534 17.7846 17.6574 17.7845 17.6614 17.7844C18.0222 17.7766 18.5107 17.7661 18.9563 17.8481C19.2372 17.8999 19.4693 17.9841 19.6266 18.1069C19.7722 18.2207 19.8622 18.3728 19.8622 18.6054ZM19.4137 15.6034C19.4137 15.8021 19.3407 15.9301 19.2264 16.0258C19.1019 16.13 18.916 16.2048 18.6859 16.2529C18.3338 16.3264 17.9464 16.3259 17.6512 16.3213V14.8767C17.9482 14.8693 18.334 14.8623 18.6878 14.9335C18.9168 14.9795 19.1011 15.0535 19.2246 15.159C19.3378 15.2557 19.4137 15.3896 19.4137 15.6034Z" fill="#F09242" stroke="white" stroke-width="0.5"/>
<path d="M17.9982 27C16.0205 26.9996 14.0874 26.4129 12.4432 25.3139C10.7989 24.215 9.51751 22.6532 8.76086 20.826C8.00421 18.9988 7.80633 16.9883 8.19224 15.0487C8.57815 13.109 9.53052 11.3274 10.9289 9.92894C12.3274 8.53052 14.109 7.57815 16.0487 7.19224C17.9883 6.80633 19.9988 7.00421 21.826 7.76086C23.6532 8.51751 25.215 9.79895 26.3139 11.4432C27.4129 13.0874 27.9996 15.0205 28 16.9982C28.0002 18.3117 27.7417 19.6124 27.2392 20.826C26.7366 22.0396 25.9999 23.1423 25.0711 24.0711C24.1423 24.9999 23.0396 25.7366 21.826 26.2392C20.6124 26.7417 19.3117 27.0002 17.9982 27V27ZM17.9982 7.7798C16.1761 7.78124 14.3954 8.32282 12.8811 9.33606C11.3668 10.3493 10.1869 11.7887 9.49046 13.4724C8.79403 15.1561 8.61238 17.0085 8.96846 18.7954C9.32454 20.5823 10.2024 22.2235 11.491 23.5116C12.7796 24.7997 14.4212 25.6769 16.2082 26.0323C17.9953 26.3876 19.8476 26.2052 21.531 25.5082C23.2144 24.8111 24.6533 23.6306 25.666 22.1158C26.6786 20.6011 27.2195 18.8202 27.2202 16.9982C27.2207 15.7872 26.9825 14.5879 26.5191 13.469C26.0558 12.3502 25.3765 11.3336 24.52 10.4774C23.6635 9.62128 22.6467 8.94235 21.5276 8.47947C20.4085 8.01659 19.2092 7.77883 17.9982 7.7798V7.7798Z" fill="#282138"/>
</g>
</g>
<defs>
<filter id="filter0_biiii_401_456" x="0.944661" y="0.666585" width="33.1111" height="33.1112" filterUnits="userSpaceOnUse" color-interpolation-filters="sRGB">
<feFlood flood-opacity="0" result="BackgroundImageFix"/>
<feGaussianBlur in="BackgroundImageFix" stdDeviation="0.5"/>
<feComposite in2="SourceAlpha" operator="in" result="effect1_backgroundBlur_401_456"/>
<feBlend mode="normal" in="SourceGraphic" in2="effect1_backgroundBlur_401_456" result="shape"/>
<feColorMatrix in="SourceAlpha" type="matrix" values="0 0 0 0 0 0 0 0 0 0 0 0 0 0 0 0 0 0 127 0" result="hardAlpha"/>
<feOffset dx="-2.66667" dy="2.66667"/>
<feGaussianBlur stdDeviation="1.33333"/>
<feComposite in2="hardAlpha" operator="arithmetic" k2="-1" k3="1"/>
<feColorMatrix type="matrix" values="0 0 0 0 0.8 0 0 0 0 0.8 0 0 0 0 0.8 0 0 0 0.35 0"/>
<feBlend mode="normal" in2="shape" result="effect2_innerShadow_401_456"/>
<feColorMatrix in="SourceAlpha" type="matrix" values="0 0 0 0 0 0 0 0 0 0 0 0 0 0 0 0 0 0 127 0" result="hardAlpha"/>
<feOffset dx="-1.33333" dy="1.33333"/>
<feGaussianBlur stdDeviation="0.666667"/>
<feComposite in2="hardAlpha" operator="arithmetic" k2="-1" k3="1"/>
<feColorMatrix type="matrix" values="0 0 0 0 1 0 0 0 0 1 0 0 0 0 1 0 0 0 0.35 0"/>
<feBlend mode="normal" in2="effect2_innerShadow_401_456" result="effect3_innerShadow_401_456"/>
<feColorMatrix in="SourceAlpha" type="matrix" values="0 0 0 0 0 0 0 0 0 0 0 0 0 0 0 0 0 0 127 0" result="hardAlpha"/>
<feOffset dx="2.66667" dy="-2.66667"/>
<feGaussianBlur stdDeviation="1.33333"/>
<feComposite in2="hardAlpha" operator="arithmetic" k2="-1" k3="1"/>
<feColorMatrix type="matrix" values="0 0 0 0 1 0 0 0 0 1 0 0 0 0 1 0 0 0 0.35 0"/>
<feBlend mode="normal" in2="effect3_innerShadow_401_456" result="effect4_innerShadow_401_456"/>
<feColorMatrix in="SourceAlpha" type="matrix" values="0 0 0 0 0 0 0 0 0 0 0 0 0 0 0 0 0 0 127 0" result="hardAlpha"/>
<feOffset dx="1.33333" dy="-1.33333"/>
<feGaussianBlur stdDeviation="0.666667"/>
<feComposite in2="hardAlpha" operator="arithmetic" k2="-1" k3="1"/>
<feColorMatrix type="matrix" values="0 0 0 0 0.8 0 0 0 0 0.8 0 0 0 0 0.8 0 0 0 0.35 0"/>
<feBlend mode="normal" in2="effect4_innerShadow_401_456" result="effect5_innerShadow_401_456"/>
</filter>
<clipPath id="clip0_401_456">
<rect width="35" height="35" fill="white"/>
</clipPath>
<clipPath id="clip1_401_456">
<rect width="20" height="20" fill="white" transform="translate(8 7)"/>
</clipPath>
</defs>
</svg>
