<svg width="20" height="20" viewBox="0 0 20 20" fill="none" xmlns="http://www.w3.org/2000/svg">
<g clip-path="url(#clip0_401_602)">
<path d="M5.55734 2.60378C5.938 2.14428 6.2881 1.75547 6.62152 1.42558C0.992182 1.23412 2.63153 5.54929 0.78657 9.92926C-1.32513 14.9779 1.03664 16.9013 4.55428 17.5022C4.06305 16.8816 3.6622 16.1866 3.36506 15.4403C1.09499 12.3976 2.01469 6.8512 5.55734 2.60378Z" fill="#EFE812"/>
<path d="M19.1023 7.98242C18.4375 9.82608 17.4757 11.5333 16.2598 13.0281C15.285 14.2839 14.1174 15.3564 12.8061 16.2004C11.2831 17.2234 9.51306 17.7565 7.71021 17.735C6.65764 17.745 5.60595 17.6672 4.5649 17.5023C5.1429 18.2342 5.85949 18.8293 6.66826 19.249C11.7586 21.8587 12.0781 17.0133 17.4629 14.5538C20.486 13.1724 20.4971 10.4743 19.0995 7.98242" fill="#EDE70A"/>
<path d="M12.8063 2.94561C13.5432 3.08235 14.2533 3.34918 14.9069 3.73501C16.6192 4.7556 18.062 6.21618 19.1025 7.98243C20.0194 5.24311 19.5916 3.09289 17.5882 2.70408C15.382 2.27698 13.6593 2.13854 12.0033 0.913212C9.96388 -0.588997 8.17449 -0.100043 6.62406 1.42868L6.96027 1.4434C9.11086 1.5789 11.167 2.03251 12.7952 2.93972" fill="#EDE70A"/>
<path d="M5.5571 2.60371C2.01444 6.85113 1.09474 12.3975 3.37593 15.4402C2.84823 14.1194 2.61793 12.6865 2.7033 11.255C2.78866 9.82344 3.18734 8.43265 3.86774 7.19281C5.78772 3.79958 9.64156 2.32683 12.8063 2.94539C11.167 2.02639 9.11086 1.58456 6.97138 1.44907L6.63517 1.4314C6.29063 1.76718 5.94054 2.14421 5.5571 2.60371Z" fill="#DEC21C"/>
<path d="M14.9066 3.72906C14.2526 3.34529 13.5426 3.08045 12.806 2.94556C14.9622 4.14732 16.3931 6.18562 16.3931 9.408C16.3806 10.7683 16.0455 12.1033 15.4187 13.2903C14.7918 14.4773 13.8934 15.478 12.806 16.2003C14.118 15.3572 15.2858 14.2846 16.2598 13.028C17.4757 11.5333 18.4374 9.82603 19.1022 7.98238C18.0624 6.21396 16.6196 4.7513 14.9066 3.72906Z" fill="#E5CB22"/>
<path d="M12.8061 2.94544C9.64133 2.32688 5.78749 3.79964 3.86751 7.17813C3.18426 8.41957 2.78399 9.81303 2.69861 11.2475C2.61322 12.6819 2.84508 14.1176 3.37571 15.4403C3.67179 16.1872 4.07273 16.8823 4.56493 17.5021C5.60598 17.6671 6.65767 17.7449 7.71024 17.7348C9.51309 17.7563 11.2832 17.2233 12.8061 16.2002C13.8936 15.4781 14.7922 14.4774 15.4191 13.2904C16.046 12.1034 16.381 10.7682 16.3932 9.40788C16.3932 6.1855 14.9623 4.14721 12.8061 2.94544ZM12.4504 14.6686C11.28 15.4656 9.85942 15.7388 8.49941 15.4286C7.13939 15.1184 5.95057 14.25 5.19288 13.0132C3.62022 10.4418 4.39821 7.12217 6.7572 5.35486C9.39682 3.36665 12.7811 4.15015 14.0148 7.01024C15.2179 9.79669 14.8872 13.0161 12.4504 14.6686Z" fill="#CCA727"/>
</g>
<defs>
<clipPath id="clip0_401_602">
<rect width="20" height="20" fill="white"/>
</clipPath>
</defs>
</svg>
