<svg width="20" height="20" viewBox="0 0 20 20" fill="none" xmlns="http://www.w3.org/2000/svg">
<g clip-path="url(#clip0_401_493)">
<g clip-path="url(#clip1_401_493)">
<path d="M14.6443 1.75953C14.1238 2.27417 13.6469 2.83195 13.2231 3.42671L13.089 3.38357C12.3161 3.13395 11.5151 2.97987 10.7079 2.92748C10.4648 2.90899 9.55779 2.90899 9.2617 2.92748C8.3672 2.98603 7.68152 3.11854 6.90234 3.38665C6.87118 3.39898 6.84312 3.40822 6.81507 3.41747C6.37562 2.82579 5.88629 2.27109 5.3471 1.76261C7.93398 0.452905 10.9603 0.29574 13.6687 1.3281C13.9586 1.43596 14.2422 1.5623 14.5196 1.6979L14.6443 1.75953Z" fill="#F00500"/>
<path d="M19.4687 13.4484C19.076 14.5547 18.4869 15.5809 17.7233 16.4746C17.3088 16.9553 16.8506 17.396 16.3582 17.7966C15.205 18.7149 13.8586 19.3713 12.4218 19.7165C10.8322 20.0955 9.17413 20.0955 7.5846 19.7165C6.14467 19.3713 4.80137 18.7149 3.64818 17.7966C3.15574 17.396 2.69758 16.9553 2.28306 16.4746C0.0857679 13.9075 -0.58121 10.3821 0.537692 7.20492C0.749629 6.61632 1.01455 6.04929 1.33246 5.51C1.47894 5.26347 1.65971 4.98612 1.74698 4.8721C2.04619 6.14482 2.41396 7.26347 2.55109 7.66717C2.54174 7.68874 2.52928 7.71339 2.51681 7.73496C1.79061 9.18951 1.39791 10.5917 1.30441 12.0832C1.30441 12.1017 1.30129 12.1233 1.30129 12.1417C1.27636 12.5886 1.28882 12.8012 1.36362 13.0816C1.59738 13.9599 2.31734 14.9276 3.44559 15.8767C5.29381 17.4299 7.79965 18.5516 9.69774 18.681C11.6769 18.8135 14.5972 17.6702 16.5421 16C16.8475 15.7319 17.1342 15.4484 17.4023 15.1464C17.5955 14.9245 17.8822 14.5424 17.8604 14.5424C17.8542 14.5424 17.8604 14.5362 17.8729 14.53C17.8822 14.5239 17.8916 14.5146 17.8854 14.5085C17.8822 14.5054 17.8885 14.4961 17.8978 14.4931C17.9072 14.49 17.9134 14.4838 17.9103 14.4776C17.9072 14.4715 17.9103 14.4653 17.9228 14.4622C17.9321 14.4592 17.9352 14.4499 17.9321 14.4437C17.929 14.4376 17.9321 14.4314 17.9383 14.4314C17.9446 14.4314 17.9508 14.4222 17.9508 14.416C17.9508 14.4098 17.957 14.4006 17.9633 14.4006C17.9695 14.4006 17.9757 14.3944 17.9757 14.3883C17.9851 14.3636 18.0007 14.339 18.0163 14.3174C18.063 14.2465 18.25 13.9168 18.275 13.8613C18.4526 13.4638 18.5648 13.1094 18.6178 12.755C18.6427 12.5855 18.6583 12.2743 18.6458 12.2003C18.6427 12.188 18.6427 12.1664 18.6396 12.1325C18.6334 12.0709 18.6303 11.9784 18.624 11.886C18.6178 11.7473 18.6053 11.5531 18.596 11.4576C18.462 10.0585 18.1004 8.91524 17.4147 7.70415C17.3867 7.65792 17.3618 7.6117 17.3462 7.57472C17.3399 7.56547 17.3368 7.55623 17.3337 7.55006C17.4303 7.26347 17.8261 6.0647 18.1409 4.69336L18.1472 4.69952L18.1939 4.76116C18.275 4.86901 18.49 5.18951 18.5866 5.34359C19.0261 6.05237 19.3689 6.81354 19.612 7.60861C20.1762 9.52233 20.1294 11.5624 19.4687 13.4484Z" fill="#F00500"/>
<path d="M15.4231 9.76569C15.4138 9.815 15.2673 9.96292 15.1208 10.0708C14.6907 10.382 13.9209 10.6717 13.1386 10.8104C12.6929 10.8905 12.2472 10.9028 12.1132 10.8381C12.0259 10.795 12.0135 10.7611 12.0446 10.6501C12.1101 10.419 12.322 10.1663 12.6524 9.92902C12.8207 9.80883 13.5032 9.39897 13.8212 9.2264C14.3448 8.94289 14.7686 8.77339 15.0554 8.73333C15.1458 8.72101 15.2548 8.71792 15.2891 8.73333C15.3452 8.7549 15.4076 8.91823 15.4325 9.11546C15.445 9.22023 15.4387 9.68249 15.4231 9.76569Z" fill="black"/>
<path d="M8.08015 10.7857C8.06145 10.8227 7.96795 10.8627 7.86198 10.8782C7.75601 10.8936 7.43188 10.8843 7.24799 10.8627C6.58725 10.7765 5.88598 10.5761 5.37484 10.3296C5.0881 10.1909 4.8824 10.0523 4.72968 9.90126L4.64241 9.8119L4.63306 9.69479C4.61748 9.4914 4.62059 9.17091 4.64553 9.05689C4.66111 8.96136 4.69539 8.8689 4.74215 8.7857C4.76708 8.75488 4.76708 8.75488 4.87928 8.75488C5.01642 8.75488 5.13174 8.77646 5.31874 8.83501C5.7021 8.95211 6.27246 9.23562 6.96749 9.64857C7.54096 9.98755 7.75601 10.154 7.9212 10.382C8.0334 10.5238 8.1082 10.7241 8.08015 10.7857Z" fill="black"/>
<path d="M12.4931 15.0753C12.4931 15.0846 12.4557 15.2325 12.409 15.4081C12.3622 15.5838 12.3248 15.7256 12.3248 15.7317C12.2905 15.7348 12.2594 15.7379 12.2251 15.7348H12.1253L11.9882 16.0553C11.9134 16.2309 11.8448 16.3943 11.8355 16.4189L11.8168 16.4621L11.7513 16.3573L11.6859 16.2525V15.3989L11.6609 15.4051C11.608 15.4174 11.2308 15.4667 11.0657 15.4821C10.3831 15.5499 9.69741 15.5345 9.01796 15.439C8.90888 15.4236 8.81538 15.4112 8.81226 15.4143C8.80914 15.4174 8.81226 15.6146 8.8185 15.8581L8.82785 16.2957L8.77486 16.3758C8.74681 16.4189 8.71876 16.4559 8.71876 16.459C8.70941 16.4682 8.67824 16.4189 8.60656 16.2772C8.52864 16.1293 8.47254 15.9721 8.43202 15.8088L8.4102 15.7194L8.31359 15.7256L8.21697 15.7348L8.19203 15.6208C8.17957 15.5591 8.16398 15.4636 8.15775 15.4112L8.1484 15.3126L8.06736 15.2417C8.02061 15.2017 7.97387 15.1616 7.96451 15.1554C7.94893 15.1431 7.9427 15.1215 7.9427 15.1031V15.0661L8.33229 15.0692L8.72188 15.0722L8.73434 15.1123L8.74681 15.1524L8.88083 15.1585C8.95563 15.1616 9.1925 15.1678 9.40444 15.1739L9.79403 15.1832L9.89377 15.0291L9.99662 14.875H10.1275L10.1244 14.5545L10.1213 14.234L9.94986 14.1601C9.39821 13.9197 9.07407 13.6454 8.95251 13.3126C8.92758 13.2448 8.92758 13.2202 8.92135 12.912C8.91823 12.6069 8.91823 12.5792 8.94005 12.5114C8.98368 12.3573 9.10523 12.2371 9.26107 12.197C9.31405 12.1816 9.45431 12.1816 10.1899 12.1816L11.0563 12.1847L11.1529 12.2309C11.2682 12.2864 11.3212 12.3265 11.3867 12.4128C11.4615 12.5114 11.4833 12.5884 11.4833 12.7764C11.4833 13.0445 11.4646 13.2756 11.4365 13.3681C11.396 13.4944 11.3337 13.6146 11.2558 13.7225C11.0999 13.9197 10.8163 14.1169 10.5576 14.2063L10.4828 14.234L10.4859 14.5576L10.4891 14.8812L10.5576 14.8873L10.6262 14.8935L10.7197 15.0322L10.8101 15.1709H11.2277C11.4584 15.1709 11.6609 15.1739 11.6796 15.177C11.7108 15.1832 11.717 15.1801 11.7482 15.1277L11.7856 15.0722H12.144C12.4121 15.0599 12.4931 15.0661 12.4931 15.0753Z" fill="black"/>
<path d="M10.8478 15.9599C10.7886 15.9938 10.7481 16.0092 10.7387 16.0031C10.7294 16 10.6857 15.963 10.639 15.9291L10.5548 15.8613L10.4676 15.9538C10.2774 16.1572 10.2712 16.1664 10.2151 16.1695C10.1278 16.1787 10.1091 16.1633 10.0032 16.0062C9.94707 15.926 9.90344 15.8582 9.90344 15.8582C9.90344 15.8582 9.86292 15.8521 9.81617 15.849L9.7289 15.8398L9.68838 15.923L9.64787 16.0062L9.57618 15.9846C9.52008 15.9661 9.46398 15.9445 9.411 15.9199L9.3175 15.8737V15.698L10.1465 15.7011L10.9756 15.7042L10.9787 15.7874C10.9818 15.886 10.9849 15.8829 10.8478 15.9599Z" fill="black"/>
<path d="M18.6396 12.2002C18.6365 12.1879 18.6365 12.1663 18.6334 12.1324C17.8854 12.0523 15.7504 12.003 13.7682 13.6209C13.7682 13.6209 13.1292 10.7241 10.1372 10.7241C7.14514 10.7241 6.03559 13.6209 6.03559 13.6209C4.35879 11.8366 2.11475 11.966 1.30441 12.0831C1.30441 12.1016 1.30129 12.1232 1.30129 12.1417C1.27636 12.5885 1.28882 12.8012 1.36362 13.0816C1.59738 13.9599 2.31734 14.9275 3.4456 15.8767C5.29381 17.4298 7.79965 18.5515 9.69774 18.681C11.6769 18.8135 14.5972 17.6702 16.5421 15.9999C16.8475 15.7318 17.1342 15.4483 17.4023 15.1463C17.5955 14.9244 17.8822 14.5423 17.8604 14.5423C17.8542 14.5423 17.8604 14.5361 17.8729 14.53C17.8822 14.5238 17.8916 14.5146 17.8854 14.5084C17.8822 14.5053 17.8885 14.4961 17.8978 14.493C17.9072 14.4899 17.9134 14.4838 17.9103 14.4776C17.9072 14.4714 17.9103 14.4653 17.9228 14.4622C17.9321 14.4591 17.9352 14.4499 17.9321 14.4437C17.929 14.4375 17.9321 14.4314 17.9383 14.4314C17.9446 14.4314 17.9508 14.4221 17.9508 14.416C17.9508 14.4098 17.957 14.4005 17.9633 14.4005C17.9695 14.4005 17.9757 14.3944 17.9757 14.3882C17.9851 14.3636 18.0007 14.3389 18.0163 14.3173C18.063 14.2465 18.25 13.9167 18.275 13.8613C18.4526 13.4637 18.5648 13.1093 18.6178 12.7549C18.6365 12.5854 18.6521 12.2742 18.6396 12.2002ZM10.8478 15.9599C10.7886 15.9938 10.7481 16.0092 10.7387 16.003C10.7294 15.9999 10.6857 15.963 10.639 15.9291L10.5548 15.8613L10.4676 15.9537C10.2774 16.1571 10.2712 16.1663 10.2151 16.1694C10.1278 16.1787 10.1091 16.1633 10.0032 16.0061C9.94708 15.926 9.90344 15.8582 9.90344 15.8582C9.90344 15.8582 9.86292 15.852 9.81617 15.8489L9.7289 15.8397L9.68839 15.9229L9.64787 16.0061L9.57618 15.9845C9.52008 15.966 9.46398 15.9445 9.411 15.9198L9.3175 15.8736V15.6979L10.1465 15.701L10.9756 15.7041L10.9787 15.7873C10.9818 15.8859 10.9849 15.8828 10.8478 15.9599ZM12.4062 15.4052C12.3594 15.5808 12.322 15.7226 12.322 15.7287C12.2877 15.7318 12.2566 15.7349 12.2223 15.7318H12.1225L11.9885 16.0554C11.9137 16.2311 11.8452 16.3944 11.8358 16.419L11.8171 16.4622L11.7517 16.3574L11.6862 16.2526V15.399L11.6613 15.4052C11.6083 15.4175 11.2312 15.4668 11.066 15.4822C10.3834 15.55 9.69774 15.5346 9.01829 15.4391C8.9092 15.4237 8.8157 15.4113 8.81259 15.4144C8.80947 15.4175 8.81259 15.6147 8.81882 15.8582L8.82817 16.2958L8.77519 16.3759C8.74714 16.419 8.71909 16.456 8.71909 16.4591C8.70974 16.4683 8.67857 16.419 8.60688 16.2773C8.52897 16.1294 8.47287 15.9722 8.43235 15.8089L8.41053 15.7195L8.31391 15.7257L8.21729 15.7349L8.19236 15.6209C8.17989 15.5593 8.16431 15.4637 8.15808 15.4113L8.14873 15.3127L8.06769 15.2418C8.02094 15.2018 7.97419 15.1617 7.96484 15.1556C7.94926 15.1432 7.94302 15.1217 7.94302 15.1032V15.0662L8.33261 15.0693L8.7222 15.0723L8.73467 15.1124L8.74714 15.1525L8.88116 15.1586C8.95596 15.1617 9.19283 15.1679 9.40476 15.174L9.79435 15.1833L9.89409 15.0292L9.99694 14.8751H10.1278L10.1247 14.5546L10.1216 14.2341L9.95019 14.1602C9.39853 13.9198 9.07439 13.6455 8.95284 13.3127C8.92791 13.2449 8.92791 13.2203 8.92167 12.9121C8.91856 12.607 8.91856 12.5793 8.94037 12.5115C8.98401 12.3574 9.10556 12.2372 9.2614 12.1972C9.31438 12.1817 9.45463 12.1817 10.1902 12.1817L11.0566 12.1848L11.1532 12.2311C11.2686 12.2865 11.3215 12.3266 11.387 12.4129C11.4618 12.5115 11.4836 12.5885 11.4836 12.7765C11.4836 13.0446 11.4649 13.2757 11.4369 13.3682C11.3964 13.4945 11.334 13.6147 11.2561 13.7226C11.1003 13.9198 10.8166 14.117 10.558 14.2064L10.4831 14.2341L10.4863 14.5577L10.4894 14.8813L10.558 14.8874L10.6265 14.8936L10.72 15.0323L10.8104 15.171H11.228C11.4587 15.171 11.6613 15.174 11.68 15.1771C11.7111 15.1833 11.7174 15.1802 11.7485 15.1278L11.7859 15.0723H12.1444C12.4218 15.0723 12.5028 15.0754 12.5028 15.0847C12.4934 15.0816 12.4529 15.2326 12.4062 15.4052Z" fill="white"/>
<path d="M18.6147 11.8859C18.6084 11.7472 18.596 11.5531 18.5866 11.4576C18.4526 10.0585 18.0911 8.91519 17.4054 7.70409C17.3773 7.65787 17.3524 7.61164 17.3368 7.57466C17.3306 7.56542 17.3275 7.55617 17.3244 7.55001C17.421 7.26341 17.8168 6.06465 18.1316 4.69331C18.5586 2.83198 18.8297 0.656327 18.0007 0.00301425C18.0007 0.00301425 16.567 -0.101762 14.6471 1.75956C14.1266 2.2742 13.6497 2.83198 13.2259 3.42674L13.0918 3.3836C12.3189 3.13398 11.5179 2.9799 10.7107 2.92751C10.4676 2.90902 9.5606 2.90902 9.26451 2.92751C8.37001 2.98606 7.68433 3.11858 6.90515 3.38668C6.87399 3.39901 6.84594 3.40825 6.81788 3.4175C6.37843 2.82582 5.8891 2.27112 5.34991 1.76264C3.35209 -0.107925 1.86542 -6.76e-05 1.86542 -6.76e-05C0.9865 0.674817 1.28571 2.94908 1.74075 4.87204C2.03995 6.14477 2.40772 7.26341 2.54486 7.66711C2.53551 7.68868 2.52304 7.71334 2.51058 7.73491C1.78438 9.18946 1.39167 10.5916 1.29817 12.0831C2.11164 11.966 4.35256 11.8335 6.03247 13.6209C6.03247 13.6209 7.14202 10.7241 10.1341 10.7241C13.1261 10.7241 13.7651 13.6209 13.7651 13.6209C15.7473 12.003 17.8822 12.0554 18.6303 12.1324C18.6271 12.0708 18.6209 11.9784 18.6147 11.8859ZM3.13392 6.50533C3.13392 6.50533 1.96827 3.62397 2.26747 1.97836C2.31734 1.70101 2.41084 1.45756 2.55733 1.27266C2.55733 1.27266 3.87882 1.40209 6.01065 3.74415C6.01065 3.74415 5.60548 3.9383 5.06317 4.35124C5.06317 4.35124 5.06005 4.35432 5.05694 4.35432C4.46788 4.80116 3.71363 5.50995 3.13392 6.50533ZM8.08016 10.7858C8.06146 10.8227 7.96795 10.8628 7.86199 10.8782C7.75602 10.8936 7.43188 10.8844 7.24799 10.8628C6.58725 10.7765 5.88599 10.5762 5.37485 10.3297C5.08811 10.191 4.8824 10.0523 4.72968 9.90132L4.64242 9.81195L4.63306 9.69485C4.61748 9.49146 4.6206 9.17097 4.64553 9.05694C4.66111 8.96141 4.6954 8.86896 4.74215 8.78576C4.76708 8.75494 4.76708 8.75494 4.87929 8.75494C5.01642 8.75494 5.13174 8.77651 5.31874 8.83506C5.7021 8.95217 6.27246 9.23568 6.96749 9.64862C7.54097 9.98761 7.75602 10.154 7.9212 10.3821C8.03341 10.5238 8.10821 10.7241 8.08016 10.7858ZM15.4232 9.76573C15.4138 9.81503 15.2673 9.96295 15.1208 10.0708C14.6907 10.3821 13.9209 10.6717 13.1386 10.8104C12.6929 10.8905 12.2472 10.9029 12.1132 10.8381C12.0259 10.795 12.0135 10.7611 12.0446 10.6502C12.1101 10.419 12.322 10.1663 12.6524 9.92905C12.8207 9.80887 13.5033 9.39901 13.8212 9.22644C14.3448 8.94292 14.7686 8.77343 15.0554 8.73337C15.1458 8.72104 15.2549 8.71796 15.2891 8.73337C15.3452 8.75494 15.4076 8.91827 15.4325 9.11549C15.445 9.22027 15.4387 9.68252 15.4232 9.76573ZM14.9058 4.35124L14.8995 4.34816C14.3759 3.93522 13.9832 3.74107 13.9832 3.74107C16.0434 1.39901 17.3181 1.26958 17.3181 1.26958C17.4584 1.45756 17.5488 1.69793 17.5986 1.97528C17.8885 3.62089 16.7633 6.50533 16.7633 6.50533C16.2927 5.67636 15.66 4.94292 14.9058 4.35124Z" fill="#FFA409"/>
<path d="M17.6017 1.97523C17.3586 1.94442 16.2086 1.93825 14.9058 4.3512L14.8995 4.34811C14.3759 3.93517 13.9832 3.74103 13.9832 3.74103C16.0434 1.39896 17.3181 1.26953 17.3181 1.26953C17.4615 1.45751 17.5519 1.69788 17.6017 1.97523Z" fill="#FF9300"/>
<path d="M16.7665 6.50516C16.2927 5.67311 15.6631 4.94276 14.9058 4.35108C16.2086 1.93814 17.3555 1.9443 17.6017 1.97512C17.8916 3.62381 16.7665 6.50516 16.7665 6.50516Z" fill="#FF8300"/>
<path d="M17.6488 1.98469C17.6332 1.98157 17.6176 1.97846 17.6021 1.97534L17.6488 1.98469Z" fill="#FF8300"/>
<path d="M6.01066 3.74103C6.01066 3.74103 5.60549 3.93517 5.06318 4.34811C5.06318 4.34811 5.06006 4.3512 5.05694 4.3512C3.7074 1.93517 2.51993 1.94442 2.26436 1.97523C2.31423 1.69788 2.40773 1.45443 2.55422 1.26953C2.55733 1.26953 3.87882 1.39896 6.01066 3.74103Z" fill="#FF9300"/>
<path d="M5.06006 4.35108C4.46788 4.801 3.71363 5.5067 3.13392 6.50516C3.13392 6.50516 1.96827 3.62381 2.26747 1.97512C2.51993 1.9443 3.71052 1.93814 5.06006 4.35108Z" fill="#FF8300"/>
<path d="M2.26747 1.97534C2.25189 1.97846 2.23319 1.98157 2.21761 1.98469L2.26747 1.97534Z" fill="#FF8300"/>
<path d="M13.6123 8.10466C13.6123 8.10466 12.615 8.1663 12.7397 7.39588C12.8643 6.62547 13.6435 6.53302 13.8617 6.56383C14.0798 6.59465 14.9525 6.90281 14.7967 7.54996C14.6409 8.19711 14.4227 8.07385 14.298 8.10466C14.1733 8.13548 13.6123 8.10466 13.6123 8.10466Z" fill="white"/>
<path d="M6.25687 8.10466C6.25687 8.10466 5.25952 8.1663 5.38419 7.39588C5.50886 6.62547 6.28804 6.53302 6.50621 6.56383C6.72438 6.59465 7.59706 6.90281 7.44123 7.54996C7.28539 8.19711 7.06722 8.07385 6.94255 8.10466C6.81788 8.13548 6.25687 8.10466 6.25687 8.10466Z" fill="white"/>
</g>
</g>
<defs>
<clipPath id="clip0_401_493">
<rect width="20" height="20" fill="white"/>
</clipPath>
<clipPath id="clip1_401_493">
<rect width="20" height="20" fill="white"/>
</clipPath>
</defs>
</svg>
