<svg width="20" height="20" viewBox="0 0 20 20" fill="none" xmlns="http://www.w3.org/2000/svg">
<g clip-path="url(#clip0_401_423)">
<path d="M10 20C15.5417 20 20 15.5417 20 10C20 4.4583 15.5417 0 10 0C4.4583 0 0 4.4583 0 10C0 15.5417 4.4583 20 10 20Z" fill="#2775CA"/>
<path d="M12.7502 11.5833C12.7502 10.125 11.8752 9.62495 10.1252 9.41665C8.87515 9.24995 8.62515 8.91665 8.62515 8.33325C8.62515 7.74985 9.04185 7.37495 9.87515 7.37495C10.6252 7.37495 11.0419 7.62495 11.2502 8.24995C11.2919 8.37495 11.4169 8.45825 11.5419 8.45825H12.2085C12.3752 8.45825 12.5002 8.33325 12.5002 8.16665V8.12495C12.3335 7.20825 11.5835 6.49995 10.6252 6.41665V5.41665C10.6252 5.24995 10.5002 5.12495 10.2919 5.08325H9.66685C9.50015 5.08325 9.37516 5.20825 9.33346 5.41665V6.37495C8.08346 6.54165 7.29185 7.37495 7.29185 8.41665C7.29185 9.79165 8.12516 10.3333 9.87515 10.5417C11.0419 10.75 11.4169 11 11.4169 11.6667C11.4169 12.3334 10.8335 12.7917 10.0419 12.7917C8.95845 12.7917 8.58346 12.3333 8.45846 11.7083C8.41686 11.5417 8.29185 11.4583 8.16685 11.4583H7.45846C7.29186 11.4583 7.16685 11.5833 7.16685 11.75V11.7917C7.33345 12.8333 8.00016 13.5833 9.37515 13.7917V14.7917C9.37515 14.9583 9.50016 15.0833 9.70846 15.125H10.3335C10.5002 15.125 10.6252 15 10.6669 14.7917V13.7917C11.9169 13.5833 12.7502 12.7083 12.7502 11.5833Z" fill="white"/>
<path d="M7.87526 15.9583C4.62526 14.7917 2.95856 11.1667 4.16696 7.95835C4.79196 6.20835 6.16696 4.87505 7.87526 4.25005C8.04196 4.16675 8.12526 4.04175 8.12526 3.83335V3.25005C8.12526 3.08335 8.04196 2.95835 7.87526 2.91675C7.83356 2.91675 7.75026 2.91675 7.70856 2.95835C3.75026 4.20835 1.58356 8.41675 2.83356 12.375C3.58356 14.7083 5.37526 16.5 7.70856 17.25C7.87526 17.3333 8.04196 17.25 8.08356 17.0833C8.12526 17.0417 8.12526 17 8.12526 16.9167V16.3333C8.12526 16.2083 8.00026 16.0417 7.87526 15.9583ZM12.292 2.95835C12.1253 2.87505 11.9586 2.95835 11.917 3.12505C11.8753 3.16675 11.8753 3.20835 11.8753 3.29175V3.87505C11.8753 4.04175 12.0003 4.20835 12.1253 4.29175C15.3753 5.45835 17.042 9.08335 15.8336 12.2917C15.2086 14.0417 13.8336 15.375 12.1253 16C11.9586 16.0833 11.8753 16.2083 11.8753 16.4167V17C11.8753 17.1667 11.9586 17.2917 12.1253 17.3333C12.167 17.3333 12.2503 17.3333 12.292 17.2917C16.2503 16.0417 18.417 11.8333 17.167 7.87505C16.417 5.50005 14.5836 3.70835 12.292 2.95835Z" fill="white"/>
</g>
<defs>
<clipPath id="clip0_401_423">
<rect width="20" height="20" fill="white"/>
</clipPath>
</defs>
</svg>
