<svg width="20" height="20" viewBox="0 0 20 20" fill="none" xmlns="http://www.w3.org/2000/svg">
<g clip-path="url(#clip0_401_576)">
<path d="M5.28247 16.1915C5.82265 16.8068 6.47964 17.3088 7.21533 17.6683C7.95102 18.0278 8.75077 18.2376 9.56818 18.2856C10.5448 18.2338 11.4662 17.8165 12.1494 17.1168C13.4969 15.9626 14.9118 14.8893 16.3864 13.9025L17.2143 13.5616C17.5552 13.4155 18.1396 13.0746 18.6753 12.4415C19.2597 11.6622 19.3571 10.8343 19.3571 10.5421C19.2924 9.62052 18.9904 8.73135 18.4805 7.96094C17.15 10.3318 15.2431 12.3289 12.9362 13.7675C10.6293 15.2061 7.99693 16.0398 5.28247 16.1915Z" fill="#0293D6"/>
<path d="M7.13338 2.3604C7.49693 1.97638 7.93486 1.6704 8.42048 1.46108C8.9061 1.25176 9.42924 1.14349 9.95805 1.14286C10.2931 1.12043 10.6293 1.16485 10.947 1.27355C11.2647 1.38224 11.5576 1.55303 11.8087 1.77598C13.2057 2.76565 14.8696 3.30898 16.5814 3.33442C17.0197 3.38312 17.8964 3.52923 18.4808 4.25975C18.9191 4.84416 18.9678 5.47728 18.9678 5.76949C18.9286 6.52202 18.764 7.26273 18.4808 7.96105L7.13338 2.3604Z" fill="#EBE638"/>
<path d="M5.28247 16.1914C4.84416 16.1427 4.25974 15.9966 3.57793 15.7044C2.89611 15.4122 2.06819 15.0713 1.53247 14.146C1.19156 13.5616 1.14286 12.9772 1.14286 12.5876C1.15475 11.5543 1.40473 10.5377 1.87338 9.61677C2.33964 8.47849 2.65087 7.28273 2.7987 6.06158L3.04221 5.08755C3.18831 4.60054 3.28572 4.11353 3.62663 3.62651L4.16234 3.0421C5.04716 2.48579 6.09427 2.24547 7.13312 2.36028C5.74208 4.35017 4.84813 6.64441 4.52615 9.05085C4.20416 11.4573 4.46351 13.9059 5.28247 16.1914Z" fill="#BAD147"/>
<path d="M7.13338 2.36035C7.08468 2.36035 9.76325 2.50646 11.4191 3.09087L12.7827 3.67529C12.247 3.62659 8.83793 3.48048 6.25676 6.06165C2.99377 9.37334 4.0652 13.9026 4.1139 14.1461C3.35774 13.1947 2.97655 11.9992 3.04248 10.7857C3.10659 9.17514 3.50311 7.59527 4.20712 6.14534C4.91114 4.69541 5.90742 3.40675 7.13338 2.36035Z" fill="#78B650"/>
<path d="M13.6591 14.3896C14.5805 12.7147 14.9886 10.8058 14.8328 8.90055C14.6769 6.99534 13.9638 5.17812 12.7825 3.67529C14.1931 3.91115 15.4907 4.59407 16.4838 5.62334C17.0682 6.11036 17.7987 6.84088 18.4805 7.96101C17.5176 10.5188 15.845 12.7489 13.6591 14.3896Z" fill="#2F8260"/>
<path d="M15.2175 5.81818C14.4383 4.50325 13.3182 3.91883 12.8312 3.67532C12.4416 3.57792 8.78896 2.99351 6.01299 5.67208C3.77273 7.81493 3.62663 10.5909 3.62663 11.1266C3.63694 12.962 4.25329 14.7426 5.37987 16.1916C6.82761 16.4703 8.31525 16.4703 9.76299 16.1916C10.4935 16.0455 12.1981 15.7532 13.6591 14.487C13.8539 14.2922 15.9968 12.2955 16.1429 9.12987C16.1429 8.59415 16.1429 7.23052 15.2175 5.81818ZM13.4643 12.8799C13.012 13.3718 12.4625 13.7644 11.8505 14.0327C11.2384 14.301 10.5773 14.4391 9.90909 14.4383C9.61688 14.4383 7.66883 14.3896 6.3052 12.7825C6.11039 12.539 5.13637 11.3701 5.18507 9.61688C5.28247 7.27922 7.13312 5.91558 7.52273 5.62338C7.86364 5.37987 8.69156 4.84415 9.90909 4.79545C10.2013 4.74675 11.224 4.69805 12.2468 5.28247C14.487 6.5 14.5844 9.42208 14.5844 9.61688C14.5844 10.1526 14.5844 11.6136 13.4643 12.8799Z" fill="#085229"/>
</g>
<defs>
<clipPath id="clip0_401_576">
<rect width="18.2143" height="17.1429" fill="white" transform="translate(1.14286 1.14282)"/>
</clipPath>
</defs>
</svg>
