<?xml version="1.0" encoding="utf-8"?>
<!-- Generator: Adobe Illustrator 28.2.0, SVG Export Plug-In . SVG Version: 6.00 Build 0)  -->
<svg version="1.1" id="Layer_1" xmlns="http://www.w3.org/2000/svg" xmlns:xlink="http://www.w3.org/1999/xlink" x="0px" y="0px"
	 viewBox="0 0 131 131" style="enable-background:new 0 0 131 131;" xml:space="preserve">
<style type="text/css">
	.st0{fill:#274030;}
	.st1{fill:#FFFFFF;}
</style>
<g>
	<circle class="st0" cx="65.5" cy="65.5" r="65.5"/>
	<path class="st1" d="M104.9,32.4H79.8c-1.1,0-2.1,0.7-2.4,1.7c-0.2,0.2-0.3,0.5-0.4,0.8L60.4,93.4h-2.2L42.3,37.6H50
		c1.4,0,2.6-1.2,2.6-2.6c0-1.4-1.2-2.6-2.6-2.6H26.1c-1.4,0-2.6,1.2-2.6,2.6c0,1.5,1.2,2.6,2.6,2.6h10.8l15.8,55.9h-3.9
		c-1.4,0-2.6,1.2-2.6,2.6c0,1.5,1.2,2.6,2.6,2.6h37.8c1.4,0,2.6-1.2,2.6-2.6c0-1.4-1.2-2.6-2.6-2.6h-3.5l15.8-55.9h6
		c1.4,0,2.6-1.2,2.6-2.6C107.5,33.6,106.3,32.4,104.9,32.4z M79.5,87.1C79.5,87.1,79.5,87.1,79.5,87.1l-3.6,1.6l1.3-4.5l3.6-1.6
		L79.5,87.1z M68.3,84.6l4-2.5l-1.1,4l-3.9,2.1L68.3,84.6L68.3,84.6z M67,89.1l3.9-2.1l-1.1,4l-3.8,1.6L67,89.1z M72.5,81.4l-4,2.5
		l1.2-4.1l4.1-2.7L72.5,81.4z M84.5,37.6l-3,0.8l0.2-0.8H84.5z M81.2,39l3.6-0.9l-0.4,1.6l-3.6,0.9L81.2,39z M80.6,41.3l3.6-0.9
		L83.7,42L80,43.5L80.6,41.3z M79.8,44.1l3.7-1.5L83,44.4l-4,2.3L79.8,44.1z M78.8,47.5l4-2.3l-0.9,3l-4,2.3L78.8,47.5z M77.7,51.3
		l4-2.3l-0.9,3.3l-4,2.3L77.7,51.3z M76.6,55.4l4-2.3l-0.7,2.5l-4.3,3.5L76.6,55.4z M75.2,60.2l4.3-3.5l-1.1,3.8L74.1,64L75.2,60.2z
		 M73.8,65.1l4.3-3.5l-1.1,4l-4.3,3.5L73.8,65.1z M72.4,70.2l4.3-3.5l-1.2,4.2l-4.2,3.1L72.4,70.2z M71.1,74.9l4.2-3.1L74,76
		L70,78.8L71.1,74.9z M81,81.8l-3.6,1.6l1.4-5.1l3.5-1L81,81.8z M82.5,76.5l-3.5,1l1.3-4.6l3.5-1L82.5,76.5z M84,71.3l-3.5,1
		l1.2-4.2l3.5-1L84,71.3z M85.4,66.4l-3.5,1l1.2-4.3l3.2-0.2L85.4,66.4z M83.3,62.5l1-3.7h3.2l-1,3.5L83.3,62.5z M84.5,58.3l0.9-3.3
		l3,0.5l-0.8,2.8H84.5z M85.6,54.3l0.8-2.9l2.9,1l-0.7,2.4L85.6,54.3z M86.6,50.9l0.7-2.6l2.8,1.4l-0.6,2.2L86.6,50.9z M87.4,47.7
		l0.6-2.1l2.8,1.4l-0.6,2.1L87.4,47.7z M88.2,45l0.5-1.9l2.7,1.6L91,46.4L88.2,45z M88.9,42.6l0.5-1.7l2.7,1.8l-0.4,1.5L88.9,42.6z
		 M89.5,40.3l0.4-1.3l2.7,1.8l-0.4,1.3L89.5,40.3z M90.1,38.5l0.3-0.9h1.2l1.7,1.1l-0.5,1.6L90.1,38.5z M65.9,93l0.1,0.2l3.6-1.6
		l-0.5,1.8h-3.3L65.9,93z M74.5,93.4l1.1-4l3.6-1.6l-1.6,5.6H74.5z M93.4,38.1l-0.8-0.5h0.9L93.4,38.1z"/>
</g>
</svg>
