<svg width="20" height="20" viewBox="0 0 20 20" fill="none" xmlns="http://www.w3.org/2000/svg">
<g clip-path="url(#clip0_401_463)">
<path d="M16.3076 4.19738L15.7585 4.74653C17.0688 6.1795 17.7955 8.05097 17.7955 9.99273C17.7955 11.9345 17.0688 13.806 15.7585 15.2389L16.3076 15.7881C17.7649 14.2074 18.5739 12.1362 18.5739 9.98633C18.5739 7.83642 17.7649 5.76524 16.3076 4.18457V4.19738Z" fill="#5A5564"/>
<path d="M4.75929 4.24491C6.19226 2.93455 8.06373 2.20788 10.0055 2.20788C11.9473 2.20788 13.8187 2.93455 15.2517 4.24491L15.8008 3.69576C14.2202 2.2385 12.149 1.42944 9.99908 1.42944C7.84917 1.42944 5.77799 2.2385 4.19733 3.69576L4.75929 4.24491Z" fill="#5A5564"/>
<path d="M4.24515 15.2443C2.93634 13.8117 2.21064 11.9413 2.21064 10.0009C2.21064 8.06038 2.93634 6.19005 4.24515 4.7574L3.696 4.20825C2.23874 5.78892 1.42969 7.8601 1.42969 10.01C1.42969 12.1599 2.23874 14.2311 3.696 15.8118L4.24515 15.2443Z" fill="#5A5564"/>
<path d="M15.2447 15.7515C13.8117 17.0618 11.9402 17.7885 9.99848 17.7885C8.05671 17.7885 6.18524 17.0618 4.75227 15.7515L4.20312 16.3006C5.78379 17.7579 7.85497 18.5669 10.0049 18.5669C12.1548 18.5669 14.226 17.7579 15.8066 16.3006L15.2447 15.7515Z" fill="#5A5564"/>
<path d="M13.7157 8.14435L13.7156 8.14386C13.6528 7.4886 13.3312 7.03756 12.8502 6.74468C12.4399 6.49486 11.9216 6.3643 11.3682 6.29589V4.94238V4.69238H11.1182H10.1517H9.90174V4.94238V6.24098H9.90127H9.89976H9.89826H9.89675H9.89524H9.89373H9.89223H9.89072H9.88921H9.8877H9.8862H9.88469H9.88318H9.88167H9.88016H9.87866H9.87715H9.87564H9.87413H9.87262H9.87111H9.8696H9.8681H9.86659H9.86508H9.86357H9.86206H9.86055H9.85904H9.85753H9.85602H9.85451H9.853H9.8515H9.84999H9.84848H9.84697H9.84546H9.84395H9.84244H9.84093H9.83942H9.83791H9.8364H9.83489H9.83338H9.83187H9.83036H9.82885H9.82734H9.82583H9.82432H9.82281H9.82129H9.81978H9.81827H9.81676H9.81525H9.81374H9.81223H9.81072H9.80921H9.8077H9.80619H9.80468H9.80316H9.80165H9.80014H9.79863H9.79712H9.79561H9.7941H9.79258H9.79107H9.78956H9.78805H9.78654H9.78503H9.78351H9.782H9.78049H9.77898H9.77747H9.77595H9.77444H9.77293H9.77142H9.76991H9.76839H9.76688H9.76537H9.76386H9.76234H9.76083H9.75932H9.75781H9.75629H9.75478H9.75327H9.75176H9.75024H9.74873H9.74722H9.74571H9.74419H9.74268H9.74117H9.73965H9.73814H9.73663H9.73511H9.7336H9.73209H9.73057H9.72906H9.72755H9.72604H9.72452H9.72301H9.72149H9.71998H9.71847H9.71695H9.71544H9.71393H9.71241H9.7109H9.70939H9.70787H9.70636H9.70485H9.70333H9.70182H9.7003H9.69879H9.69728H9.69576H9.69425H9.69273H9.69122H9.68971H9.68819H9.68668H9.68516H9.68365H9.68214H9.68062H9.67911H9.67759H9.67608H9.67457H9.67305H9.67154H9.67002H9.66851H9.66699H9.66548H9.66397H9.66245H9.66094H9.65942H9.65791H9.65639H9.65488H9.65336H9.65185H9.65033H9.64882H9.64731H9.64579H9.64428H9.64276H9.64125H9.63973H9.63822H9.6367H9.63519H9.63367H9.63216H9.63064H9.62927V4.94238V4.69238H9.37927H8.42009H8.17009V4.94238V6.28125H6.45963H6.20963V6.53125V7.56548V7.82001L6.46412 7.81544L6.45963 7.56548L6.46412 7.81544L6.46414 7.81544L6.46423 7.81544L6.4646 7.81543L6.4661 7.81541L6.47199 7.81531L6.49446 7.81492L6.57476 7.81365C6.58925 7.81344 6.60479 7.81321 6.62114 7.81298L6.56097 7.88317L7.18988 7.81398C7.25421 7.80691 7.31877 7.82508 7.36996 7.86467C7.41718 7.90118 7.44962 7.95329 7.46169 8.01141V12.3294C7.46049 12.3394 7.45759 12.3492 7.45308 12.3582C7.44781 12.3689 7.44047 12.3783 7.43149 12.386L7.43146 12.386L7.42796 12.3891C7.41942 12.3968 7.40942 12.4026 7.39857 12.4063C7.38771 12.4099 7.37623 12.4114 7.36481 12.4105L6.60205 12.3517L6.67022 12.4101L6.65443 12.4099L6.64851 12.4098L6.64701 12.4098L6.64663 12.4098L6.64654 12.4098L6.64652 12.4098L6.4297 12.4065L6.39576 12.6206L6.21271 13.7757L6.16689 14.0648H6.45963H8.15179V15.4293V15.6793H8.40179H9.36829H9.61829V15.4293V14.0886H9.89076V15.422V15.672H10.1408H11.1091H11.3591V15.422V14.0587C12.0895 13.999 12.7465 13.8656 13.2536 13.5612C13.8352 13.2121 14.1941 12.6542 14.2722 11.8191C14.3337 11.1622 14.213 10.648 13.9174 10.2645C13.7279 10.0188 13.4787 9.84258 13.1931 9.71674C13.3175 9.60198 13.425 9.46795 13.5105 9.31274C13.6866 8.99297 13.7587 8.603 13.7157 8.14435ZM11.8622 11.6054C11.8622 11.8207 11.7756 11.9667 11.6282 12.0799C11.4695 12.2017 11.2357 12.2873 10.9539 12.342C10.5054 12.4291 10.0087 12.4264 9.64941 12.4216V10.7846C9.6534 10.7846 9.6574 10.7845 9.66142 10.7844C10.0222 10.7766 10.5107 10.7661 10.9563 10.8481C11.2372 10.8999 11.4693 10.9841 11.6266 11.1069C11.7722 11.2207 11.8622 11.3728 11.8622 11.6054ZM11.4137 8.60337C11.4137 8.80207 11.3407 8.93012 11.2264 9.02577C11.1019 9.13004 10.916 9.20481 10.6859 9.25285C10.3338 9.32639 9.94645 9.32588 9.65124 9.32135V7.87669C9.94818 7.86929 10.334 7.86234 10.6878 7.93345C10.9168 7.9795 11.1011 8.05353 11.2246 8.15896C11.3378 8.25566 11.4137 8.38965 11.4137 8.60337Z" fill="#F09242" stroke="white" stroke-width="0.5"/>
<path d="M9.99817 20C8.02052 19.9996 6.08737 19.4129 4.44316 18.3139C2.79895 17.215 1.51751 15.6532 0.760859 13.826C0.00420949 11.9988 -0.19367 9.98829 0.192241 8.04865C0.578152 6.10901 1.53052 4.32735 2.92894 2.92894C4.32735 1.53052 6.10901 0.578152 8.04865 0.192241C9.98829 -0.19367 11.9988 0.00420949 13.826 0.760859C15.6532 1.51751 17.215 2.79895 18.3139 4.44316C19.4129 6.08737 19.9996 8.02052 20 9.99817C20.0002 11.3117 19.7417 12.6124 19.2392 13.826C18.7366 15.0396 17.9999 16.1423 17.0711 17.0711C16.1423 17.9999 15.0396 18.7366 13.826 19.2392C12.6124 19.7417 11.3117 20.0002 9.99817 20ZM9.99817 0.779796C8.17614 0.781244 6.39544 1.32282 4.88113 2.33606C3.36682 3.3493 2.18688 4.78874 1.49046 6.47242C0.794033 8.1561 0.612381 10.0085 0.968463 11.7954C1.32454 13.5823 2.20237 15.2235 3.491 16.5116C4.77963 17.7997 6.4212 18.6769 8.20824 19.0323C9.99528 19.3876 11.8476 19.2052 13.531 18.5082C15.2144 17.8111 16.6533 16.6306 17.666 15.1158C18.6786 13.6011 19.2195 11.8202 19.2202 9.99817C19.2207 8.78716 18.9825 7.58792 18.5191 6.46904C18.0558 5.35016 17.3765 4.33358 16.52 3.47743C15.6635 2.62128 14.6467 1.94235 13.5276 1.47947C12.4085 1.01659 11.2092 0.778833 9.99817 0.779796Z" fill="#282138"/>
</g>
<defs>
<clipPath id="clip0_401_463">
<rect width="20" height="20" fill="white"/>
</clipPath>
</defs>
</svg>
