<svg width="32" height="32" viewBox="0 0 32 32" fill="none" xmlns="http://www.w3.org/2000/svg" class="w-5 h-5"><mask id="mask0_10218_863" maskUnits="userSpaceOnUse" x="11" y="23" width="10" height="9" style="mask-type: luminance;"><path fill-rule="evenodd" clip-rule="evenodd" d="M11.4794 23.5766H20.7987V30.8865C20.7987 31.5202 20.1408 31.9398 19.5662 31.6725L16.139 30.0785L12.712 31.6725C12.1373 31.9398 11.4794 31.5202 11.4794 30.8865V23.5766Z" fill="white"></path></mask><g mask="url(#mask0_10218_863)"><path fill-rule="evenodd" clip-rule="evenodd" d="M20.7987 23.5766H16.139V30.0785L18.8267 31.3285C19.4823 31.6335 19.8101 31.786 20.0754 31.7414C20.3072 31.7024 20.5133 31.571 20.6464 31.3773C20.7987 31.1555 20.7987 30.794 20.7987 30.0709V23.5766Z" fill="#FF5181"></path><path d="M11.4794 30.0709C11.4794 30.794 11.4794 31.1555 11.6318 31.3773C11.7648 31.571 11.9709 31.7024 12.2027 31.7414C12.468 31.786 12.7958 31.6335 13.4515 31.3285L16.139 30.0785V23.5766H11.4794V30.0709Z" fill="#FF5181"></path><path fill-rule="evenodd" clip-rule="evenodd" d="M13.9717 19.2417H18.3062V31.3785H16.139H13.9717V19.2417Z" fill="white"></path></g><path d="M16 24.9694C22.8273 24.9694 28.3619 19.4348 28.3619 12.6075C28.3619 5.78019 22.8273 0.245575 16 0.245575C9.17273 0.245575 3.63812 5.78019 3.63812 12.6075C3.63812 19.4348 9.17273 24.9694 16 24.9694Z" fill="url(#paint0_linear_10218_863)"></path><path d="M16.0001 22.2571C21.3294 22.2571 25.6497 17.9369 25.6497 12.6075C25.6497 7.27824 21.3294 2.95798 16.0001 2.95798C10.6708 2.95798 6.35052 7.27824 6.35052 12.6075C6.35052 17.9369 10.6708 22.2571 16.0001 22.2571Z" fill="#A88300"></path><path d="M15.9239 22.2796C21.2656 22.2796 25.596 17.9493 25.596 12.6075C25.596 7.26583 21.2656 2.93552 15.9239 2.93552C10.5822 2.93552 6.25189 7.26583 6.25189 12.6075C6.25189 17.9493 10.5822 22.2796 15.9239 22.2796Z" fill="#B7513B"></path><path d="M15.9959 5.87888L18.0823 10.0517L22.2551 10.5733L19.3898 13.7863L20.1687 18.3973L15.9959 16.3109L11.8231 18.3973L12.609 13.7863L9.73676 10.5733L13.9095 10.0517L15.9959 5.87888Z" fill="url(#paint1_linear_10218_863)"></path><defs><linearGradient id="paint0_linear_10218_863" x1="16" y1="24.9694" x2="16" y2="0.245563" gradientUnits="userSpaceOnUse"><stop stop-color="#EE9D8B"></stop><stop offset="1" stop-color="#F67248"></stop></linearGradient><linearGradient id="paint1_linear_10218_863" x1="15.9959" y1="5.87888" x2="15.9959" y2="18.3973" gradientUnits="userSpaceOnUse"><stop stop-color="#FFF1EA"></stop><stop offset="1" stop-color="#FAA195"></stop></linearGradient></defs></svg>