<svg width="32" height="32" viewBox="0 0 32 32" fill="none" xmlns="http://www.w3.org/2000/svg" class="w-5 h-5"><path d="M7.36865 19.6875V26.9406C7.36865 27.7482 7.36865 28.152 7.53878 28.3997C7.6874 28.6161 7.91753 28.7628 8.17641 28.8063C8.47274 28.8561 8.83887 28.6858 9.57113 28.3453L12.5728 26.9491L14.4032 27.8005C14.4219 28.0766 14.4639 28.2622 14.5584 28.3997C14.707 28.6161 14.9371 28.7628 15.196 28.8063C15.4142 28.843 15.6703 28.7603 16.0826 28.5781C16.4949 28.7603 16.751 28.843 16.9692 28.8063C17.2281 28.7628 17.4582 28.6161 17.6069 28.3997C17.7013 28.2622 17.7433 28.0766 17.762 27.8005L19.5924 26.9491L22.5941 28.3453C23.3263 28.6858 23.6925 28.8561 23.9888 28.8063C24.2477 28.7628 24.4778 28.6161 24.6264 28.3997C24.7966 28.152 24.7966 27.7482 24.7966 26.9406V19.6875H7.36865Z" fill="#FF5181"></path><mask id="mask0_10218_650" maskUnits="userSpaceOnUse" x="10" y="22" width="12" height="10" style="mask-type: luminance;"><path fill-rule="evenodd" clip-rule="evenodd" d="M10.8784 22.5923H21.2867V30.7563C21.2867 31.4641 20.552 31.9327 19.9102 31.6342L16.0826 29.8539L12.255 31.6342C11.6132 31.9327 10.8784 31.4641 10.8784 30.7563V22.5923Z" fill="white"></path></mask><g mask="url(#mask0_10218_650)"><g filter="url(#filter0_d_10218_650)"><path fill-rule="evenodd" clip-rule="evenodd" d="M10.8784 22.5923H21.2867V29.8454C21.2867 30.653 21.2867 31.0568 21.1166 31.3045C20.968 31.5208 20.7379 31.6676 20.479 31.7111C20.1827 31.7609 19.8165 31.5906 19.0843 31.25L16.0826 29.8539L13.0809 31.25C12.3486 31.5906 11.9825 31.7609 11.6862 31.7111C11.4273 31.6676 11.1972 31.5208 11.0485 31.3045C10.8784 31.0568 10.8784 30.653 10.8784 29.8454V22.5923Z" fill="#6E79ED"></path></g><path fill-rule="evenodd" clip-rule="evenodd" d="M13.6616 17.7515H18.5027V31.3065H16.0822H13.6616V17.7515Z" fill="white"></path></g><path d="M16 25.002C22.8284 25.002 28.3638 19.4666 28.3638 12.6382C28.3638 5.80988 22.8284 0.274414 16 0.274414C9.17169 0.274414 3.63623 5.80988 3.63623 12.6382C3.63623 19.4666 9.17169 25.002 16 25.002Z" fill="url(#paint0_linear_10218_650)"></path><path d="M16.0002 22.2894C21.3303 22.2894 25.6512 17.9685 25.6512 12.6384C25.6512 7.30823 21.3303 2.9873 16.0002 2.9873C10.67 2.9873 6.34912 7.30823 6.34912 12.6384C6.34912 17.9685 10.67 22.2894 16.0002 22.2894Z" fill="#A88300"></path><path d="M15.9997 22.3114C21.3422 22.3114 25.6732 17.9804 25.6732 12.6379C25.6732 7.29533 21.3422 2.96436 15.9997 2.96436C10.6571 2.96436 6.32617 7.29533 6.32617 12.6379C6.32617 17.9804 10.6571 22.3114 15.9997 22.3114Z" fill="#D17E00"></path><path d="M16.0521 5.90869L18.1388 10.0821L22.3123 10.6038L19.4465 13.8173L20.2256 18.429L16.0521 16.3422L11.8787 18.429L12.6647 13.8173L9.79199 10.6038L13.9654 10.0821L16.0521 5.90869Z" fill="url(#paint1_linear_10218_650)"></path><defs><filter id="filter0_d_10218_650" x="9.66815" y="22.5923" width="12.8288" height="11.5479" filterUnits="userSpaceOnUse" color-interpolation-filters="sRGB"><feFlood flood-opacity="0" result="BackgroundImageFix"></feFlood><feColorMatrix in="SourceAlpha" type="matrix" values="0 0 0 0 0 0 0 0 0 0 0 0 0 0 0 0 0 0 127 0" result="hardAlpha"></feColorMatrix><feOffset dy="1.21027"></feOffset><feGaussianBlur stdDeviation="0.605136"></feGaussianBlur><feColorMatrix type="matrix" values="0 0 0 0 0 0 0 0 0 0 0 0 0 0 0 0 0 0 0.2 0"></feColorMatrix><feBlend mode="normal" in2="BackgroundImageFix" result="effect1_dropShadow_10218_650"></feBlend><feBlend mode="normal" in="SourceGraphic" in2="effect1_dropShadow_10218_650" result="shape"></feBlend></filter><linearGradient id="paint0_linear_10218_650" x1="16" y1="0.274414" x2="16" y2="25.002" gradientUnits="userSpaceOnUse"><stop stop-color="#FFCB67"></stop><stop offset="1" stop-color="#FFDA92"></stop></linearGradient><linearGradient id="paint1_linear_10218_650" x1="16.0521" y1="5.90869" x2="16.0521" y2="18.429" gradientUnits="userSpaceOnUse"><stop stop-color="#FFFCDD"></stop><stop offset="1" stop-color="#FFE896"></stop></linearGradient></defs></svg>