<svg width="32" height="32" viewBox="0 0 32 32" fill="none" xmlns="http://www.w3.org/2000/svg" class="w-5 h-5"><mask id="mask0_10218_877" maskUnits="userSpaceOnUse" x="4" y="20" width="13" height="12" style="mask-type: luminance;"><path fill-rule="evenodd" clip-rule="evenodd" d="M7.5978 20.6507L16.1136 24.4422L13.1397 31.1218C12.8818 31.7009 12.11 31.8167 11.6936 31.3386L9.21048 28.4877L5.4303 28.55C4.79645 28.5605 4.366 27.9094 4.62385 27.3303L7.5978 20.6507Z" fill="white"></path></mask><g mask="url(#mask0_10218_877)"><path fill-rule="evenodd" clip-rule="evenodd" d="M11.8557 22.5465L7.5978 20.6507L4.95565 26.585C4.66147 27.2458 4.51438 27.5762 4.56334 27.8408C4.60612 28.072 4.74094 28.2759 4.93691 28.4058C5.16122 28.5545 5.52282 28.5485 6.24599 28.5366L9.21047 28.4877L11.8557 22.5465Z" fill="#FF5181"></path><path d="M11.1578 30.7235C11.6328 31.2689 11.8704 31.5416 12.1309 31.6088C12.3586 31.6675 12.6003 31.6312 12.8008 31.5083C13.0302 31.3676 13.1773 31.0373 13.4715 30.3765L16.1136 24.4422L11.8557 22.5465L9.21045 28.4877L11.1578 30.7235Z" fill="#6E79ED"></path><path fill-rule="evenodd" clip-rule="evenodd" d="M11.6388 17.7039L15.5996 19.4674L10.6619 30.5578L8.68148 29.6761L6.70105 28.7943L11.6388 17.7039Z" fill="white"></path></g><mask id="mask1_10218_877" maskUnits="userSpaceOnUse" x="15" y="20" width="13" height="12" style="mask-type: luminance;"><path fill-rule="evenodd" clip-rule="evenodd" d="M15.9943 24.4422L24.5102 20.6507L27.4841 27.3303C27.742 27.9094 27.3115 28.5605 26.6777 28.55L22.8975 28.4878L20.4143 31.3386C19.998 31.8167 19.2261 31.7009 18.9683 31.1218L15.9943 24.4422Z" fill="white"></path></mask><g mask="url(#mask1_10218_877)"><path fill-rule="evenodd" clip-rule="evenodd" d="M24.5102 20.6507L20.2523 22.5465L22.8975 28.4878L25.862 28.5366C26.5852 28.5485 26.9467 28.5545 27.1711 28.4058C27.367 28.2759 27.5018 28.072 27.5446 27.8408C27.5936 27.5762 27.4465 27.2458 27.1523 26.585L24.5102 20.6507Z" fill="#FF5181"></path><path d="M18.6365 30.3765C18.9307 31.0373 19.0777 31.3677 19.3072 31.5083C19.5076 31.6312 19.7493 31.6675 19.977 31.6088C20.2376 31.5416 20.4751 31.2689 20.9502 30.7235L22.8975 28.4878L20.2523 22.5465L15.9943 24.4422L18.6365 30.3765Z" fill="#6E79ED"></path><path fill-rule="evenodd" clip-rule="evenodd" d="M16.5085 19.4676L20.4694 17.7041L25.4071 28.7945L23.4267 29.6763L21.4463 30.558L16.5085 19.4676Z" fill="white"></path></g><path d="M16 25.0938C22.829 25.0938 28.3651 19.5577 28.3651 12.7287C28.3651 5.89963 22.829 0.363586 16 0.363586C9.17093 0.363586 3.63489 5.89963 3.63489 12.7287C3.63489 19.5577 9.17093 25.0938 16 25.0938Z" fill="url(#paint0_linear_10218_877)"></path><path d="M15.9999 22.3807C21.3306 22.3807 25.652 18.0593 25.652 12.7286C25.652 7.39787 21.3306 3.07648 15.9999 3.07648C10.6692 3.07648 6.34778 7.39787 6.34778 12.7286C6.34778 18.0593 10.6692 22.3807 15.9999 22.3807Z" fill="#A88300"></path><path d="M15.9237 22.4032C21.2668 22.4032 25.5983 18.0717 25.5983 12.7286C25.5983 7.38547 21.2668 3.05402 15.9237 3.05402C10.5806 3.05402 6.24915 7.38547 6.24915 12.7286C6.24915 18.0717 10.5806 22.4032 15.9237 22.4032Z" fill="#6A6B6C"></path><path d="M15.9963 5.99835L18.0832 10.1722L22.2571 10.694L19.391 13.9079L20.1702 18.52L15.9963 16.4331L11.8224 18.52L12.6085 13.9079L9.73547 10.694L13.9093 10.1722L15.9963 5.99835Z" fill="url(#paint1_linear_10218_877)"></path><defs><linearGradient id="paint0_linear_10218_877" x1="16" y1="25.0939" x2="16" y2="0.363586" gradientUnits="userSpaceOnUse"><stop stop-color="#CED5E1"></stop><stop offset="1" stop-color="#A4AAB5"></stop></linearGradient><linearGradient id="paint1_linear_10218_877" x1="15.9963" y1="5.99835" x2="15.9963" y2="18.52" gradientUnits="userSpaceOnUse"><stop stop-color="#EDEFF4"></stop><stop offset="1" stop-color="#C9CACE"></stop></linearGradient></defs></svg>